%TF.GenerationSoftware,KiCad,Pcbnew,10.0.3*%
%TF.CreationDate,2026-06-27T21:16:08+05:30*%
%TF.ProjectId,boardstorm_x3,626f6172-6473-4746-9f72-6d5f78332e6b,rev?*%
%TF.SameCoordinates,Original*%
%TF.FileFunction,Soldermask,Bot*%
%TF.FilePolarity,Negative*%
%FSLAX46Y46*%
G04 Gerber Fmt 4.6, Leading zero omitted, Abs format (unit mm)*
G04 Created by KiCad (PCBNEW 10.0.3) date 2026-06-27 21:16:08*
%MOMM*%
%LPD*%
G01*
G04 APERTURE LIST*
G04 Aperture macros list*
%AMRoundRect*
0 Rectangle with rounded corners*
0 $1 Rounding radius*
0 $2 $3 $4 $5 $6 $7 $8 $9 X,Y pos of 4 corners*
0 Add a 4 corners polygon primitive as box body*
4,1,4,$2,$3,$4,$5,$6,$7,$8,$9,$2,$3,0*
0 Add four circle primitives for the rounded corners*
1,1,$1+$1,$2,$3*
1,1,$1+$1,$4,$5*
1,1,$1+$1,$6,$7*
1,1,$1+$1,$8,$9*
0 Add four rect primitives between the rounded corners*
20,1,$1+$1,$2,$3,$4,$5,0*
20,1,$1+$1,$4,$5,$6,$7,0*
20,1,$1+$1,$6,$7,$8,$9,0*
20,1,$1+$1,$8,$9,$2,$3,0*%
G04 Aperture macros list end*
%ADD10RoundRect,0.250000X-0.350000X-0.625000X0.350000X-0.625000X0.350000X0.625000X-0.350000X0.625000X0*%
%ADD11O,1.200000X1.750000*%
%ADD12C,0.650000*%
%ADD13O,1.000000X2.100000*%
%ADD14O,1.000000X1.600000*%
%ADD15R,1.700000X1.700000*%
%ADD16C,1.700000*%
G04 APERTURE END LIST*
D10*
%TO.C,J5*%
X148250000Y-122875000D03*
D11*
X150250000Y-122875000D03*
%TD*%
D12*
%TO.C,J1*%
X151890000Y-83860000D03*
X146110000Y-83860000D03*
D13*
X153320000Y-84390000D03*
D14*
X153320000Y-80210000D03*
D13*
X144680000Y-84390000D03*
D14*
X144680000Y-80210000D03*
%TD*%
D15*
%TO.C,J4*%
X146460000Y-128080000D03*
D16*
X149000000Y-128080000D03*
X151540000Y-128080000D03*
%TD*%
D15*
%TO.C,J3*%
X157890000Y-80060000D03*
D16*
X157890000Y-82600000D03*
X157890000Y-85140000D03*
X157890000Y-87680000D03*
X157890000Y-90220000D03*
X157890000Y-92760000D03*
X157890000Y-95300000D03*
X157890000Y-97840000D03*
X157890000Y-100380000D03*
X157890000Y-102920000D03*
X157890000Y-105460000D03*
X157890000Y-108000000D03*
X157890000Y-110540000D03*
X157890000Y-113080000D03*
X157890000Y-115620000D03*
X157890000Y-118160000D03*
X157890000Y-120700000D03*
X157890000Y-123240000D03*
X157890000Y-125780000D03*
X157890000Y-128320000D03*
%TD*%
D15*
%TO.C,J2*%
X140230000Y-80060000D03*
D16*
X140230000Y-82600000D03*
X140230000Y-85140000D03*
X140230000Y-87680000D03*
X140230000Y-90220000D03*
X140230000Y-92760000D03*
X140230000Y-95300000D03*
X140230000Y-97840000D03*
X140230000Y-100380000D03*
X140230000Y-102920000D03*
X140230000Y-105460000D03*
X140230000Y-108000000D03*
X140230000Y-110540000D03*
X140230000Y-113080000D03*
X140230000Y-115620000D03*
X140230000Y-118160000D03*
X140230000Y-120700000D03*
X140230000Y-123240000D03*
X140230000Y-125780000D03*
X140230000Y-128320000D03*
%TD*%
M02*
