%TF.GenerationSoftware,KiCad,Pcbnew,10.0.3*%
%TF.CreationDate,2026-06-27T21:16:08+05:30*%
%TF.ProjectId,boardstorm_x3,626f6172-6473-4746-9f72-6d5f78332e6b,rev?*%
%TF.SameCoordinates,Original*%
%TF.FileFunction,Legend,Bot*%
%TF.FilePolarity,Positive*%
%FSLAX46Y46*%
G04 Gerber Fmt 4.6, Leading zero omitted, Abs format (unit mm)*
G04 Created by KiCad (PCBNEW 10.0.3) date 2026-06-27 21:16:08*
%MOMM*%
%LPD*%
G01*
G04 APERTURE LIST*
%ADD10C,0.100000*%
%ADD11C,0.400000*%
%ADD12C,0.000000*%
%ADD13C,0.150000*%
%ADD14C,0.120000*%
G04 APERTURE END LIST*
D10*
X144600000Y-84300000D02*
X144500000Y-105000000D01*
X153100000Y-105100000D02*
X153300000Y-84300000D01*
D11*
X149013180Y-104774938D02*
X148917942Y-104501128D01*
X148917942Y-104501128D02*
X148822704Y-104417795D01*
X148822704Y-104417795D02*
X148632228Y-104346366D01*
X148632228Y-104346366D02*
X148346514Y-104382081D01*
X148346514Y-104382081D02*
X148156038Y-104501128D01*
X148156038Y-104501128D02*
X148060800Y-104608271D01*
X148060800Y-104608271D02*
X147965561Y-104810652D01*
X147965561Y-104810652D02*
X147965561Y-105572557D01*
X147965561Y-105572557D02*
X149965561Y-105322557D01*
X149965561Y-105322557D02*
X149965561Y-104655890D01*
X149965561Y-104655890D02*
X149870323Y-104477319D01*
X149870323Y-104477319D02*
X149775085Y-104393985D01*
X149775085Y-104393985D02*
X149584609Y-104322557D01*
X149584609Y-104322557D02*
X149394133Y-104346366D01*
X149394133Y-104346366D02*
X149203657Y-104465414D01*
X149203657Y-104465414D02*
X149108419Y-104572557D01*
X149108419Y-104572557D02*
X149013180Y-104774938D01*
X149013180Y-104774938D02*
X149013180Y-105441604D01*
X149965561Y-102941604D02*
X149965561Y-102560652D01*
X149965561Y-102560652D02*
X149870323Y-102382081D01*
X149870323Y-102382081D02*
X149679847Y-102215414D01*
X149679847Y-102215414D02*
X149298895Y-102167795D01*
X149298895Y-102167795D02*
X148632228Y-102251128D01*
X148632228Y-102251128D02*
X148251276Y-102393985D01*
X148251276Y-102393985D02*
X148060800Y-102608271D01*
X148060800Y-102608271D02*
X147965561Y-102810652D01*
X147965561Y-102810652D02*
X147965561Y-103191604D01*
X147965561Y-103191604D02*
X148060800Y-103370176D01*
X148060800Y-103370176D02*
X148251276Y-103536843D01*
X148251276Y-103536843D02*
X148632228Y-103584462D01*
X148632228Y-103584462D02*
X149298895Y-103501128D01*
X149298895Y-103501128D02*
X149679847Y-103358271D01*
X149679847Y-103358271D02*
X149870323Y-103143985D01*
X149870323Y-103143985D02*
X149965561Y-102941604D01*
X148536990Y-101501128D02*
X148536990Y-100548747D01*
X147965561Y-101763033D02*
X149965561Y-100846366D01*
X149965561Y-100846366D02*
X147965561Y-100429700D01*
X147965561Y-98620176D02*
X148917942Y-99167795D01*
X147965561Y-99763033D02*
X149965561Y-99513033D01*
X149965561Y-99513033D02*
X149965561Y-98751128D01*
X149965561Y-98751128D02*
X149870323Y-98572557D01*
X149870323Y-98572557D02*
X149775085Y-98489223D01*
X149775085Y-98489223D02*
X149584609Y-98417795D01*
X149584609Y-98417795D02*
X149298895Y-98453509D01*
X149298895Y-98453509D02*
X149108419Y-98572557D01*
X149108419Y-98572557D02*
X149013180Y-98679699D01*
X149013180Y-98679699D02*
X148917942Y-98882080D01*
X148917942Y-98882080D02*
X148917942Y-99643985D01*
X147965561Y-97763033D02*
X149965561Y-97513033D01*
X149965561Y-97513033D02*
X149965561Y-97036842D01*
X149965561Y-97036842D02*
X149870323Y-96763033D01*
X149870323Y-96763033D02*
X149679847Y-96596366D01*
X149679847Y-96596366D02*
X149489371Y-96524938D01*
X149489371Y-96524938D02*
X149108419Y-96477319D01*
X149108419Y-96477319D02*
X148822704Y-96513033D01*
X148822704Y-96513033D02*
X148441752Y-96655890D01*
X148441752Y-96655890D02*
X148251276Y-96774938D01*
X148251276Y-96774938D02*
X148060800Y-96989223D01*
X148060800Y-96989223D02*
X147965561Y-97286842D01*
X147965561Y-97286842D02*
X147965561Y-97763033D01*
X148060800Y-95846366D02*
X147965561Y-95572557D01*
X147965561Y-95572557D02*
X147965561Y-95096366D01*
X147965561Y-95096366D02*
X148060800Y-94893985D01*
X148060800Y-94893985D02*
X148156038Y-94786842D01*
X148156038Y-94786842D02*
X148346514Y-94667795D01*
X148346514Y-94667795D02*
X148536990Y-94643985D01*
X148536990Y-94643985D02*
X148727466Y-94715414D01*
X148727466Y-94715414D02*
X148822704Y-94798747D01*
X148822704Y-94798747D02*
X148917942Y-94977319D01*
X148917942Y-94977319D02*
X149013180Y-95346366D01*
X149013180Y-95346366D02*
X149108419Y-95524938D01*
X149108419Y-95524938D02*
X149203657Y-95608271D01*
X149203657Y-95608271D02*
X149394133Y-95679699D01*
X149394133Y-95679699D02*
X149584609Y-95655890D01*
X149584609Y-95655890D02*
X149775085Y-95536842D01*
X149775085Y-95536842D02*
X149870323Y-95429699D01*
X149870323Y-95429699D02*
X149965561Y-95227319D01*
X149965561Y-95227319D02*
X149965561Y-94751128D01*
X149965561Y-94751128D02*
X149870323Y-94477319D01*
X149965561Y-93893985D02*
X149965561Y-92751128D01*
X147965561Y-93572557D02*
X149965561Y-93322557D01*
X149965561Y-91703508D02*
X149965561Y-91322556D01*
X149965561Y-91322556D02*
X149870323Y-91143985D01*
X149870323Y-91143985D02*
X149679847Y-90977318D01*
X149679847Y-90977318D02*
X149298895Y-90929699D01*
X149298895Y-90929699D02*
X148632228Y-91013032D01*
X148632228Y-91013032D02*
X148251276Y-91155889D01*
X148251276Y-91155889D02*
X148060800Y-91370175D01*
X148060800Y-91370175D02*
X147965561Y-91572556D01*
X147965561Y-91572556D02*
X147965561Y-91953508D01*
X147965561Y-91953508D02*
X148060800Y-92132080D01*
X148060800Y-92132080D02*
X148251276Y-92298747D01*
X148251276Y-92298747D02*
X148632228Y-92346366D01*
X148632228Y-92346366D02*
X149298895Y-92263032D01*
X149298895Y-92263032D02*
X149679847Y-92120175D01*
X149679847Y-92120175D02*
X149870323Y-91905889D01*
X149870323Y-91905889D02*
X149965561Y-91703508D01*
X147965561Y-89096366D02*
X148917942Y-89643985D01*
X147965561Y-90239223D02*
X149965561Y-89989223D01*
X149965561Y-89989223D02*
X149965561Y-89227318D01*
X149965561Y-89227318D02*
X149870323Y-89048747D01*
X149870323Y-89048747D02*
X149775085Y-88965413D01*
X149775085Y-88965413D02*
X149584609Y-88893985D01*
X149584609Y-88893985D02*
X149298895Y-88929699D01*
X149298895Y-88929699D02*
X149108419Y-89048747D01*
X149108419Y-89048747D02*
X149013180Y-89155889D01*
X149013180Y-89155889D02*
X148917942Y-89358270D01*
X148917942Y-89358270D02*
X148917942Y-90120175D01*
X147965561Y-88239223D02*
X149965561Y-87989223D01*
X149965561Y-87989223D02*
X148536990Y-87501128D01*
X148536990Y-87501128D02*
X149965561Y-86655889D01*
X149965561Y-86655889D02*
X147965561Y-86905889D01*
X148727466Y-85858271D02*
X148727466Y-84334461D01*
X149965561Y-83417795D02*
X147965561Y-82334462D01*
X149965561Y-82084462D02*
X147965561Y-83667795D01*
X149965561Y-81513033D02*
X149965561Y-80274938D01*
X149965561Y-80274938D02*
X149203657Y-81036843D01*
X149203657Y-81036843D02*
X149203657Y-80751128D01*
X149203657Y-80751128D02*
X149108419Y-80572557D01*
X149108419Y-80572557D02*
X149013180Y-80489223D01*
X149013180Y-80489223D02*
X148822704Y-80417795D01*
X148822704Y-80417795D02*
X148346514Y-80477319D01*
X148346514Y-80477319D02*
X148156038Y-80596366D01*
X148156038Y-80596366D02*
X148060800Y-80703509D01*
X148060800Y-80703509D02*
X147965561Y-80905890D01*
X147965561Y-80905890D02*
X147965561Y-81477319D01*
X147965561Y-81477319D02*
X148060800Y-81655890D01*
X148060800Y-81655890D02*
X148156038Y-81739223D01*
D12*
G36*
X144260000Y-117720000D02*
G01*
X143740000Y-117720000D01*
X143740000Y-118240000D01*
X143220000Y-118240000D01*
X143220000Y-119800000D01*
X142700000Y-119800000D01*
X142700000Y-118240000D01*
X142700000Y-117720000D01*
X143220000Y-117720000D01*
X143220000Y-117200000D01*
X144260000Y-117200000D01*
X144260000Y-117720000D01*
G37*
G36*
X144780000Y-119800000D02*
G01*
X144260000Y-119800000D01*
X144260000Y-119280000D01*
X144780000Y-119280000D01*
X144780000Y-119800000D01*
G37*
G36*
X146340000Y-119800000D02*
G01*
X145820000Y-119800000D01*
X145820000Y-119280000D01*
X146340000Y-119280000D01*
X146340000Y-119800000D01*
G37*
G36*
X147900000Y-119280000D02*
G01*
X147380000Y-119280000D01*
X147380000Y-119800000D01*
X146860000Y-119800000D01*
X146860000Y-119280000D01*
X146860000Y-118760000D01*
X147900000Y-118760000D01*
X147900000Y-119280000D01*
G37*
G36*
X149980000Y-119800000D02*
G01*
X148940000Y-119800000D01*
X148940000Y-119280000D01*
X149980000Y-119280000D01*
X149980000Y-119800000D01*
G37*
G36*
X151540000Y-119280000D02*
G01*
X151540000Y-119800000D01*
X150500000Y-119800000D01*
X150500000Y-119280000D01*
X151020000Y-119280000D01*
X151020000Y-118760000D01*
X151540000Y-118760000D01*
X151540000Y-119280000D01*
G37*
G36*
X154660000Y-118760000D02*
G01*
X153100000Y-118760000D01*
X153100000Y-117200000D01*
X154660000Y-117200000D01*
X154660000Y-118760000D01*
G37*
G36*
X155700000Y-119280000D02*
G01*
X155700000Y-119800000D01*
X152060000Y-119800000D01*
X152060000Y-119280000D01*
X152060000Y-116680000D01*
X152580000Y-116680000D01*
X152580000Y-119280000D01*
X155180000Y-119280000D01*
X155180000Y-116680000D01*
X152580000Y-116680000D01*
X152060000Y-116680000D01*
X152060000Y-116160000D01*
X155700000Y-116160000D01*
X155700000Y-116680000D01*
X155700000Y-119280000D01*
G37*
G36*
X145820000Y-119280000D02*
G01*
X144780000Y-119280000D01*
X144780000Y-118760000D01*
X145820000Y-118760000D01*
X145820000Y-119280000D01*
G37*
G36*
X149980000Y-116160000D02*
G01*
X151020000Y-116160000D01*
X151020000Y-115640000D01*
X151540000Y-115640000D01*
X151540000Y-116160000D01*
X151540000Y-116680000D01*
X151540000Y-117200000D01*
X151020000Y-117200000D01*
X151020000Y-117720000D01*
X151020000Y-118240000D01*
X150500000Y-118240000D01*
X150500000Y-119280000D01*
X149980000Y-119280000D01*
X149980000Y-118240000D01*
X149460000Y-118240000D01*
X149460000Y-117720000D01*
X149980000Y-117720000D01*
X149980000Y-117200000D01*
X150500000Y-117200000D01*
X150500000Y-116680000D01*
X149980000Y-116680000D01*
X149980000Y-117200000D01*
X148940000Y-117200000D01*
X148940000Y-116680000D01*
X149460000Y-116680000D01*
X149460000Y-116160000D01*
X149460000Y-115640000D01*
X149980000Y-115640000D01*
X149980000Y-116160000D01*
G37*
G36*
X144780000Y-118760000D02*
G01*
X143740000Y-118760000D01*
X143740000Y-118240000D01*
X144780000Y-118240000D01*
X144780000Y-118760000D01*
G37*
G36*
X146340000Y-116680000D02*
G01*
X145820000Y-116680000D01*
X145820000Y-116160000D01*
X146340000Y-116160000D01*
X146340000Y-116680000D01*
G37*
G36*
X147900000Y-116160000D02*
G01*
X147380000Y-116160000D01*
X147380000Y-116680000D01*
X147900000Y-116680000D01*
X147900000Y-117200000D01*
X148940000Y-117200000D01*
X148940000Y-117720000D01*
X147900000Y-117720000D01*
X147900000Y-118240000D01*
X146860000Y-118240000D01*
X146860000Y-118760000D01*
X146340000Y-118760000D01*
X146340000Y-118240000D01*
X145820000Y-118240000D01*
X145820000Y-117720000D01*
X144780000Y-117720000D01*
X144780000Y-117200000D01*
X144780000Y-115640000D01*
X145300000Y-115640000D01*
X145300000Y-117200000D01*
X146860000Y-117200000D01*
X146860000Y-116680000D01*
X146860000Y-116160000D01*
X146860000Y-115640000D01*
X145300000Y-115640000D01*
X144780000Y-115640000D01*
X144780000Y-115120000D01*
X145300000Y-115120000D01*
X145300000Y-114600000D01*
X144780000Y-114600000D01*
X144780000Y-115120000D01*
X144260000Y-115120000D01*
X144260000Y-115640000D01*
X143740000Y-115640000D01*
X143740000Y-115120000D01*
X143740000Y-114600000D01*
X144260000Y-114600000D01*
X144260000Y-114080000D01*
X145300000Y-114080000D01*
X145300000Y-113560000D01*
X145820000Y-113560000D01*
X145820000Y-114080000D01*
X145820000Y-114600000D01*
X145820000Y-115120000D01*
X146860000Y-115120000D01*
X146860000Y-114600000D01*
X147380000Y-114600000D01*
X147380000Y-114080000D01*
X146860000Y-114080000D01*
X146860000Y-113560000D01*
X146860000Y-113040000D01*
X146340000Y-113040000D01*
X146340000Y-113560000D01*
X145820000Y-113560000D01*
X145820000Y-113040000D01*
X145300000Y-113040000D01*
X145300000Y-112520000D01*
X147380000Y-112520000D01*
X147380000Y-113040000D01*
X147380000Y-113560000D01*
X148420000Y-113560000D01*
X148420000Y-114080000D01*
X147900000Y-114080000D01*
X147900000Y-114600000D01*
X147900000Y-115120000D01*
X148940000Y-115120000D01*
X148940000Y-115640000D01*
X147900000Y-115640000D01*
X147900000Y-116160000D01*
G37*
G36*
X149460000Y-118760000D02*
G01*
X148420000Y-118760000D01*
X148420000Y-118240000D01*
X149460000Y-118240000D01*
X149460000Y-118760000D01*
G37*
G36*
X143220000Y-117200000D02*
G01*
X142700000Y-117200000D01*
X142700000Y-116160000D01*
X143220000Y-116160000D01*
X143220000Y-117200000D01*
G37*
G36*
X148420000Y-116680000D02*
G01*
X147900000Y-116680000D01*
X147900000Y-116160000D01*
X148420000Y-116160000D01*
X148420000Y-116680000D01*
G37*
G36*
X150500000Y-115120000D02*
G01*
X151020000Y-115120000D01*
X151020000Y-115640000D01*
X149980000Y-115640000D01*
X149980000Y-115120000D01*
X149980000Y-114600000D01*
X150500000Y-114600000D01*
X150500000Y-115120000D01*
G37*
G36*
X153100000Y-114600000D02*
G01*
X153100000Y-115120000D01*
X154660000Y-115120000D01*
X154660000Y-115640000D01*
X151540000Y-115640000D01*
X151540000Y-115120000D01*
X152580000Y-115120000D01*
X152580000Y-114600000D01*
X151540000Y-114600000D01*
X151540000Y-114080000D01*
X153100000Y-114080000D01*
X153100000Y-114600000D01*
G37*
G36*
X155700000Y-112520000D02*
G01*
X155180000Y-112520000D01*
X155180000Y-113040000D01*
X155180000Y-113560000D01*
X155700000Y-113560000D01*
X155700000Y-114080000D01*
X155700000Y-115640000D01*
X155180000Y-115640000D01*
X155180000Y-114080000D01*
X154660000Y-114080000D01*
X154660000Y-114600000D01*
X154140000Y-114600000D01*
X154140000Y-114080000D01*
X154140000Y-113560000D01*
X154140000Y-113040000D01*
X154660000Y-113040000D01*
X154660000Y-112520000D01*
X154660000Y-112000000D01*
X155700000Y-112000000D01*
X155700000Y-112520000D01*
G37*
G36*
X143740000Y-114080000D02*
G01*
X143740000Y-114600000D01*
X143220000Y-114600000D01*
X143220000Y-115120000D01*
X142700000Y-115120000D01*
X142700000Y-114600000D01*
X142700000Y-114080000D01*
X143220000Y-114080000D01*
X143220000Y-113560000D01*
X143740000Y-113560000D01*
X143740000Y-114080000D01*
G37*
G36*
X146860000Y-114600000D02*
G01*
X146340000Y-114600000D01*
X146340000Y-114080000D01*
X146860000Y-114080000D01*
X146860000Y-114600000D01*
G37*
G36*
X149460000Y-114600000D02*
G01*
X148420000Y-114600000D01*
X148420000Y-114080000D01*
X149460000Y-114080000D01*
X149460000Y-114600000D01*
G37*
G36*
X151020000Y-114600000D02*
G01*
X150500000Y-114600000D01*
X150500000Y-114080000D01*
X151020000Y-114080000D01*
X151020000Y-114600000D01*
G37*
G36*
X150500000Y-113040000D02*
G01*
X151020000Y-113040000D01*
X151020000Y-113560000D01*
X150500000Y-113560000D01*
X150500000Y-114080000D01*
X149460000Y-114080000D01*
X149460000Y-113560000D01*
X149980000Y-113560000D01*
X149980000Y-113040000D01*
X149980000Y-112520000D01*
X150500000Y-112520000D01*
X150500000Y-113040000D01*
G37*
G36*
X153620000Y-114080000D02*
G01*
X153100000Y-114080000D01*
X153100000Y-113560000D01*
X153620000Y-113560000D01*
X153620000Y-114080000D01*
G37*
G36*
X145300000Y-111480000D02*
G01*
X145820000Y-111480000D01*
X145820000Y-112000000D01*
X144780000Y-112000000D01*
X144780000Y-113040000D01*
X144260000Y-113040000D01*
X144260000Y-112000000D01*
X143740000Y-112000000D01*
X143740000Y-112520000D01*
X143220000Y-112520000D01*
X143220000Y-113560000D01*
X142700000Y-113560000D01*
X142700000Y-112520000D01*
X142700000Y-112000000D01*
X143220000Y-112000000D01*
X143220000Y-111480000D01*
X144260000Y-111480000D01*
X144260000Y-110960000D01*
X145300000Y-110960000D01*
X145300000Y-111480000D01*
G37*
G36*
X152580000Y-113560000D02*
G01*
X151540000Y-113560000D01*
X151540000Y-113040000D01*
X152580000Y-113040000D01*
X152580000Y-113560000D01*
G37*
G36*
X151020000Y-110960000D02*
G01*
X151020000Y-111480000D01*
X150500000Y-111480000D01*
X150500000Y-112000000D01*
X149460000Y-112000000D01*
X149460000Y-112520000D01*
X149460000Y-113040000D01*
X148940000Y-113040000D01*
X148940000Y-112520000D01*
X148420000Y-112520000D01*
X148420000Y-113040000D01*
X147900000Y-113040000D01*
X147900000Y-112520000D01*
X147380000Y-112520000D01*
X147380000Y-112000000D01*
X146860000Y-112000000D01*
X146860000Y-111480000D01*
X148420000Y-111480000D01*
X148420000Y-110960000D01*
X148940000Y-110960000D01*
X148940000Y-111480000D01*
X149980000Y-111480000D01*
X149980000Y-110960000D01*
X150500000Y-110960000D01*
X150500000Y-110440000D01*
X151020000Y-110440000D01*
X151020000Y-110960000D01*
G37*
G36*
X153100000Y-111480000D02*
G01*
X153100000Y-112000000D01*
X153620000Y-112000000D01*
X153620000Y-112520000D01*
X154140000Y-112520000D01*
X154140000Y-113040000D01*
X152580000Y-113040000D01*
X152580000Y-112520000D01*
X152060000Y-112520000D01*
X152060000Y-112000000D01*
X152580000Y-112000000D01*
X152580000Y-111480000D01*
X151540000Y-111480000D01*
X151540000Y-110960000D01*
X153100000Y-110960000D01*
X153100000Y-111480000D01*
G37*
G36*
X151540000Y-112520000D02*
G01*
X150500000Y-112520000D01*
X150500000Y-112000000D01*
X151540000Y-112000000D01*
X151540000Y-112520000D01*
G37*
G36*
X154660000Y-112000000D02*
G01*
X154140000Y-112000000D01*
X154140000Y-111480000D01*
X154660000Y-111480000D01*
X154660000Y-112000000D01*
G37*
G36*
X155700000Y-111480000D02*
G01*
X154660000Y-111480000D01*
X154660000Y-110960000D01*
X155700000Y-110960000D01*
X155700000Y-111480000D01*
G37*
G36*
X148420000Y-110440000D02*
G01*
X148420000Y-110960000D01*
X146860000Y-110960000D01*
X146860000Y-110440000D01*
X146860000Y-109920000D01*
X147380000Y-109920000D01*
X147380000Y-110440000D01*
X147900000Y-110440000D01*
X147900000Y-109400000D01*
X148420000Y-109400000D01*
X148420000Y-110440000D01*
G37*
G36*
X149460000Y-110440000D02*
G01*
X149980000Y-110440000D01*
X149980000Y-110960000D01*
X148940000Y-110960000D01*
X148940000Y-110440000D01*
X148940000Y-109920000D01*
X149460000Y-109920000D01*
X149460000Y-110440000D01*
G37*
G36*
X145300000Y-109400000D02*
G01*
X143740000Y-109400000D01*
X143740000Y-107840000D01*
X145300000Y-107840000D01*
X145300000Y-109400000D01*
G37*
G36*
X146340000Y-109920000D02*
G01*
X146340000Y-110440000D01*
X142700000Y-110440000D01*
X142700000Y-109920000D01*
X142700000Y-107320000D01*
X143220000Y-107320000D01*
X143220000Y-109920000D01*
X145820000Y-109920000D01*
X145820000Y-107320000D01*
X143220000Y-107320000D01*
X142700000Y-107320000D01*
X142700000Y-106800000D01*
X146340000Y-106800000D01*
X146340000Y-107320000D01*
X146340000Y-109920000D01*
G37*
G36*
X148420000Y-107320000D02*
G01*
X149460000Y-107320000D01*
X149460000Y-106800000D01*
X151020000Y-106800000D01*
X151020000Y-107320000D01*
X149980000Y-107320000D01*
X149980000Y-107840000D01*
X151020000Y-107840000D01*
X151020000Y-108360000D01*
X150500000Y-108360000D01*
X150500000Y-108880000D01*
X150500000Y-109400000D01*
X151020000Y-109400000D01*
X151020000Y-109920000D01*
X150500000Y-109920000D01*
X150500000Y-110440000D01*
X149980000Y-110440000D01*
X149980000Y-109920000D01*
X149980000Y-109400000D01*
X149980000Y-108880000D01*
X149460000Y-108880000D01*
X149460000Y-109400000D01*
X148420000Y-109400000D01*
X148420000Y-108880000D01*
X148420000Y-108360000D01*
X149460000Y-108360000D01*
X149460000Y-107840000D01*
X148420000Y-107840000D01*
X148420000Y-108360000D01*
X147900000Y-108360000D01*
X147900000Y-107840000D01*
X147900000Y-107320000D01*
X147900000Y-106800000D01*
X148420000Y-106800000D01*
X148420000Y-107320000D01*
G37*
G36*
X151540000Y-110440000D02*
G01*
X151020000Y-110440000D01*
X151020000Y-109920000D01*
X151540000Y-109920000D01*
X151540000Y-110440000D01*
G37*
G36*
X154660000Y-109400000D02*
G01*
X153100000Y-109400000D01*
X153100000Y-107840000D01*
X154660000Y-107840000D01*
X154660000Y-109400000D01*
G37*
G36*
X155700000Y-109920000D02*
G01*
X155700000Y-110440000D01*
X152060000Y-110440000D01*
X152060000Y-109920000D01*
X152060000Y-107320000D01*
X152580000Y-107320000D01*
X152580000Y-109920000D01*
X155180000Y-109920000D01*
X155180000Y-107320000D01*
X152580000Y-107320000D01*
X152060000Y-107320000D01*
X152060000Y-106800000D01*
X155700000Y-106800000D01*
X155700000Y-107320000D01*
X155700000Y-109920000D01*
G37*
G36*
X147380000Y-109400000D02*
G01*
X146860000Y-109400000D01*
X146860000Y-108360000D01*
X147380000Y-108360000D01*
X147380000Y-109400000D01*
G37*
G36*
X151540000Y-109400000D02*
G01*
X151020000Y-109400000D01*
X151020000Y-108360000D01*
X151540000Y-108360000D01*
X151540000Y-109400000D01*
G37*
G36*
X147380000Y-107840000D02*
G01*
X146860000Y-107840000D01*
X146860000Y-107320000D01*
X147380000Y-107320000D01*
X147380000Y-107840000D01*
G37*
D13*
X143534819Y-127746666D02*
X144249104Y-127746666D01*
X144249104Y-127746666D02*
X144391961Y-127699047D01*
X144391961Y-127699047D02*
X144487200Y-127603809D01*
X144487200Y-127603809D02*
X144534819Y-127460952D01*
X144534819Y-127460952D02*
X144534819Y-127365714D01*
X143868152Y-128651428D02*
X144534819Y-128651428D01*
X143487200Y-128413333D02*
X144201485Y-128175238D01*
X144201485Y-128175238D02*
X144201485Y-128794285D01*
X158223333Y-77134819D02*
X158223333Y-77849104D01*
X158223333Y-77849104D02*
X158270952Y-77991961D01*
X158270952Y-77991961D02*
X158366190Y-78087200D01*
X158366190Y-78087200D02*
X158509047Y-78134819D01*
X158509047Y-78134819D02*
X158604285Y-78134819D01*
X157842380Y-77134819D02*
X157223333Y-77134819D01*
X157223333Y-77134819D02*
X157556666Y-77515771D01*
X157556666Y-77515771D02*
X157413809Y-77515771D01*
X157413809Y-77515771D02*
X157318571Y-77563390D01*
X157318571Y-77563390D02*
X157270952Y-77611009D01*
X157270952Y-77611009D02*
X157223333Y-77706247D01*
X157223333Y-77706247D02*
X157223333Y-77944342D01*
X157223333Y-77944342D02*
X157270952Y-78039580D01*
X157270952Y-78039580D02*
X157318571Y-78087200D01*
X157318571Y-78087200D02*
X157413809Y-78134819D01*
X157413809Y-78134819D02*
X157699523Y-78134819D01*
X157699523Y-78134819D02*
X157794761Y-78087200D01*
X157794761Y-78087200D02*
X157842380Y-78039580D01*
X140563333Y-77134819D02*
X140563333Y-77849104D01*
X140563333Y-77849104D02*
X140610952Y-77991961D01*
X140610952Y-77991961D02*
X140706190Y-78087200D01*
X140706190Y-78087200D02*
X140849047Y-78134819D01*
X140849047Y-78134819D02*
X140944285Y-78134819D01*
X140134761Y-77230057D02*
X140087142Y-77182438D01*
X140087142Y-77182438D02*
X139991904Y-77134819D01*
X139991904Y-77134819D02*
X139753809Y-77134819D01*
X139753809Y-77134819D02*
X139658571Y-77182438D01*
X139658571Y-77182438D02*
X139610952Y-77230057D01*
X139610952Y-77230057D02*
X139563333Y-77325295D01*
X139563333Y-77325295D02*
X139563333Y-77420533D01*
X139563333Y-77420533D02*
X139610952Y-77563390D01*
X139610952Y-77563390D02*
X140182380Y-78134819D01*
X140182380Y-78134819D02*
X139563333Y-78134819D01*
%TO.C,J4*%
D14*
X145080000Y-126700000D02*
X145080000Y-128080000D01*
X146460000Y-126700000D02*
X145080000Y-126700000D01*
X147730000Y-126700000D02*
X147730000Y-129460000D01*
X147730000Y-126700000D02*
X152920000Y-126700000D01*
X147730000Y-129460000D02*
X152920000Y-129460000D01*
X152920000Y-126700000D02*
X152920000Y-129460000D01*
%TO.C,J3*%
X156510000Y-81330000D02*
X156510000Y-129700000D01*
X159270000Y-78680000D02*
X157890000Y-78680000D01*
X159270000Y-80060000D02*
X159270000Y-78680000D01*
X159270000Y-81330000D02*
X156510000Y-81330000D01*
X159270000Y-81330000D02*
X159270000Y-129700000D01*
X159270000Y-129700000D02*
X156510000Y-129700000D01*
%TO.C,J2*%
X138850000Y-81330000D02*
X138850000Y-129700000D01*
X141610000Y-78680000D02*
X140230000Y-78680000D01*
X141610000Y-80060000D02*
X141610000Y-78680000D01*
X141610000Y-81330000D02*
X138850000Y-81330000D01*
X141610000Y-81330000D02*
X141610000Y-129700000D01*
X141610000Y-129700000D02*
X138850000Y-129700000D01*
%TD*%
M02*
