M48
; DRILL file KiCad 10.0.3 date 2026-06-27T21:15:56
; FORMAT={-:-/ absolute / metric / decimal}
; #@! TF.CreationDate,2026-06-27T21:15:56+05:30
; #@! TF.GenerationSoftware,Kicad,Pcbnew,10.0.3
; #@! TF.FileFunction,Plated,1,2,PTH
FMAT,2
METRIC
; #@! TA.AperFunction,Plated,PTH,ViaDrill
T1C0.300
; #@! TA.AperFunction,Plated,PTH,ComponentDrill
T2C0.600
; #@! TA.AperFunction,Plated,PTH,ComponentDrill
T3C0.750
; #@! TA.AperFunction,Plated,PTH,ComponentDrill
T4C1.000
%
G90
G05
T1
X141.8Y-108.5
X142.3Y-93.2
X142.3Y-122.2
X142.313Y-99.087
X143.18Y-105.277
X143.425Y-103.054
X143.682Y-105.9
X143.72Y-103.625
X143.8Y-104.677
X144.395Y-90.575
X144.622Y-101.65
X144.8Y-114.2
X145.108Y-118.1
X146.117Y-88.723
X146.245Y-99.69
X146.25Y-90.6
X146.483Y-109.411
X146.536Y-106.091
X146.548Y-107.652
X146.65Y-117.7
X146.77Y-106.856
X147.183Y-104.9
X147.8Y-112.351
X147.805Y-99.0
X148.204Y-92.353
X148.3Y-117.45
X148.5Y-87.7
X148.75Y-91.0
X149.05Y-108.7
X149.244Y-104.9
X149.4Y-100.73
X149.4Y-103.27
X149.6Y-117.8
X149.775Y-99.09
X149.9Y-96.2
X149.95Y-93.544
X150.04Y-104.982
X150.2Y-90.398
X150.356Y-109.9
X150.45Y-111.725
X150.725Y-92.534
X150.75Y-88.955
X150.795Y-117.475
X151.5Y-109.244
X151.505Y-105.425
X151.54Y-92.567
X151.603Y-101.232
X151.645Y-87.002
X151.645Y-87.002
X151.9Y-118.41
X151.998Y-95.223
X151.998Y-95.223
X152.107Y-97.249
X152.3Y-115.3
X153.24Y-98.775
X153.3Y-86.7
X153.3Y-86.7
X153.45Y-114.225
X153.536Y-101.563
X153.7Y-98.0
X154.1Y-122.9
X154.234Y-95.012
X154.3Y-113.3
X154.447Y-117.8
X154.45Y-106.6
X154.93Y-102.05
X154.958Y-91.15
X154.958Y-98.29
X156.4Y-109.7
X156.558Y-91.5
X157.3Y-96.55
T3
X148.25Y-122.875
X150.25Y-122.875
T4
X140.23Y-80.06
X140.23Y-82.6
X140.23Y-85.14
X140.23Y-87.68
X140.23Y-90.22
X140.23Y-92.76
X140.23Y-95.3
X140.23Y-97.84
X140.23Y-100.38
X140.23Y-102.92
X140.23Y-105.46
X140.23Y-108.0
X140.23Y-110.54
X140.23Y-113.08
X140.23Y-115.62
X140.23Y-118.16
X140.23Y-120.7
X140.23Y-123.24
X140.23Y-125.78
X140.23Y-128.32
X146.46Y-128.08
X149.0Y-128.08
X151.54Y-128.08
X157.89Y-80.06
X157.89Y-82.6
X157.89Y-85.14
X157.89Y-87.68
X157.89Y-90.22
X157.89Y-92.76
X157.89Y-95.3
X157.89Y-97.84
X157.89Y-100.38
X157.89Y-102.92
X157.89Y-105.46
X157.89Y-108.0
X157.89Y-110.54
X157.89Y-113.08
X157.89Y-115.62
X157.89Y-118.16
X157.89Y-120.7
X157.89Y-123.24
X157.89Y-125.78
X157.89Y-128.32
T2
G00X144.68Y-80.51
M15
G01X144.68Y-79.91
M16
G05
G00X144.68Y-84.94
M15
G01X144.68Y-83.84
M16
G05
G00X153.32Y-80.51
M15
G01X153.32Y-79.91
M16
G05
G00X153.32Y-84.94
M15
G01X153.32Y-83.84
M16
G05
M30
