%TF.GenerationSoftware,KiCad,Pcbnew,10.0.3*%
%TF.CreationDate,2026-06-27T21:16:08+05:30*%
%TF.ProjectId,boardstorm_x3,626f6172-6473-4746-9f72-6d5f78332e6b,rev?*%
%TF.SameCoordinates,Original*%
%TF.FileFunction,Copper,L2,Bot*%
%TF.FilePolarity,Positive*%
%FSLAX46Y46*%
G04 Gerber Fmt 4.6, Leading zero omitted, Abs format (unit mm)*
G04 Created by KiCad (PCBNEW 10.0.3) date 2026-06-27 21:16:08*
%MOMM*%
%LPD*%
G01*
G04 APERTURE LIST*
G04 Aperture macros list*
%AMRoundRect*
0 Rectangle with rounded corners*
0 $1 Rounding radius*
0 $2 $3 $4 $5 $6 $7 $8 $9 X,Y pos of 4 corners*
0 Add a 4 corners polygon primitive as box body*
4,1,4,$2,$3,$4,$5,$6,$7,$8,$9,$2,$3,0*
0 Add four circle primitives for the rounded corners*
1,1,$1+$1,$2,$3*
1,1,$1+$1,$4,$5*
1,1,$1+$1,$6,$7*
1,1,$1+$1,$8,$9*
0 Add four rect primitives between the rounded corners*
20,1,$1+$1,$2,$3,$4,$5,0*
20,1,$1+$1,$4,$5,$6,$7,0*
20,1,$1+$1,$6,$7,$8,$9,0*
20,1,$1+$1,$8,$9,$2,$3,0*%
G04 Aperture macros list end*
%TA.AperFunction,ComponentPad*%
%ADD10RoundRect,0.250000X-0.350000X-0.625000X0.350000X-0.625000X0.350000X0.625000X-0.350000X0.625000X0*%
%TD*%
%TA.AperFunction,ComponentPad*%
%ADD11O,1.200000X1.750000*%
%TD*%
%TA.AperFunction,ComponentPad*%
%ADD12O,1.000000X2.100000*%
%TD*%
%TA.AperFunction,ComponentPad*%
%ADD13O,1.000000X1.600000*%
%TD*%
%TA.AperFunction,ComponentPad*%
%ADD14R,1.700000X1.700000*%
%TD*%
%TA.AperFunction,ComponentPad*%
%ADD15C,1.700000*%
%TD*%
%TA.AperFunction,ViaPad*%
%ADD16C,0.600000*%
%TD*%
%TA.AperFunction,Conductor*%
%ADD17C,0.200000*%
%TD*%
G04 APERTURE END LIST*
D10*
%TO.P,J5,1,Pin_1_1*%
%TO.N,BAT+*%
X148250000Y-122875000D03*
D11*
%TO.P,J5,2,Pin_2_2*%
%TO.N,GND*%
X150250000Y-122875000D03*
%TD*%
D12*
%TO.P,J1,SH,SHIELD_SH*%
%TO.N,GND*%
X153320000Y-84390000D03*
D13*
X153320000Y-80210000D03*
D12*
X144680000Y-84390000D03*
D13*
X144680000Y-80210000D03*
%TD*%
D14*
%TO.P,J4,1,Pin_1_1*%
%TO.N,SWCLK*%
X146460000Y-128080000D03*
D15*
%TO.P,J4,2,Pin_2_2*%
%TO.N,GND*%
X149000000Y-128080000D03*
%TO.P,J4,3,Pin_3_3*%
%TO.N,SWDIO*%
X151540000Y-128080000D03*
%TD*%
D14*
%TO.P,J3,1,Pin_1_1*%
%TO.N,VBUS*%
X157890000Y-80060000D03*
D15*
%TO.P,J3,2,Pin_2_2*%
%TO.N,GPIO29{slash}ADC3*%
X157890000Y-82600000D03*
%TO.P,J3,3,Pin_3_3*%
%TO.N,GND*%
X157890000Y-85140000D03*
%TO.P,J3,4,Pin_4_4*%
%TO.N,GPIO28{slash}ADC2*%
X157890000Y-87680000D03*
%TO.P,J3,5,Pin_5_5*%
%TO.N,+3V3*%
X157890000Y-90220000D03*
%TO.P,J3,6,Pin_6_6*%
%TO.N,GPIO27{slash}ADC1*%
X157890000Y-92760000D03*
%TO.P,J3,7,Pin_7_7*%
%TO.N,GPIO26{slash}ADC0*%
X157890000Y-95300000D03*
%TO.P,J3,8,Pin_8_8*%
%TO.N,GND*%
X157890000Y-97840000D03*
%TO.P,J3,9,Pin_9_9*%
%TO.N,GPIO24*%
X157890000Y-100380000D03*
%TO.P,J3,10,Pin_10_10*%
%TO.N,GPIO23*%
X157890000Y-102920000D03*
%TO.P,J3,11,Pin_11_11*%
%TO.N,RUN*%
X157890000Y-105460000D03*
%TO.P,J3,12,Pin_12_12*%
%TO.N,GPIO22*%
X157890000Y-108000000D03*
%TO.P,J3,13,Pin_13_13*%
%TO.N,GND*%
X157890000Y-110540000D03*
%TO.P,J3,14,Pin_14_14*%
%TO.N,GPIO21*%
X157890000Y-113080000D03*
%TO.P,J3,15,Pin_15_15*%
%TO.N,GPIO20*%
X157890000Y-115620000D03*
%TO.P,J3,16,Pin_16_16*%
%TO.N,GPIO19*%
X157890000Y-118160000D03*
%TO.P,J3,17,Pin_17_17*%
%TO.N,GPIO18*%
X157890000Y-120700000D03*
%TO.P,J3,18,Pin_18_18*%
%TO.N,GND*%
X157890000Y-123240000D03*
%TO.P,J3,19,Pin_19_19*%
%TO.N,GPIO17*%
X157890000Y-125780000D03*
%TO.P,J3,20,Pin_20_20*%
%TO.N,GPIO16*%
X157890000Y-128320000D03*
%TD*%
D14*
%TO.P,J2,1,Pin_1_1*%
%TO.N,GPIO0*%
X140230000Y-80060000D03*
D15*
%TO.P,J2,2,Pin_2_2*%
%TO.N,GPIO1*%
X140230000Y-82600000D03*
%TO.P,J2,3,Pin_3_3*%
%TO.N,GND*%
X140230000Y-85140000D03*
%TO.P,J2,4,Pin_4_4*%
%TO.N,GPIO2*%
X140230000Y-87680000D03*
%TO.P,J2,5,Pin_5_5*%
%TO.N,GPIO3*%
X140230000Y-90220000D03*
%TO.P,J2,6,Pin_6_6*%
%TO.N,GPIO4*%
X140230000Y-92760000D03*
%TO.P,J2,7,Pin_7_7*%
%TO.N,GPIO5*%
X140230000Y-95300000D03*
%TO.P,J2,8,Pin_8_8*%
%TO.N,GND*%
X140230000Y-97840000D03*
%TO.P,J2,9,Pin_9_9*%
%TO.N,GPIO6*%
X140230000Y-100380000D03*
%TO.P,J2,10,Pin_10_10*%
%TO.N,GPIO7*%
X140230000Y-102920000D03*
%TO.P,J2,11,Pin_11_11*%
%TO.N,GPIO8*%
X140230000Y-105460000D03*
%TO.P,J2,12,Pin_12_12*%
%TO.N,GPIO9*%
X140230000Y-108000000D03*
%TO.P,J2,13,Pin_13_13*%
%TO.N,GND*%
X140230000Y-110540000D03*
%TO.P,J2,14,Pin_14_14*%
%TO.N,GPIO10*%
X140230000Y-113080000D03*
%TO.P,J2,15,Pin_15_15*%
%TO.N,GPIO11*%
X140230000Y-115620000D03*
%TO.P,J2,16,Pin_16_16*%
%TO.N,GPIO12*%
X140230000Y-118160000D03*
%TO.P,J2,17,Pin_17_17*%
%TO.N,GPIO13*%
X140230000Y-120700000D03*
%TO.P,J2,18,Pin_18_18*%
%TO.N,GND*%
X140230000Y-123240000D03*
%TO.P,J2,19,Pin_19_19*%
%TO.N,GPIO14*%
X140230000Y-125780000D03*
%TO.P,J2,20,Pin_20_20*%
%TO.N,GPIO15*%
X140230000Y-128320000D03*
%TD*%
D16*
%TO.N,GND*%
X154447157Y-117800000D03*
X147804999Y-99000012D03*
X142300000Y-122200000D03*
X157300000Y-96550000D03*
X149900000Y-96200000D03*
X148500000Y-87700000D03*
X147800000Y-112351258D03*
X151644777Y-87001802D03*
X154300000Y-113300000D03*
X154930148Y-102050073D03*
X146244691Y-99689718D03*
X153240000Y-98775000D03*
X154100000Y-122900000D03*
X153300000Y-86700000D03*
X156400000Y-109700000D03*
X153535589Y-101562939D03*
X151644777Y-87001802D03*
X141800000Y-108500000D03*
X144622221Y-101650000D03*
X148203998Y-92352527D03*
X142312550Y-99087450D03*
X143720000Y-103625000D03*
X151900000Y-118410000D03*
X151998008Y-95223008D03*
X150795094Y-117474896D03*
X142300000Y-93200000D03*
X149775000Y-99090000D03*
X148300000Y-117450000D03*
X150200292Y-90398237D03*
X153300000Y-86700000D03*
X144800000Y-114200000D03*
X152106743Y-97248546D03*
X149050000Y-108700000D03*
X149600000Y-117800000D03*
X151603365Y-101232420D03*
X143425000Y-103053600D03*
X151998008Y-95223008D03*
%TO.N,+3V3*%
X144395403Y-90575000D03*
X149243931Y-104900000D03*
X149400000Y-100730436D03*
X156557843Y-91500000D03*
X149400000Y-103269566D03*
X147183393Y-104900000D03*
X154957843Y-98289990D03*
%TO.N,VSYS*%
X146250000Y-90600000D03*
X149950001Y-93544042D03*
%TO.N,+1V1*%
X150039756Y-104981643D03*
X153450000Y-114225000D03*
%TO.N,BAT+*%
X152300000Y-115300000D03*
X154233731Y-95012077D03*
X154957843Y-91150000D03*
%TO.N,GPIO5*%
X146650000Y-117700000D03*
X146548180Y-107651820D03*
%TO.N,GPIO4*%
X145108292Y-118100000D03*
X146770350Y-106856108D03*
%TO.N,VBUS*%
X151540136Y-92567026D03*
X150750000Y-88955000D03*
X146117376Y-88723246D03*
X148750001Y-91000000D03*
%TO.N,Net-(U4-ILIM)*%
X150725000Y-92533632D03*
X153700000Y-98000000D03*
%TO.N,GPIO0*%
X143800000Y-104677195D03*
%TO.N,GPIO1*%
X143180000Y-105277195D03*
%TO.N,GPIO2*%
X143682108Y-105900000D03*
%TO.N,GPIO3*%
X146536036Y-106091189D03*
%TO.N,GPIO8*%
X146482587Y-109410901D03*
%TO.N,SWCLK*%
X150356066Y-109900000D03*
%TO.N,SWDIO*%
X150450000Y-111725000D03*
%TO.N,RUN*%
X151500000Y-109243759D03*
%TO.N,GPIO24*%
X154450003Y-106600000D03*
%TO.N,GPIO26{slash}ADC0*%
X151505104Y-105425000D03*
%TD*%
%TO.N,GND*%
D17*
X154450000Y-122900000D02*
X154790000Y-123240000D01*
X147400000Y-117500000D02*
X147400000Y-113084315D01*
X151021016Y-96200000D02*
X151998008Y-95223008D01*
X149900000Y-96200000D02*
X151021016Y-96200000D01*
X144918376Y-103625000D02*
X148175000Y-106881624D01*
X152998198Y-87001802D02*
X153300000Y-86700000D01*
X148142157Y-112342157D02*
X149050000Y-111434315D01*
X148175000Y-106881624D02*
X148175000Y-107825000D01*
X157300000Y-96550000D02*
X157300000Y-98950000D01*
X149775000Y-99090000D02*
X152925000Y-99090000D01*
X143720000Y-103625000D02*
X144918376Y-103625000D01*
X157140000Y-84390000D02*
X157890000Y-85140000D01*
X148133056Y-112351258D02*
X148142157Y-112342157D01*
X148500000Y-87700000D02*
X150946579Y-87700000D01*
X152106743Y-97248546D02*
X152106743Y-97093257D01*
X151998008Y-96984522D02*
X151998008Y-95223008D01*
X144800000Y-114200000D02*
X144765000Y-114235000D01*
X149600000Y-117800000D02*
X149600000Y-122225000D01*
X144765000Y-114235000D02*
X143925000Y-114235000D01*
X143925000Y-121775000D02*
X143925000Y-118365686D01*
X148700000Y-98500000D02*
X148305011Y-98500000D01*
X148203998Y-92352527D02*
X145324401Y-92352527D01*
X141800000Y-108500000D02*
X141600000Y-108700000D01*
X153535589Y-101562939D02*
X154443014Y-101562939D01*
X149600000Y-122225000D02*
X150250000Y-122875000D01*
X150946579Y-87700000D02*
X151644777Y-87001802D01*
X143795403Y-90823529D02*
X143795403Y-85274597D01*
X145324401Y-92352527D02*
X143795403Y-90823529D01*
X142312550Y-99087450D02*
X142300000Y-99074900D01*
X154790000Y-123240000D02*
X157890000Y-123240000D01*
X147434409Y-98500000D02*
X148700000Y-98500000D01*
X146244691Y-100027530D02*
X146244691Y-99689718D01*
X147400000Y-113084315D02*
X148142157Y-112342157D01*
X157300000Y-98950000D02*
X154930148Y-101319852D01*
X141600000Y-109170000D02*
X140230000Y-110540000D01*
X143925000Y-114235000D02*
X143925000Y-118365686D01*
X150125000Y-90473529D02*
X150200292Y-90398237D01*
X153320000Y-84390000D02*
X157140000Y-84390000D01*
X142300000Y-99074900D02*
X142300000Y-93200000D01*
X149050000Y-111434315D02*
X149050000Y-108700000D01*
X147400000Y-118215686D02*
X147400000Y-117500000D01*
X152106743Y-97641743D02*
X152106743Y-97248546D01*
X156400000Y-111200000D02*
X156400000Y-109700000D01*
X148305011Y-98500000D02*
X147804999Y-99000012D01*
X151644777Y-87001802D02*
X152998198Y-87001802D01*
X151998008Y-95223008D02*
X151998008Y-94655169D01*
X147450000Y-117450000D02*
X147400000Y-117500000D01*
X144622221Y-101650000D02*
X144622221Y-101856379D01*
X147800000Y-112351258D02*
X148133056Y-112351258D01*
X144622221Y-101856379D02*
X143425000Y-103053600D01*
X143925000Y-118365686D02*
X144659314Y-119100000D01*
X144622221Y-101650000D02*
X146244691Y-100027530D01*
X154100000Y-122900000D02*
X154450000Y-122900000D01*
X148300000Y-117450000D02*
X147450000Y-117450000D01*
X150795094Y-117474896D02*
X150964896Y-117474896D01*
X143500000Y-122200000D02*
X143925000Y-121775000D01*
X148700000Y-98500000D02*
X149185000Y-98500000D01*
X151900000Y-118410000D02*
X153837157Y-118410000D01*
X149185000Y-98500000D02*
X149775000Y-99090000D01*
X146244691Y-99689718D02*
X147434409Y-98500000D01*
X152106743Y-97093257D02*
X151998008Y-96984522D01*
X151603365Y-100918365D02*
X149775000Y-99090000D01*
X151998008Y-94655169D02*
X150125000Y-92782161D01*
X150964896Y-117474896D02*
X151900000Y-118410000D01*
X150125000Y-92782161D02*
X150125000Y-90473529D01*
X151603365Y-101232420D02*
X151603365Y-100918365D01*
X144659314Y-119100000D02*
X146515686Y-119100000D01*
X154930148Y-101319852D02*
X154930148Y-102050073D01*
X154443014Y-101562939D02*
X154930148Y-102050073D01*
X152925000Y-99090000D02*
X153240000Y-98775000D01*
X153837157Y-118410000D02*
X154447157Y-117800000D01*
X140230000Y-110540000D02*
X143925000Y-114235000D01*
X154300000Y-113300000D02*
X156400000Y-111200000D01*
X153240000Y-98775000D02*
X152106743Y-97641743D01*
X141600000Y-108700000D02*
X141600000Y-109170000D01*
X143795403Y-85274597D02*
X144680000Y-84390000D01*
X148175000Y-107825000D02*
X149050000Y-108700000D01*
X142300000Y-122200000D02*
X143500000Y-122200000D01*
X146515686Y-119100000D02*
X147400000Y-118215686D01*
%TO.N,+3V3*%
X145868847Y-88123246D02*
X145517376Y-88474717D01*
X145517376Y-88700000D02*
X145292093Y-88700000D01*
X156557843Y-91207843D02*
X154050000Y-88700000D01*
X146365905Y-88123246D02*
X145868847Y-88123246D01*
X154957843Y-93342157D02*
X154957843Y-98289990D01*
X150301471Y-88555000D02*
X150295686Y-88555000D01*
X145292093Y-88700000D02*
X144395403Y-89596690D01*
X145517376Y-88474717D02*
X145517376Y-88700000D01*
X156557843Y-91500000D02*
X156557843Y-91742157D01*
X154050000Y-88700000D02*
X151343529Y-88700000D01*
X156557843Y-91742157D02*
X154957843Y-93342157D01*
X149400000Y-100730436D02*
X149400000Y-103269566D01*
X147183393Y-104900000D02*
X149243931Y-104900000D01*
X150295686Y-88555000D02*
X150063931Y-88323246D01*
X150501471Y-88355000D02*
X150301471Y-88555000D01*
X144395403Y-89596690D02*
X144395403Y-90575000D01*
X150998529Y-88355000D02*
X150501471Y-88355000D01*
X151343529Y-88700000D02*
X150998529Y-88355000D01*
X156557843Y-91500000D02*
X156557843Y-91207843D01*
X146565905Y-88323246D02*
X146365905Y-88123246D01*
X150063931Y-88323246D02*
X146565905Y-88323246D01*
%TO.N,VSYS*%
X146250000Y-90600000D02*
X147300000Y-90600000D01*
X149950001Y-93250001D02*
X149950001Y-93544042D01*
X147300000Y-90600000D02*
X149950001Y-93250001D01*
%TO.N,+1V1*%
X150039756Y-105852842D02*
X148650155Y-107242443D01*
X152714214Y-116300000D02*
X151885785Y-116300000D01*
X153450000Y-114225000D02*
X153450000Y-115564214D01*
X153450000Y-115564214D02*
X152714214Y-116300000D01*
X151050000Y-115464215D02*
X151050000Y-109642288D01*
X151050000Y-109642288D02*
X148650155Y-107242443D01*
X151885785Y-116300000D02*
X151050000Y-115464215D01*
X150039756Y-104981643D02*
X150039756Y-105852842D01*
%TO.N,BAT+*%
X154165000Y-94575000D02*
X154170000Y-94570000D01*
X154233731Y-95012077D02*
X154300000Y-95078346D01*
X154300000Y-99384314D02*
X151900000Y-101784314D01*
X154233731Y-94833731D02*
X153650000Y-94250000D01*
X150905104Y-105855104D02*
X151450000Y-106400000D01*
X154233731Y-95012077D02*
X154165000Y-94943346D01*
X151450000Y-106400000D02*
X151450000Y-108345232D01*
X153650000Y-94250000D02*
X153625000Y-94250000D01*
X152300000Y-109195232D02*
X152300000Y-115300000D01*
X153625000Y-94250000D02*
X153625000Y-92482843D01*
X150905104Y-103194896D02*
X150905104Y-105855104D01*
X154233731Y-95012077D02*
X154233731Y-94833731D01*
X154300000Y-95078346D02*
X154300000Y-99384314D01*
X151900000Y-101784314D02*
X151900000Y-102200000D01*
X153625000Y-92482843D02*
X154957843Y-91150000D01*
X151450000Y-108345232D02*
X152300000Y-109195232D01*
X154165000Y-94943346D02*
X154165000Y-94575000D01*
X151900000Y-102200000D02*
X150905104Y-103194896D01*
%TO.N,GPIO5*%
X146600000Y-110409314D02*
X147375000Y-109634314D01*
X147375000Y-109634314D02*
X147375000Y-108478640D01*
X146650000Y-117700000D02*
X146650000Y-118400000D01*
X145409314Y-116775000D02*
X146600000Y-115584314D01*
X147375000Y-108478640D02*
X146548180Y-107651820D01*
X144325000Y-118200000D02*
X144325000Y-117576472D01*
X146350000Y-118700000D02*
X144825000Y-118700000D01*
X144325000Y-117576472D02*
X145126471Y-116775000D01*
X146600000Y-115584314D02*
X146600000Y-110409314D01*
X145126471Y-116775000D02*
X145409314Y-116775000D01*
X146650000Y-118400000D02*
X146350000Y-118700000D01*
X144825000Y-118700000D02*
X144325000Y-118200000D01*
%TO.N,GPIO4*%
X147000000Y-115750000D02*
X147000000Y-110575000D01*
X145108292Y-118100000D02*
X145108292Y-117641708D01*
X146956106Y-106856108D02*
X146770350Y-106856108D01*
X147775000Y-107675002D02*
X146956106Y-106856108D01*
X145108292Y-117641708D02*
X147000000Y-115750000D01*
X147000000Y-110575000D02*
X147775000Y-109800000D01*
X147775000Y-109800000D02*
X147775000Y-107675002D01*
%TO.N,VBUS*%
X150325000Y-89425001D02*
X148750001Y-91000000D01*
X150750000Y-88955000D02*
X150325000Y-89380000D01*
X150750000Y-88955000D02*
X151220000Y-89425000D01*
X151220000Y-89425000D02*
X151450000Y-89425000D01*
X146349130Y-88955000D02*
X146117376Y-88723246D01*
X150325000Y-89380000D02*
X150325000Y-89425001D01*
X151450000Y-89425000D02*
X151450000Y-92476890D01*
X150750000Y-88955000D02*
X146349130Y-88955000D01*
X151450000Y-92476890D02*
X151540136Y-92567026D01*
%TO.N,Net-(U4-ILIM)*%
X150725000Y-92725000D02*
X150725000Y-92533632D01*
X153700000Y-98000000D02*
X153700000Y-95821001D01*
X153272459Y-95393460D02*
X153272459Y-95272459D01*
X153272459Y-95272459D02*
X150725000Y-92725000D01*
X153700000Y-95821001D02*
X153272459Y-95393460D01*
%TO.N,GPIO0*%
X143880000Y-84624314D02*
X143880000Y-83650000D01*
X143120000Y-103597129D02*
X142825000Y-103302129D01*
X143452195Y-104677195D02*
X143904390Y-104225000D01*
X142825000Y-102805071D02*
X143176471Y-102453600D01*
X143176471Y-102453600D02*
X143459314Y-102453600D01*
X143395403Y-85108911D02*
X143880000Y-84624314D01*
X143800000Y-104677195D02*
X143452195Y-104677195D01*
X145800000Y-93393811D02*
X143395403Y-90989214D01*
X145706490Y-100000045D02*
X145644691Y-99938247D01*
X144373692Y-101050000D02*
X144656535Y-101050000D01*
X143880000Y-83650000D02*
X140230000Y-80000000D01*
X145644691Y-99441189D02*
X145800000Y-99285880D01*
X143120000Y-103873529D02*
X143120000Y-103597129D01*
X143904390Y-104225000D02*
X143471471Y-104225000D01*
X143471471Y-104225000D02*
X143120000Y-103873529D01*
X145800000Y-99285880D02*
X145800000Y-93393811D01*
X143395403Y-90989214D02*
X143395403Y-85108911D01*
X144022221Y-101401471D02*
X144373692Y-101050000D01*
X143459314Y-102453600D02*
X144022221Y-101890693D01*
X142825000Y-103302129D02*
X142825000Y-102805071D01*
X144022221Y-101890693D02*
X144022221Y-101401471D01*
X145644691Y-99938247D02*
X145644691Y-99441189D01*
X144656535Y-101050000D02*
X145706490Y-100000045D01*
%TO.N,GPIO1*%
X143351472Y-105077195D02*
X143286509Y-105077195D01*
X143286510Y-105077195D02*
X143052195Y-104842880D01*
X142425000Y-103467814D02*
X142425000Y-102639385D01*
X143365736Y-105091459D02*
X143351472Y-105077195D01*
X142995403Y-91154899D02*
X142995403Y-85305403D01*
X143052195Y-104842880D02*
X143052195Y-104511509D01*
X144490849Y-100650000D02*
X145225000Y-99915849D01*
X143180000Y-105277195D02*
X143365736Y-105091459D01*
X142720000Y-103762815D02*
X142425000Y-103467814D01*
X143293628Y-102053600D02*
X143622221Y-101725007D01*
X143286509Y-105077195D02*
X143286510Y-105077195D01*
X143122245Y-104441459D02*
X142720000Y-104039214D01*
X142425000Y-102639385D02*
X143010786Y-102053600D01*
X142720000Y-104039214D02*
X142720000Y-103762815D01*
X143010786Y-102053600D02*
X143293628Y-102053600D01*
X144208007Y-100650000D02*
X144490849Y-100650000D01*
X142995403Y-85305403D02*
X140230000Y-82540000D01*
X145225000Y-99915849D02*
X145225000Y-93384496D01*
X143622221Y-101725007D02*
X143622221Y-101235785D01*
X145225000Y-93384496D02*
X142995403Y-91154899D01*
X143052195Y-104511510D02*
X143122245Y-104441459D01*
X143622221Y-101235785D02*
X144208007Y-100650000D01*
X143052195Y-104511509D02*
X143052195Y-104511510D01*
%TO.N,GPIO2*%
X144825000Y-99750163D02*
X144825000Y-93550183D01*
X142320000Y-104204899D02*
X142320000Y-103928500D01*
X142025000Y-103633499D02*
X142025001Y-102473699D01*
X142025001Y-102473699D02*
X142845101Y-101653600D01*
X142580000Y-105525724D02*
X142580000Y-105028666D01*
X144825000Y-93550183D02*
X142595403Y-91320584D01*
X143222222Y-101070099D02*
X144042322Y-100250000D01*
X142750000Y-105900000D02*
X142852138Y-105797862D01*
X142652195Y-104956471D02*
X142652195Y-104537095D01*
X143682108Y-105900000D02*
X142750000Y-105900000D01*
X142845101Y-101653600D02*
X143127942Y-101653600D01*
X142852138Y-105797862D02*
X142580000Y-105525724D01*
X143222221Y-101559321D02*
X143222222Y-101070099D01*
X144042322Y-100250000D02*
X144325163Y-100250000D01*
X142580000Y-105028666D02*
X142652195Y-104956471D01*
X144325163Y-100250000D02*
X144825000Y-99750163D01*
X142595403Y-89985403D02*
X140230000Y-87620000D01*
X143127942Y-101653600D02*
X143222221Y-101559321D01*
X142652195Y-104537095D02*
X142320000Y-104204899D01*
X142595403Y-91320584D02*
X142595403Y-89985403D01*
X142320000Y-103928500D02*
X142025000Y-103633499D01*
%TO.N,GPIO3*%
X144355000Y-93645869D02*
X142195403Y-91486269D01*
X142180000Y-104862980D02*
X142252195Y-104790786D01*
X142584315Y-106300000D02*
X142350000Y-106065685D01*
X141625000Y-103799184D02*
X141625001Y-102308013D01*
X142830000Y-106300000D02*
X142584315Y-106300000D01*
X142252195Y-104790786D02*
X142252195Y-104702780D01*
X142195403Y-90665904D02*
X141689499Y-90160000D01*
X142180000Y-105691409D02*
X142180000Y-104862980D01*
X142350000Y-105861410D02*
X142180000Y-105691409D01*
X141920000Y-104370584D02*
X141920000Y-104094185D01*
X142195403Y-91486269D02*
X142195403Y-90665904D01*
X144159477Y-99850000D02*
X144355000Y-99654477D01*
X142822222Y-101253600D02*
X142822222Y-100904413D01*
X141625001Y-102308013D02*
X142679416Y-101253600D01*
X146536036Y-106091189D02*
X146484728Y-106091189D01*
X142252195Y-104702780D02*
X141920000Y-104370584D01*
X143876637Y-99850000D02*
X144159477Y-99850000D01*
X142350000Y-106065685D02*
X142350000Y-105861410D01*
X146484728Y-106091189D02*
X146238236Y-105844697D01*
X143930637Y-106500000D02*
X142630000Y-106500000D01*
X142679416Y-101253600D02*
X142822222Y-101253600D01*
X142630000Y-106500000D02*
X142830000Y-106300000D01*
X142822222Y-100904413D02*
X143876637Y-99850000D01*
X141920000Y-104094185D02*
X141625000Y-103799184D01*
X144585939Y-105844697D02*
X143930637Y-106500000D01*
X146238236Y-105844697D02*
X144585939Y-105844697D01*
X144355000Y-99654477D02*
X144355000Y-93645869D01*
X141689499Y-90160000D02*
X140230000Y-90160000D01*
%TO.N,GPIO8*%
X144240901Y-109410901D02*
X140230000Y-105400000D01*
X146482587Y-109410901D02*
X144240901Y-109410901D01*
%TO.N,SWCLK*%
X149425000Y-113750000D02*
X149425000Y-111625000D01*
X150375000Y-110975000D02*
X150375000Y-109918934D01*
X145400000Y-125650000D02*
X145100000Y-125350000D01*
X145750000Y-120400000D02*
X148600000Y-120400000D01*
X146110000Y-125650000D02*
X145400000Y-125650000D01*
X148818123Y-113750000D02*
X149425000Y-113750000D01*
X145100000Y-125350000D02*
X145100000Y-121050000D01*
X149425000Y-111625000D02*
X150075000Y-110975000D01*
X146460000Y-126000000D02*
X146110000Y-125650000D01*
X149000000Y-113931877D02*
X148818123Y-113750000D01*
X146460000Y-128080000D02*
X146460000Y-126000000D01*
X149000000Y-120000000D02*
X149000000Y-113931877D01*
X145100000Y-121050000D02*
X145750000Y-120400000D01*
X148600000Y-120400000D02*
X149000000Y-120000000D01*
X150075000Y-110975000D02*
X150375000Y-110975000D01*
X150375000Y-109918934D02*
X150356066Y-109900000D01*
%TO.N,SWDIO*%
X150000000Y-112175000D02*
X150450000Y-111725000D01*
X150000000Y-118248529D02*
X150200000Y-118048529D01*
X150200000Y-117551471D02*
X150000000Y-117351471D01*
X150000000Y-119600000D02*
X150000000Y-118248529D01*
X151540000Y-128080000D02*
X151540000Y-121140000D01*
X151540000Y-121140000D02*
X150000000Y-119600000D01*
X150000000Y-117351471D02*
X150000000Y-112175000D01*
X150200000Y-118048529D02*
X150200000Y-117551471D01*
%TO.N,RUN*%
X151700000Y-115548529D02*
X152051471Y-115900000D01*
X151500000Y-109243759D02*
X151641421Y-109102338D01*
X155050000Y-105550000D02*
X155140000Y-105460000D01*
X152051471Y-115900000D02*
X152548529Y-115900000D01*
X152700000Y-109029546D02*
X152207107Y-108536652D01*
X151700000Y-115051471D02*
X151700000Y-115548529D01*
X153197056Y-107546703D02*
X154351829Y-107546703D01*
X155050000Y-106848532D02*
X155050000Y-105550000D01*
X152548529Y-115900000D02*
X152900000Y-115548529D01*
X152900000Y-115051471D02*
X152700000Y-114851471D01*
X155140000Y-105460000D02*
X157890000Y-105460000D01*
X151641421Y-109102338D02*
X151900000Y-109360918D01*
X151900000Y-114851471D02*
X151700000Y-115051471D01*
X152700000Y-114851471D02*
X152700000Y-109029546D01*
X154351829Y-107546703D02*
X155050000Y-106848532D01*
X152900000Y-115548529D02*
X152900000Y-115051471D01*
X152207107Y-108536652D02*
X153197056Y-107546703D01*
X151900000Y-109360918D02*
X151900000Y-114851471D01*
%TO.N,GPIO24*%
X157890000Y-100380000D02*
X154450003Y-103819997D01*
X154450003Y-103819997D02*
X154450003Y-106600000D01*
%TO.N,GPIO26{slash}ADC0*%
X155950000Y-95950000D02*
X156600000Y-95300000D01*
X151576191Y-105073809D02*
X152300000Y-104350000D01*
X151576191Y-105353913D02*
X151576191Y-105073809D01*
X155950000Y-98300000D02*
X155950000Y-95950000D01*
X156600000Y-95300000D02*
X157890000Y-95300000D01*
X152300000Y-101950000D02*
X155950000Y-98300000D01*
X152300000Y-104350000D02*
X152300000Y-101950000D01*
X151505104Y-105425000D02*
X151576191Y-105353913D01*
%TD*%
%TA.AperFunction,Conductor*%
%TO.N,GND*%
G36*
X141785703Y-107805384D02*
G01*
X141792179Y-107811414D01*
X143872185Y-109891421D01*
X143872187Y-109891422D01*
X143872191Y-109891425D01*
X144009110Y-109970474D01*
X144009117Y-109970478D01*
X144161844Y-110011402D01*
X144161846Y-110011402D01*
X144327555Y-110011402D01*
X144327571Y-110011401D01*
X145902821Y-110011401D01*
X145920965Y-110016728D01*
X145939872Y-110017066D01*
X145968090Y-110030566D01*
X145969860Y-110031086D01*
X145971710Y-110032298D01*
X145989110Y-110043924D01*
X146033916Y-110097536D01*
X146042625Y-110166860D01*
X146039996Y-110179120D01*
X145999499Y-110330257D01*
X145999499Y-110498360D01*
X145999500Y-110498373D01*
X145999500Y-115284217D01*
X145979815Y-115351256D01*
X145963181Y-115371898D01*
X145196899Y-116138180D01*
X145135576Y-116171665D01*
X145109218Y-116174499D01*
X145047413Y-116174499D01*
X144945595Y-116201781D01*
X144894685Y-116215423D01*
X144874065Y-116227328D01*
X144868538Y-116230520D01*
X144813146Y-116262500D01*
X144757756Y-116294479D01*
X144757753Y-116294481D01*
X144645949Y-116406286D01*
X143844481Y-117207754D01*
X143844475Y-117207762D01*
X143765426Y-117344681D01*
X143765423Y-117344686D01*
X143753419Y-117389487D01*
X143724499Y-117497415D01*
X143724499Y-117497416D01*
X143724499Y-117497417D01*
X143724500Y-117583255D01*
X143724500Y-118113330D01*
X143724499Y-118113348D01*
X143724499Y-118279054D01*
X143724498Y-118279054D01*
X143761527Y-118417248D01*
X143765423Y-118431785D01*
X143787335Y-118469737D01*
X143844480Y-118568716D01*
X143956284Y-118680520D01*
X143956285Y-118680521D01*
X144456284Y-119180520D01*
X144456286Y-119180521D01*
X144456290Y-119180524D01*
X144593209Y-119259573D01*
X144593216Y-119259577D01*
X144745943Y-119300501D01*
X144745945Y-119300501D01*
X144911654Y-119300501D01*
X144911670Y-119300500D01*
X146263331Y-119300500D01*
X146263347Y-119300501D01*
X146270943Y-119300501D01*
X146429054Y-119300501D01*
X146429057Y-119300501D01*
X146581785Y-119259577D01*
X146631904Y-119230639D01*
X146718716Y-119180520D01*
X146830520Y-119068716D01*
X146830520Y-119068714D01*
X146840728Y-119058507D01*
X146840730Y-119058504D01*
X147008506Y-118890728D01*
X147008511Y-118890724D01*
X147018714Y-118880520D01*
X147018716Y-118880520D01*
X147130520Y-118768716D01*
X147199621Y-118649029D01*
X147209577Y-118631785D01*
X147250500Y-118479057D01*
X147250500Y-118320943D01*
X147250500Y-118279765D01*
X147270185Y-118212726D01*
X147271398Y-118210874D01*
X147359390Y-118079185D01*
X147359390Y-118079184D01*
X147359394Y-118079179D01*
X147419737Y-117933497D01*
X147450500Y-117778842D01*
X147450500Y-117621158D01*
X147450500Y-117621155D01*
X147450499Y-117621153D01*
X147445953Y-117598298D01*
X147419737Y-117466503D01*
X147369280Y-117344688D01*
X147359397Y-117320827D01*
X147359390Y-117320814D01*
X147271789Y-117189711D01*
X147271786Y-117189707D01*
X147160292Y-117078213D01*
X147160288Y-117078210D01*
X147029185Y-116990609D01*
X147029176Y-116990604D01*
X146903256Y-116938447D01*
X146848853Y-116894606D01*
X146826788Y-116828312D01*
X146844067Y-116760613D01*
X146863021Y-116736212D01*
X147358506Y-116240727D01*
X147358511Y-116240724D01*
X147368714Y-116230520D01*
X147368716Y-116230520D01*
X147480520Y-116118716D01*
X147543637Y-116009394D01*
X147559577Y-115981785D01*
X147600500Y-115829057D01*
X147600500Y-115670943D01*
X147600500Y-110875097D01*
X147620185Y-110808058D01*
X147636819Y-110787416D01*
X147925875Y-110498360D01*
X148255520Y-110168716D01*
X148334577Y-110031784D01*
X148375501Y-109879057D01*
X148375501Y-109720942D01*
X148375501Y-109713347D01*
X148375500Y-109713329D01*
X148375500Y-108116385D01*
X148395185Y-108049346D01*
X148447989Y-108003591D01*
X148517147Y-107993647D01*
X148580703Y-108022672D01*
X148587181Y-108028704D01*
X149753551Y-109195074D01*
X149787036Y-109256397D01*
X149782052Y-109326089D01*
X149753553Y-109370434D01*
X149734278Y-109389708D01*
X149734274Y-109389714D01*
X149646675Y-109520814D01*
X149646668Y-109520827D01*
X149586330Y-109666498D01*
X149586327Y-109666510D01*
X149555566Y-109821153D01*
X149555566Y-109978846D01*
X149586327Y-110133489D01*
X149586330Y-110133501D01*
X149646668Y-110279172D01*
X149646675Y-110279185D01*
X149700249Y-110359363D01*
X149709734Y-110389656D01*
X149720831Y-110419407D01*
X149720100Y-110422763D01*
X149721127Y-110426040D01*
X149712729Y-110456652D01*
X149705980Y-110487680D01*
X149703198Y-110491396D01*
X149702643Y-110493420D01*
X149684829Y-110515935D01*
X149594480Y-110606284D01*
X149594479Y-110606284D01*
X149594478Y-110606285D01*
X148944481Y-111256282D01*
X148944480Y-111256284D01*
X148907146Y-111320950D01*
X148894361Y-111343094D01*
X148894359Y-111343096D01*
X148865425Y-111393209D01*
X148865424Y-111393210D01*
X148865423Y-111393215D01*
X148824499Y-111545943D01*
X148824499Y-111545945D01*
X148824499Y-111714046D01*
X148824500Y-111714059D01*
X148824500Y-113031458D01*
X148818005Y-113053576D01*
X148816012Y-113076547D01*
X148808346Y-113086469D01*
X148804815Y-113098497D01*
X148787394Y-113113591D01*
X148773298Y-113131840D01*
X148757830Y-113139209D01*
X148752011Y-113144252D01*
X148742068Y-113148283D01*
X148737383Y-113149949D01*
X148586338Y-113190423D01*
X148536218Y-113219360D01*
X148526434Y-113225008D01*
X148526433Y-113225009D01*
X148449408Y-113269479D01*
X148449405Y-113269481D01*
X148337604Y-113381282D01*
X148337598Y-113381290D01*
X148297147Y-113451355D01*
X148297147Y-113451357D01*
X148258546Y-113518214D01*
X148258546Y-113518215D01*
X148217622Y-113670943D01*
X148217622Y-113670945D01*
X148217622Y-113829054D01*
X148217621Y-113829054D01*
X148223371Y-113850512D01*
X148258546Y-113981785D01*
X148287483Y-114031904D01*
X148337603Y-114118716D01*
X148371126Y-114152239D01*
X148377515Y-114161485D01*
X148385091Y-114184419D01*
X148396666Y-114205617D01*
X148398872Y-114226138D01*
X148399431Y-114227829D01*
X148399165Y-114228860D01*
X148399500Y-114231975D01*
X148399500Y-119675500D01*
X148379815Y-119742539D01*
X148327011Y-119788294D01*
X148275500Y-119799500D01*
X145836669Y-119799500D01*
X145836653Y-119799499D01*
X145829057Y-119799499D01*
X145670943Y-119799499D01*
X145593639Y-119820213D01*
X145518210Y-119840424D01*
X145518209Y-119840425D01*
X145468096Y-119869359D01*
X145468095Y-119869360D01*
X145424689Y-119894420D01*
X145381285Y-119919479D01*
X145381282Y-119919481D01*
X144619481Y-120681282D01*
X144619479Y-120681285D01*
X144569361Y-120768094D01*
X144569359Y-120768096D01*
X144540425Y-120818209D01*
X144540424Y-120818210D01*
X144540423Y-120818215D01*
X144499499Y-120970943D01*
X144499499Y-120970945D01*
X144499499Y-121139046D01*
X144499500Y-121139059D01*
X144499500Y-125263330D01*
X144499499Y-125263348D01*
X144499499Y-125429054D01*
X144499498Y-125429054D01*
X144540423Y-125581785D01*
X144569000Y-125631280D01*
X144569001Y-125631284D01*
X144569002Y-125631284D01*
X144619479Y-125718714D01*
X144619481Y-125718717D01*
X144738349Y-125837585D01*
X144738355Y-125837590D01*
X144915139Y-126014374D01*
X144915149Y-126014385D01*
X144919479Y-126018715D01*
X144919480Y-126018716D01*
X145031284Y-126130520D01*
X145118095Y-126180639D01*
X145118097Y-126180641D01*
X145156151Y-126202611D01*
X145168215Y-126209577D01*
X145320943Y-126250500D01*
X145735500Y-126250500D01*
X145744185Y-126253050D01*
X145753147Y-126251762D01*
X145777187Y-126262740D01*
X145802539Y-126270185D01*
X145808466Y-126277025D01*
X145816703Y-126280787D01*
X145830992Y-126303021D01*
X145848294Y-126322989D01*
X145850581Y-126333503D01*
X145854477Y-126339565D01*
X145859500Y-126374500D01*
X145859500Y-126605500D01*
X145839815Y-126672539D01*
X145787011Y-126718294D01*
X145735501Y-126729500D01*
X145562130Y-126729500D01*
X145562123Y-126729501D01*
X145502516Y-126735908D01*
X145367671Y-126786202D01*
X145367664Y-126786206D01*
X145252455Y-126872452D01*
X145252452Y-126872455D01*
X145166206Y-126987664D01*
X145166202Y-126987671D01*
X145115908Y-127122517D01*
X145109501Y-127182116D01*
X145109500Y-127182135D01*
X145109500Y-128977870D01*
X145109501Y-128977876D01*
X145116738Y-129045196D01*
X145115342Y-129045345D01*
X145112050Y-129106756D01*
X145071182Y-129163427D01*
X145006163Y-129189007D01*
X144995114Y-129189500D01*
X141505019Y-129189500D01*
X141437980Y-129169815D01*
X141392225Y-129117011D01*
X141382281Y-129047853D01*
X141394534Y-129009205D01*
X141459500Y-128881701D01*
X141481557Y-128838412D01*
X141547246Y-128636243D01*
X141580500Y-128426287D01*
X141580500Y-128213713D01*
X141547246Y-128003757D01*
X141481557Y-127801588D01*
X141385051Y-127612184D01*
X141385049Y-127612181D01*
X141385048Y-127612179D01*
X141260109Y-127440213D01*
X141109786Y-127289890D01*
X140937820Y-127164951D01*
X140937115Y-127164591D01*
X140929054Y-127160485D01*
X140878259Y-127112512D01*
X140861463Y-127044692D01*
X140883999Y-126978556D01*
X140929054Y-126939515D01*
X140937816Y-126935051D01*
X140959789Y-126919086D01*
X141109786Y-126810109D01*
X141109788Y-126810106D01*
X141109792Y-126810104D01*
X141260104Y-126659792D01*
X141260106Y-126659788D01*
X141260109Y-126659786D01*
X141385048Y-126487820D01*
X141385047Y-126487820D01*
X141385051Y-126487816D01*
X141481557Y-126298412D01*
X141547246Y-126096243D01*
X141580500Y-125886287D01*
X141580500Y-125673713D01*
X141547246Y-125463757D01*
X141481557Y-125261588D01*
X141385051Y-125072184D01*
X141385049Y-125072181D01*
X141385048Y-125072179D01*
X141260109Y-124900213D01*
X141109786Y-124749890D01*
X140937817Y-124624949D01*
X140928504Y-124620204D01*
X140877707Y-124572230D01*
X140860912Y-124504409D01*
X140883449Y-124438274D01*
X140928507Y-124399232D01*
X140937555Y-124394622D01*
X140991716Y-124355270D01*
X140991717Y-124355270D01*
X140359408Y-123722962D01*
X140422993Y-123705925D01*
X140537007Y-123640099D01*
X140630099Y-123547007D01*
X140695925Y-123432993D01*
X140712962Y-123369409D01*
X141345270Y-124001717D01*
X141345270Y-124001716D01*
X141384622Y-123947554D01*
X141481095Y-123758217D01*
X141546757Y-123556130D01*
X141546757Y-123556127D01*
X141580000Y-123346246D01*
X141580000Y-123133753D01*
X141546757Y-122923872D01*
X141546757Y-122923869D01*
X141481095Y-122721782D01*
X141384624Y-122532449D01*
X141345270Y-122478282D01*
X141345269Y-122478282D01*
X140712962Y-123110590D01*
X140695925Y-123047007D01*
X140630099Y-122932993D01*
X140537007Y-122839901D01*
X140422993Y-122774075D01*
X140359409Y-122757037D01*
X140991716Y-122124728D01*
X140937547Y-122085373D01*
X140937547Y-122085372D01*
X140928500Y-122080763D01*
X140877706Y-122032788D01*
X140860912Y-121964966D01*
X140883451Y-121898832D01*
X140928508Y-121859793D01*
X140937816Y-121855051D01*
X141039266Y-121781344D01*
X141109786Y-121730109D01*
X141109788Y-121730106D01*
X141109792Y-121730104D01*
X141260104Y-121579792D01*
X141260106Y-121579788D01*
X141260109Y-121579786D01*
X141385048Y-121407820D01*
X141385047Y-121407820D01*
X141385051Y-121407816D01*
X141481557Y-121218412D01*
X141547246Y-121016243D01*
X141580500Y-120806287D01*
X141580500Y-120593713D01*
X141547246Y-120383757D01*
X141481557Y-120181588D01*
X141385051Y-119992184D01*
X141385049Y-119992181D01*
X141385048Y-119992179D01*
X141260109Y-119820213D01*
X141109786Y-119669890D01*
X140937820Y-119544951D01*
X140937115Y-119544591D01*
X140929054Y-119540485D01*
X140878259Y-119492512D01*
X140861463Y-119424692D01*
X140883999Y-119358556D01*
X140929054Y-119319515D01*
X140937816Y-119315051D01*
X141014170Y-119259577D01*
X141109786Y-119190109D01*
X141109788Y-119190106D01*
X141109792Y-119190104D01*
X141260104Y-119039792D01*
X141260106Y-119039788D01*
X141260109Y-119039786D01*
X141385048Y-118867820D01*
X141385047Y-118867820D01*
X141385051Y-118867816D01*
X141481557Y-118678412D01*
X141547246Y-118476243D01*
X141580500Y-118266287D01*
X141580500Y-118053713D01*
X141547246Y-117843757D01*
X141481557Y-117641588D01*
X141385051Y-117452184D01*
X141385049Y-117452181D01*
X141385048Y-117452179D01*
X141260109Y-117280213D01*
X141109786Y-117129890D01*
X140937820Y-117004951D01*
X140937115Y-117004591D01*
X140929054Y-117000485D01*
X140878259Y-116952512D01*
X140861463Y-116884692D01*
X140883999Y-116818556D01*
X140929054Y-116779515D01*
X140937816Y-116775051D01*
X141013921Y-116719758D01*
X141109786Y-116650109D01*
X141109788Y-116650106D01*
X141109792Y-116650104D01*
X141260104Y-116499792D01*
X141260106Y-116499788D01*
X141260109Y-116499786D01*
X141385048Y-116327820D01*
X141385047Y-116327820D01*
X141385051Y-116327816D01*
X141481557Y-116138412D01*
X141547246Y-115936243D01*
X141580500Y-115726287D01*
X141580500Y-115513713D01*
X141547246Y-115303757D01*
X141481557Y-115101588D01*
X141385051Y-114912184D01*
X141385049Y-114912181D01*
X141385048Y-114912179D01*
X141260109Y-114740213D01*
X141109786Y-114589890D01*
X140937820Y-114464951D01*
X140937115Y-114464591D01*
X140929054Y-114460485D01*
X140878259Y-114412512D01*
X140861463Y-114344692D01*
X140883999Y-114278556D01*
X140929054Y-114239515D01*
X140937816Y-114235051D01*
X140978329Y-114205617D01*
X141109786Y-114110109D01*
X141109788Y-114110106D01*
X141109792Y-114110104D01*
X141260104Y-113959792D01*
X141260106Y-113959788D01*
X141260109Y-113959786D01*
X141385048Y-113787820D01*
X141385047Y-113787820D01*
X141385051Y-113787816D01*
X141481557Y-113598412D01*
X141547246Y-113396243D01*
X141580500Y-113186287D01*
X141580500Y-112973713D01*
X141547246Y-112763757D01*
X141481557Y-112561588D01*
X141385051Y-112372184D01*
X141385049Y-112372181D01*
X141385048Y-112372179D01*
X141260109Y-112200213D01*
X141109786Y-112049890D01*
X140937817Y-111924949D01*
X140928504Y-111920204D01*
X140877707Y-111872230D01*
X140860912Y-111804409D01*
X140883449Y-111738274D01*
X140928507Y-111699232D01*
X140937555Y-111694622D01*
X140991716Y-111655270D01*
X140991717Y-111655270D01*
X140359408Y-111022962D01*
X140422993Y-111005925D01*
X140537007Y-110940099D01*
X140630099Y-110847007D01*
X140695925Y-110732993D01*
X140712962Y-110669409D01*
X141345270Y-111301717D01*
X141345270Y-111301716D01*
X141384622Y-111247554D01*
X141481095Y-111058217D01*
X141546757Y-110856130D01*
X141546757Y-110856127D01*
X141580000Y-110646246D01*
X141580000Y-110433753D01*
X141546757Y-110223872D01*
X141546757Y-110223869D01*
X141481095Y-110021782D01*
X141384624Y-109832449D01*
X141345270Y-109778282D01*
X141345269Y-109778282D01*
X140712962Y-110410590D01*
X140695925Y-110347007D01*
X140630099Y-110232993D01*
X140537007Y-110139901D01*
X140422993Y-110074075D01*
X140359409Y-110057037D01*
X140991716Y-109424728D01*
X140937547Y-109385373D01*
X140937547Y-109385372D01*
X140928500Y-109380763D01*
X140877706Y-109332788D01*
X140860912Y-109264966D01*
X140883451Y-109198832D01*
X140928508Y-109159793D01*
X140937816Y-109155051D01*
X141026096Y-109090912D01*
X141109786Y-109030109D01*
X141109788Y-109030106D01*
X141109792Y-109030104D01*
X141260104Y-108879792D01*
X141260106Y-108879788D01*
X141260109Y-108879786D01*
X141385048Y-108707820D01*
X141385047Y-108707820D01*
X141385051Y-108707816D01*
X141481557Y-108518412D01*
X141547246Y-108316243D01*
X141580500Y-108106287D01*
X141580500Y-107899097D01*
X141600185Y-107832058D01*
X141652989Y-107786303D01*
X141722147Y-107776359D01*
X141785703Y-107805384D01*
G37*
%TD.AperFunction*%
%TA.AperFunction,Conductor*%
G36*
X150115270Y-128841717D02*
G01*
X150115270Y-128841716D01*
X150154622Y-128787555D01*
X150159232Y-128778507D01*
X150207205Y-128727709D01*
X150275025Y-128710912D01*
X150341161Y-128733447D01*
X150380204Y-128778504D01*
X150384949Y-128787817D01*
X150509890Y-128959786D01*
X150527923Y-128977819D01*
X150561408Y-129039142D01*
X150556424Y-129108834D01*
X150514552Y-129164767D01*
X150449088Y-129189184D01*
X150440242Y-129189500D01*
X149807308Y-129189500D01*
X149740269Y-129169815D01*
X149719627Y-129153181D01*
X149129408Y-128562962D01*
X149192993Y-128545925D01*
X149307007Y-128480099D01*
X149400099Y-128387007D01*
X149465925Y-128272993D01*
X149482962Y-128209408D01*
X150115270Y-128841717D01*
G37*
%TD.AperFunction*%
%TA.AperFunction,Conductor*%
G36*
X156618883Y-106064787D02*
G01*
X156634088Y-106064136D01*
X156651726Y-106074431D01*
X156671320Y-106080185D01*
X156682216Y-106092228D01*
X156694430Y-106099358D01*
X156714765Y-106128205D01*
X156734947Y-106167814D01*
X156734948Y-106167815D01*
X156859890Y-106339786D01*
X157010213Y-106490109D01*
X157182182Y-106615050D01*
X157190946Y-106619516D01*
X157241742Y-106667491D01*
X157258536Y-106735312D01*
X157235998Y-106801447D01*
X157190946Y-106840484D01*
X157182182Y-106844949D01*
X157010213Y-106969890D01*
X156859890Y-107120213D01*
X156734951Y-107292179D01*
X156638444Y-107481585D01*
X156572753Y-107683760D01*
X156549265Y-107832058D01*
X156539500Y-107893713D01*
X156539500Y-108106287D01*
X156545981Y-108147203D01*
X156569102Y-108293190D01*
X156572754Y-108316243D01*
X156616968Y-108452320D01*
X156638444Y-108518414D01*
X156734951Y-108707820D01*
X156859890Y-108879786D01*
X157010213Y-109030109D01*
X157182179Y-109155048D01*
X157182181Y-109155049D01*
X157182184Y-109155051D01*
X157191493Y-109159794D01*
X157242290Y-109207766D01*
X157259087Y-109275587D01*
X157236552Y-109341722D01*
X157191505Y-109380760D01*
X157182446Y-109385376D01*
X157182440Y-109385380D01*
X157128282Y-109424727D01*
X157128282Y-109424728D01*
X157760591Y-110057037D01*
X157697007Y-110074075D01*
X157582993Y-110139901D01*
X157489901Y-110232993D01*
X157424075Y-110347007D01*
X157407037Y-110410591D01*
X156774728Y-109778282D01*
X156774727Y-109778282D01*
X156735380Y-109832439D01*
X156638904Y-110021782D01*
X156573242Y-110223869D01*
X156573242Y-110223872D01*
X156540000Y-110433753D01*
X156540000Y-110646246D01*
X156573242Y-110856127D01*
X156573242Y-110856130D01*
X156638904Y-111058217D01*
X156735375Y-111247550D01*
X156774728Y-111301716D01*
X157407037Y-110669408D01*
X157424075Y-110732993D01*
X157489901Y-110847007D01*
X157582993Y-110940099D01*
X157697007Y-111005925D01*
X157760590Y-111022962D01*
X157128282Y-111655269D01*
X157128282Y-111655270D01*
X157182452Y-111694626D01*
X157182451Y-111694626D01*
X157191495Y-111699234D01*
X157242292Y-111747208D01*
X157259087Y-111815029D01*
X157236550Y-111881164D01*
X157191499Y-111920202D01*
X157182182Y-111924949D01*
X157010213Y-112049890D01*
X156859890Y-112200213D01*
X156734951Y-112372179D01*
X156638444Y-112561585D01*
X156572753Y-112763760D01*
X156539500Y-112973713D01*
X156539500Y-113186286D01*
X156570385Y-113381290D01*
X156572754Y-113396243D01*
X156612385Y-113518215D01*
X156638444Y-113598414D01*
X156734951Y-113787820D01*
X156859890Y-113959786D01*
X157010213Y-114110109D01*
X157182182Y-114235050D01*
X157190946Y-114239516D01*
X157241742Y-114287491D01*
X157258536Y-114355312D01*
X157235998Y-114421447D01*
X157190946Y-114460484D01*
X157182182Y-114464949D01*
X157010213Y-114589890D01*
X156859890Y-114740213D01*
X156734951Y-114912179D01*
X156638444Y-115101585D01*
X156572753Y-115303760D01*
X156561961Y-115371898D01*
X156539500Y-115513713D01*
X156539500Y-115726287D01*
X156572754Y-115936243D01*
X156632043Y-116118716D01*
X156638444Y-116138414D01*
X156734951Y-116327820D01*
X156859890Y-116499786D01*
X157010213Y-116650109D01*
X157182182Y-116775050D01*
X157190946Y-116779516D01*
X157241742Y-116827491D01*
X157258536Y-116895312D01*
X157235998Y-116961447D01*
X157190946Y-117000484D01*
X157182182Y-117004949D01*
X157010213Y-117129890D01*
X156859890Y-117280213D01*
X156734951Y-117452179D01*
X156638444Y-117641585D01*
X156572753Y-117843760D01*
X156544656Y-118021158D01*
X156539500Y-118053713D01*
X156539500Y-118266287D01*
X156548157Y-118320943D01*
X156571723Y-118469738D01*
X156572754Y-118476243D01*
X156628896Y-118649030D01*
X156638444Y-118678414D01*
X156734951Y-118867820D01*
X156859890Y-119039786D01*
X157010213Y-119190109D01*
X157182182Y-119315050D01*
X157190946Y-119319516D01*
X157241742Y-119367491D01*
X157258536Y-119435312D01*
X157235998Y-119501447D01*
X157190946Y-119540484D01*
X157182182Y-119544949D01*
X157010213Y-119669890D01*
X156859890Y-119820213D01*
X156734951Y-119992179D01*
X156638444Y-120181585D01*
X156572753Y-120383760D01*
X156543338Y-120569478D01*
X156539500Y-120593713D01*
X156539500Y-120806287D01*
X156541389Y-120818215D01*
X156570260Y-121000501D01*
X156572754Y-121016243D01*
X156612655Y-121139046D01*
X156638444Y-121218414D01*
X156734951Y-121407820D01*
X156859890Y-121579786D01*
X157010213Y-121730109D01*
X157182179Y-121855048D01*
X157182181Y-121855049D01*
X157182184Y-121855051D01*
X157191493Y-121859794D01*
X157242290Y-121907766D01*
X157259087Y-121975587D01*
X157236552Y-122041722D01*
X157191505Y-122080760D01*
X157182446Y-122085376D01*
X157182440Y-122085380D01*
X157128282Y-122124727D01*
X157128282Y-122124728D01*
X157760591Y-122757037D01*
X157697007Y-122774075D01*
X157582993Y-122839901D01*
X157489901Y-122932993D01*
X157424075Y-123047007D01*
X157407037Y-123110591D01*
X156774728Y-122478282D01*
X156774727Y-122478282D01*
X156735380Y-122532439D01*
X156638904Y-122721782D01*
X156573242Y-122923869D01*
X156573242Y-122923872D01*
X156540000Y-123133753D01*
X156540000Y-123346246D01*
X156573242Y-123556127D01*
X156573242Y-123556130D01*
X156638904Y-123758217D01*
X156735375Y-123947550D01*
X156774728Y-124001716D01*
X157407037Y-123369408D01*
X157424075Y-123432993D01*
X157489901Y-123547007D01*
X157582993Y-123640099D01*
X157697007Y-123705925D01*
X157760590Y-123722962D01*
X157128282Y-124355269D01*
X157128282Y-124355270D01*
X157182452Y-124394626D01*
X157182451Y-124394626D01*
X157191495Y-124399234D01*
X157242292Y-124447208D01*
X157259087Y-124515029D01*
X157236550Y-124581164D01*
X157191499Y-124620202D01*
X157182182Y-124624949D01*
X157010213Y-124749890D01*
X156859890Y-124900213D01*
X156734951Y-125072179D01*
X156638444Y-125261585D01*
X156572753Y-125463760D01*
X156539500Y-125673713D01*
X156539500Y-125886286D01*
X156570032Y-126079061D01*
X156572754Y-126096243D01*
X156632716Y-126280787D01*
X156638444Y-126298414D01*
X156734951Y-126487820D01*
X156859890Y-126659786D01*
X157010213Y-126810109D01*
X157182182Y-126935050D01*
X157190946Y-126939516D01*
X157241742Y-126987491D01*
X157258536Y-127055312D01*
X157235998Y-127121447D01*
X157190946Y-127160484D01*
X157182182Y-127164949D01*
X157010213Y-127289890D01*
X156859890Y-127440213D01*
X156734951Y-127612179D01*
X156638444Y-127801585D01*
X156572753Y-128003760D01*
X156571104Y-128014174D01*
X156539500Y-128213713D01*
X156539500Y-128426287D01*
X156572754Y-128636243D01*
X156622003Y-128787816D01*
X156638444Y-128838414D01*
X156725466Y-129009205D01*
X156738362Y-129077875D01*
X156712086Y-129142615D01*
X156654979Y-129182872D01*
X156614981Y-129189500D01*
X152639758Y-129189500D01*
X152572719Y-129169815D01*
X152526964Y-129117011D01*
X152517020Y-129047853D01*
X152546045Y-128984297D01*
X152552077Y-128977819D01*
X152570104Y-128959792D01*
X152570106Y-128959788D01*
X152570109Y-128959786D01*
X152695048Y-128787820D01*
X152695050Y-128787817D01*
X152695051Y-128787816D01*
X152791557Y-128598412D01*
X152857246Y-128396243D01*
X152890500Y-128186287D01*
X152890500Y-127973713D01*
X152857246Y-127763757D01*
X152791557Y-127561588D01*
X152695051Y-127372184D01*
X152695049Y-127372181D01*
X152695048Y-127372179D01*
X152570109Y-127200213D01*
X152419786Y-127049890D01*
X152247815Y-126924948D01*
X152247814Y-126924947D01*
X152208205Y-126904765D01*
X152157409Y-126856791D01*
X152140500Y-126794281D01*
X152140500Y-121229059D01*
X152140501Y-121229046D01*
X152140501Y-121060945D01*
X152140501Y-121060943D01*
X152099577Y-120908215D01*
X152070639Y-120858095D01*
X152020520Y-120771284D01*
X151908716Y-120659480D01*
X151908715Y-120659479D01*
X151904385Y-120655149D01*
X151904374Y-120655139D01*
X150636819Y-119387584D01*
X150603334Y-119326261D01*
X150600500Y-119299903D01*
X150600500Y-118548627D01*
X150620185Y-118481588D01*
X150636820Y-118460945D01*
X150680517Y-118417248D01*
X150680517Y-118417247D01*
X150680520Y-118417245D01*
X150759577Y-118280313D01*
X150800501Y-118127586D01*
X150800501Y-117969471D01*
X150800501Y-117961876D01*
X150800500Y-117961858D01*
X150800500Y-117640531D01*
X150800501Y-117640518D01*
X150800501Y-117472415D01*
X150766276Y-117344688D01*
X150759577Y-117319687D01*
X150736784Y-117280208D01*
X150680524Y-117182761D01*
X150680518Y-117182753D01*
X150636819Y-117139054D01*
X150603334Y-117077731D01*
X150600500Y-117051373D01*
X150600500Y-116163312D01*
X150620185Y-116096273D01*
X150672989Y-116050518D01*
X150742147Y-116040574D01*
X150805703Y-116069599D01*
X150812181Y-116075631D01*
X151400924Y-116664374D01*
X151400934Y-116664385D01*
X151405264Y-116668715D01*
X151405265Y-116668716D01*
X151517069Y-116780520D01*
X151517071Y-116780521D01*
X151517075Y-116780524D01*
X151653994Y-116859573D01*
X151654001Y-116859577D01*
X151765804Y-116889534D01*
X151806727Y-116900500D01*
X151806728Y-116900500D01*
X152627545Y-116900500D01*
X152627561Y-116900501D01*
X152635157Y-116900501D01*
X152793268Y-116900501D01*
X152793271Y-116900501D01*
X152945999Y-116859577D01*
X152996118Y-116830639D01*
X153082930Y-116780520D01*
X153194734Y-116668716D01*
X153194734Y-116668714D01*
X153204942Y-116658507D01*
X153204943Y-116658504D01*
X153930520Y-115932930D01*
X154009577Y-115795998D01*
X154050501Y-115643271D01*
X154050501Y-115485156D01*
X154050501Y-115477561D01*
X154050500Y-115477543D01*
X154050500Y-114804765D01*
X154070185Y-114737726D01*
X154071398Y-114735874D01*
X154159390Y-114604185D01*
X154159390Y-114604184D01*
X154159394Y-114604179D01*
X154219737Y-114458497D01*
X154250500Y-114303842D01*
X154250500Y-114146158D01*
X154250500Y-114146155D01*
X154250499Y-114146153D01*
X154243329Y-114110109D01*
X154219737Y-113991503D01*
X154206602Y-113959792D01*
X154159397Y-113845827D01*
X154159390Y-113845814D01*
X154071789Y-113714711D01*
X154071786Y-113714707D01*
X153960292Y-113603213D01*
X153960288Y-113603210D01*
X153829185Y-113515609D01*
X153829172Y-113515602D01*
X153683501Y-113455264D01*
X153683489Y-113455261D01*
X153528845Y-113424500D01*
X153528842Y-113424500D01*
X153424500Y-113424500D01*
X153357461Y-113404815D01*
X153311706Y-113352011D01*
X153300500Y-113300500D01*
X153300500Y-109118606D01*
X153300501Y-109118593D01*
X153300501Y-108950490D01*
X153281557Y-108879792D01*
X153259577Y-108797762D01*
X153242646Y-108768436D01*
X153207647Y-108707816D01*
X153180522Y-108660833D01*
X153180518Y-108660828D01*
X153144022Y-108624332D01*
X153110537Y-108563009D01*
X153115521Y-108493317D01*
X153144017Y-108448975D01*
X153409473Y-108183519D01*
X153470795Y-108150037D01*
X153497153Y-108147203D01*
X154265160Y-108147203D01*
X154265176Y-108147204D01*
X154272772Y-108147204D01*
X154430883Y-108147204D01*
X154430886Y-108147204D01*
X154583614Y-108106280D01*
X154633733Y-108077342D01*
X154720545Y-108027223D01*
X154832349Y-107915419D01*
X154832349Y-107915417D01*
X154842557Y-107905210D01*
X154842559Y-107905207D01*
X155408506Y-107339260D01*
X155408511Y-107339256D01*
X155418714Y-107329052D01*
X155418716Y-107329052D01*
X155530520Y-107217248D01*
X155553187Y-107177987D01*
X155592263Y-107110306D01*
X155592266Y-107110297D01*
X155592272Y-107110289D01*
X155609577Y-107080317D01*
X155650501Y-106927589D01*
X155650501Y-106769475D01*
X155650501Y-106761880D01*
X155650500Y-106761862D01*
X155650500Y-106184500D01*
X155670185Y-106117461D01*
X155722989Y-106071706D01*
X155774500Y-106060500D01*
X156604281Y-106060500D01*
X156618883Y-106064787D01*
G37*
%TD.AperFunction*%
%TA.AperFunction,Conductor*%
G36*
X149744428Y-120194903D02*
G01*
X149755458Y-120204693D01*
X150903181Y-121352416D01*
X150917884Y-121379343D01*
X150934477Y-121405162D01*
X150935368Y-121411362D01*
X150936666Y-121413739D01*
X150939500Y-121440097D01*
X150939500Y-121514409D01*
X150919815Y-121581448D01*
X150867011Y-121627203D01*
X150797853Y-121637147D01*
X150759205Y-121624894D01*
X150672257Y-121580592D01*
X150507589Y-121527087D01*
X150507581Y-121527085D01*
X150500000Y-121525884D01*
X150500000Y-122594670D01*
X150480255Y-122574925D01*
X150394745Y-122525556D01*
X150299370Y-122500000D01*
X150200630Y-122500000D01*
X150105255Y-122525556D01*
X150019745Y-122574925D01*
X150000000Y-122594670D01*
X150000000Y-121525884D01*
X149999999Y-121525884D01*
X149992418Y-121527085D01*
X149992410Y-121527087D01*
X149827742Y-121580591D01*
X149673475Y-121659195D01*
X149533401Y-121760964D01*
X149425799Y-121868566D01*
X149364476Y-121902050D01*
X149294784Y-121897066D01*
X149238851Y-121855194D01*
X149232585Y-121845988D01*
X149192712Y-121781344D01*
X149068656Y-121657288D01*
X148919334Y-121565186D01*
X148752797Y-121510001D01*
X148752795Y-121510000D01*
X148650010Y-121499500D01*
X147849998Y-121499500D01*
X147849980Y-121499501D01*
X147747203Y-121510000D01*
X147747200Y-121510001D01*
X147580668Y-121565185D01*
X147580663Y-121565187D01*
X147431342Y-121657289D01*
X147307289Y-121781342D01*
X147215187Y-121930663D01*
X147215185Y-121930668D01*
X147187349Y-122014670D01*
X147160001Y-122097203D01*
X147160001Y-122097204D01*
X147160000Y-122097204D01*
X147149500Y-122199983D01*
X147149500Y-123550001D01*
X147149501Y-123550018D01*
X147160000Y-123652796D01*
X147160001Y-123652799D01*
X147188897Y-123740000D01*
X147215186Y-123819334D01*
X147307288Y-123968656D01*
X147431344Y-124092712D01*
X147580666Y-124184814D01*
X147747203Y-124239999D01*
X147849991Y-124250500D01*
X148650008Y-124250499D01*
X148650016Y-124250498D01*
X148650019Y-124250498D01*
X148706302Y-124244748D01*
X148752797Y-124239999D01*
X148919334Y-124184814D01*
X149068656Y-124092712D01*
X149192712Y-123968656D01*
X149232581Y-123904016D01*
X149284525Y-123857294D01*
X149353488Y-123846071D01*
X149417570Y-123873914D01*
X149425799Y-123881434D01*
X149533397Y-123989032D01*
X149673475Y-124090804D01*
X149827744Y-124169408D01*
X149992415Y-124222914D01*
X149992414Y-124222914D01*
X149999999Y-124224115D01*
X150000000Y-124224114D01*
X150000000Y-123155330D01*
X150019745Y-123175075D01*
X150105255Y-123224444D01*
X150200630Y-123250000D01*
X150299370Y-123250000D01*
X150394745Y-123224444D01*
X150480255Y-123175075D01*
X150500000Y-123155330D01*
X150500000Y-124224115D01*
X150507584Y-124222914D01*
X150672257Y-124169408D01*
X150759204Y-124125106D01*
X150827873Y-124112209D01*
X150892614Y-124138485D01*
X150932872Y-124195591D01*
X150939500Y-124235590D01*
X150939500Y-126794281D01*
X150919815Y-126861320D01*
X150871795Y-126904765D01*
X150832185Y-126924947D01*
X150832184Y-126924948D01*
X150660213Y-127049890D01*
X150509890Y-127200213D01*
X150384949Y-127372182D01*
X150380202Y-127381499D01*
X150332227Y-127432293D01*
X150264405Y-127449087D01*
X150198271Y-127426548D01*
X150159234Y-127381495D01*
X150154626Y-127372452D01*
X150115270Y-127318282D01*
X150115269Y-127318282D01*
X149482962Y-127950590D01*
X149465925Y-127887007D01*
X149400099Y-127772993D01*
X149307007Y-127679901D01*
X149192993Y-127614075D01*
X149129409Y-127597037D01*
X149761716Y-126964728D01*
X149707550Y-126925375D01*
X149518217Y-126828904D01*
X149316129Y-126763242D01*
X149106246Y-126730000D01*
X148893754Y-126730000D01*
X148683872Y-126763242D01*
X148683869Y-126763242D01*
X148481782Y-126828904D01*
X148292439Y-126925380D01*
X148238282Y-126964727D01*
X148238282Y-126964728D01*
X148870591Y-127597037D01*
X148807007Y-127614075D01*
X148692993Y-127679901D01*
X148599901Y-127772993D01*
X148534075Y-127887007D01*
X148517037Y-127950591D01*
X147846818Y-127280372D01*
X147813333Y-127219049D01*
X147813330Y-127219036D01*
X147810499Y-127206015D01*
X147810499Y-127182128D01*
X147804091Y-127122517D01*
X147770165Y-127031557D01*
X147753798Y-126987673D01*
X147753793Y-126987664D01*
X147667547Y-126872455D01*
X147667544Y-126872452D01*
X147552335Y-126786206D01*
X147552328Y-126786202D01*
X147417482Y-126735908D01*
X147417483Y-126735908D01*
X147357883Y-126729501D01*
X147357881Y-126729500D01*
X147357873Y-126729500D01*
X147357865Y-126729500D01*
X147184500Y-126729500D01*
X147117461Y-126709815D01*
X147071706Y-126657011D01*
X147060500Y-126605500D01*
X147060500Y-126089060D01*
X147060501Y-126089047D01*
X147060501Y-125920944D01*
X147060501Y-125920943D01*
X147019577Y-125768216D01*
X146990999Y-125718717D01*
X146940524Y-125631290D01*
X146940518Y-125631282D01*
X146478717Y-125169481D01*
X146478709Y-125169475D01*
X146389923Y-125118215D01*
X146389922Y-125118215D01*
X146341785Y-125090423D01*
X146189057Y-125049499D01*
X146030943Y-125049499D01*
X146023347Y-125049499D01*
X146023331Y-125049500D01*
X145824500Y-125049500D01*
X145757461Y-125029815D01*
X145711706Y-124977011D01*
X145700500Y-124925500D01*
X145700500Y-121350097D01*
X145720185Y-121283058D01*
X145736819Y-121262416D01*
X145962416Y-121036819D01*
X146023739Y-121003334D01*
X146050097Y-121000500D01*
X148513331Y-121000500D01*
X148513347Y-121000501D01*
X148520943Y-121000501D01*
X148679054Y-121000501D01*
X148679057Y-121000501D01*
X148831785Y-120959577D01*
X148881904Y-120930639D01*
X148968716Y-120880520D01*
X149080520Y-120768716D01*
X149080520Y-120768714D01*
X149090728Y-120758507D01*
X149090730Y-120758504D01*
X149358506Y-120490728D01*
X149358511Y-120490724D01*
X149368714Y-120480520D01*
X149368716Y-120480520D01*
X149480520Y-120368716D01*
X149559577Y-120231784D01*
X149559578Y-120231779D01*
X149560389Y-120230375D01*
X149610956Y-120182159D01*
X149679563Y-120168935D01*
X149744428Y-120194903D01*
G37*
%TD.AperFunction*%
%TA.AperFunction,Conductor*%
G36*
X139764075Y-123432993D02*
G01*
X139829901Y-123547007D01*
X139922993Y-123640099D01*
X140037007Y-123705925D01*
X140100590Y-123722962D01*
X139468282Y-124355269D01*
X139468282Y-124355270D01*
X139522452Y-124394626D01*
X139522451Y-124394626D01*
X139531495Y-124399234D01*
X139582292Y-124447208D01*
X139599087Y-124515029D01*
X139576550Y-124581164D01*
X139531499Y-124620202D01*
X139522182Y-124624949D01*
X139350213Y-124749890D01*
X139350209Y-124749894D01*
X139212181Y-124887923D01*
X139150858Y-124921408D01*
X139081166Y-124916424D01*
X139025233Y-124874552D01*
X139000816Y-124809088D01*
X139000500Y-124800242D01*
X139000500Y-124126869D01*
X139020185Y-124059830D01*
X139072989Y-124014075D01*
X139108677Y-124007767D01*
X139747037Y-123369408D01*
X139764075Y-123432993D01*
G37*
%TD.AperFunction*%
%TA.AperFunction,Conductor*%
G36*
X158963181Y-123959627D02*
G01*
X158996666Y-124020950D01*
X158999500Y-124047308D01*
X158999500Y-124680242D01*
X158979815Y-124747281D01*
X158927011Y-124793036D01*
X158857853Y-124802980D01*
X158794297Y-124773955D01*
X158787819Y-124767923D01*
X158769786Y-124749890D01*
X158597817Y-124624949D01*
X158588504Y-124620204D01*
X158537707Y-124572230D01*
X158520912Y-124504409D01*
X158543449Y-124438274D01*
X158588507Y-124399232D01*
X158597555Y-124394622D01*
X158651716Y-124355270D01*
X158651717Y-124355270D01*
X158019408Y-123722962D01*
X158082993Y-123705925D01*
X158197007Y-123640099D01*
X158290099Y-123547007D01*
X158355925Y-123432993D01*
X158372962Y-123369408D01*
X158963181Y-123959627D01*
G37*
%TD.AperFunction*%
%TA.AperFunction,Conductor*%
G36*
X139205703Y-121586045D02*
G01*
X139212181Y-121592077D01*
X139350213Y-121730109D01*
X139522179Y-121855048D01*
X139522181Y-121855049D01*
X139522184Y-121855051D01*
X139531493Y-121859794D01*
X139582290Y-121907766D01*
X139599087Y-121975587D01*
X139576552Y-122041722D01*
X139531505Y-122080760D01*
X139522446Y-122085376D01*
X139522440Y-122085380D01*
X139468282Y-122124727D01*
X139468282Y-122124728D01*
X140100591Y-122757037D01*
X140037007Y-122774075D01*
X139922993Y-122839901D01*
X139829901Y-122932993D01*
X139764075Y-123047007D01*
X139747037Y-123110591D01*
X139107598Y-122471152D01*
X139065851Y-122462382D01*
X139016094Y-122413331D01*
X139000500Y-122353129D01*
X139000500Y-121679758D01*
X139020185Y-121612719D01*
X139072989Y-121566964D01*
X139142147Y-121557020D01*
X139205703Y-121586045D01*
G37*
%TD.AperFunction*%
%TA.AperFunction,Conductor*%
G36*
X158918834Y-121683576D02*
G01*
X158974767Y-121725448D01*
X158999184Y-121790912D01*
X158999500Y-121799758D01*
X158999500Y-122432692D01*
X158979815Y-122499731D01*
X158963181Y-122520373D01*
X158372962Y-123110591D01*
X158355925Y-123047007D01*
X158290099Y-122932993D01*
X158197007Y-122839901D01*
X158082993Y-122774075D01*
X158019409Y-122757037D01*
X158651716Y-122124728D01*
X158597547Y-122085373D01*
X158597547Y-122085372D01*
X158588500Y-122080763D01*
X158537706Y-122032788D01*
X158520912Y-121964966D01*
X158543451Y-121898832D01*
X158588508Y-121859793D01*
X158597816Y-121855051D01*
X158699266Y-121781344D01*
X158769786Y-121730109D01*
X158769788Y-121730106D01*
X158769792Y-121730104D01*
X158787819Y-121712077D01*
X158849142Y-121678592D01*
X158918834Y-121683576D01*
G37*
%TD.AperFunction*%
%TA.AperFunction,Conductor*%
G36*
X139764075Y-110732993D02*
G01*
X139829901Y-110847007D01*
X139922993Y-110940099D01*
X140037007Y-111005925D01*
X140100590Y-111022962D01*
X139468282Y-111655269D01*
X139468282Y-111655270D01*
X139522452Y-111694626D01*
X139522451Y-111694626D01*
X139531495Y-111699234D01*
X139582292Y-111747208D01*
X139599087Y-111815029D01*
X139576550Y-111881164D01*
X139531499Y-111920202D01*
X139522182Y-111924949D01*
X139350213Y-112049890D01*
X139350209Y-112049894D01*
X139212181Y-112187923D01*
X139150858Y-112221408D01*
X139081166Y-112216424D01*
X139025233Y-112174552D01*
X139000816Y-112109088D01*
X139000500Y-112100242D01*
X139000500Y-111426869D01*
X139020185Y-111359830D01*
X139072989Y-111314075D01*
X139108677Y-111307767D01*
X139747037Y-110669408D01*
X139764075Y-110732993D01*
G37*
%TD.AperFunction*%
%TA.AperFunction,Conductor*%
G36*
X158963181Y-111259627D02*
G01*
X158996666Y-111320950D01*
X158999500Y-111347308D01*
X158999500Y-111980242D01*
X158979815Y-112047281D01*
X158927011Y-112093036D01*
X158857853Y-112102980D01*
X158794297Y-112073955D01*
X158787819Y-112067923D01*
X158769786Y-112049890D01*
X158597817Y-111924949D01*
X158588504Y-111920204D01*
X158537707Y-111872230D01*
X158520912Y-111804409D01*
X158543449Y-111738274D01*
X158588507Y-111699232D01*
X158597555Y-111694622D01*
X158651716Y-111655270D01*
X158651717Y-111655270D01*
X158019408Y-111022962D01*
X158082993Y-111005925D01*
X158197007Y-110940099D01*
X158290099Y-110847007D01*
X158355925Y-110732993D01*
X158372962Y-110669408D01*
X158963181Y-111259627D01*
G37*
%TD.AperFunction*%
%TA.AperFunction,Conductor*%
G36*
X139205703Y-108886045D02*
G01*
X139212181Y-108892077D01*
X139350213Y-109030109D01*
X139522179Y-109155048D01*
X139522181Y-109155049D01*
X139522184Y-109155051D01*
X139531493Y-109159794D01*
X139582290Y-109207766D01*
X139599087Y-109275587D01*
X139576552Y-109341722D01*
X139531505Y-109380760D01*
X139522446Y-109385376D01*
X139522440Y-109385380D01*
X139468282Y-109424727D01*
X139468282Y-109424728D01*
X140100591Y-110057037D01*
X140037007Y-110074075D01*
X139922993Y-110139901D01*
X139829901Y-110232993D01*
X139764075Y-110347007D01*
X139747037Y-110410591D01*
X139107598Y-109771152D01*
X139065851Y-109762382D01*
X139016094Y-109713331D01*
X139000500Y-109653129D01*
X139000500Y-108979758D01*
X139020185Y-108912719D01*
X139072989Y-108866964D01*
X139142147Y-108857020D01*
X139205703Y-108886045D01*
G37*
%TD.AperFunction*%
%TA.AperFunction,Conductor*%
G36*
X158918834Y-108983576D02*
G01*
X158974767Y-109025448D01*
X158999184Y-109090912D01*
X158999500Y-109099758D01*
X158999500Y-109732692D01*
X158979815Y-109799731D01*
X158963181Y-109820373D01*
X158372962Y-110410591D01*
X158355925Y-110347007D01*
X158290099Y-110232993D01*
X158197007Y-110139901D01*
X158082993Y-110074075D01*
X158019409Y-110057037D01*
X158651716Y-109424728D01*
X158597547Y-109385373D01*
X158597547Y-109385372D01*
X158588500Y-109380763D01*
X158537706Y-109332788D01*
X158520912Y-109264966D01*
X158543451Y-109198832D01*
X158588508Y-109159793D01*
X158597816Y-109155051D01*
X158686096Y-109090912D01*
X158769786Y-109030109D01*
X158769788Y-109030106D01*
X158769792Y-109030104D01*
X158787819Y-109012077D01*
X158849142Y-108978592D01*
X158918834Y-108983576D01*
G37*
%TD.AperFunction*%
%TA.AperFunction,Conductor*%
G36*
X157424075Y-98032993D02*
G01*
X157489901Y-98147007D01*
X157582993Y-98240099D01*
X157697007Y-98305925D01*
X157760590Y-98322962D01*
X157128282Y-98955269D01*
X157128282Y-98955270D01*
X157182452Y-98994626D01*
X157182451Y-98994626D01*
X157191495Y-98999234D01*
X157242292Y-99047208D01*
X157259087Y-99115029D01*
X157236550Y-99181164D01*
X157191499Y-99220202D01*
X157182182Y-99224949D01*
X157010213Y-99349890D01*
X156859890Y-99500213D01*
X156734951Y-99672179D01*
X156638444Y-99861585D01*
X156572753Y-100063760D01*
X156539500Y-100273713D01*
X156539500Y-100486286D01*
X156572754Y-100696244D01*
X156572754Y-100696247D01*
X156586491Y-100738523D01*
X156588486Y-100808364D01*
X156556241Y-100864522D01*
X154084707Y-103336056D01*
X154084701Y-103336062D01*
X154081289Y-103339475D01*
X154081287Y-103339477D01*
X153969483Y-103451281D01*
X153940576Y-103501350D01*
X153934857Y-103511253D01*
X153934857Y-103511255D01*
X153911327Y-103552011D01*
X153890426Y-103588212D01*
X153849502Y-103740940D01*
X153849502Y-103740942D01*
X153849502Y-103909043D01*
X153849503Y-103909056D01*
X153849503Y-106020234D01*
X153829818Y-106087273D01*
X153828605Y-106089125D01*
X153740612Y-106220814D01*
X153740605Y-106220827D01*
X153680267Y-106366498D01*
X153680264Y-106366510D01*
X153649503Y-106521153D01*
X153649503Y-106678846D01*
X153673207Y-106798012D01*
X153666980Y-106867603D01*
X153624117Y-106922780D01*
X153558227Y-106946025D01*
X153551590Y-106946203D01*
X153117998Y-106946203D01*
X152965270Y-106987126D01*
X152943839Y-106999500D01*
X152943838Y-106999500D01*
X152828343Y-107066180D01*
X152828338Y-107066184D01*
X152262181Y-107632342D01*
X152200858Y-107665827D01*
X152131166Y-107660843D01*
X152075233Y-107618971D01*
X152050816Y-107553507D01*
X152050500Y-107544661D01*
X152050500Y-106320944D01*
X152050499Y-106320940D01*
X152049449Y-106317020D01*
X152044211Y-106297470D01*
X152009577Y-106168215D01*
X152009576Y-106168213D01*
X152007423Y-106163016D01*
X151999953Y-106093547D01*
X152031226Y-106031067D01*
X152034274Y-106027907D01*
X152126893Y-105935289D01*
X152214498Y-105804179D01*
X152274841Y-105658497D01*
X152305604Y-105503842D01*
X152305604Y-105346158D01*
X152293228Y-105283941D01*
X152299454Y-105214353D01*
X152327161Y-105172073D01*
X152780520Y-104718716D01*
X152859577Y-104581784D01*
X152900501Y-104429057D01*
X152900501Y-104270942D01*
X152900501Y-104263347D01*
X152900500Y-104263329D01*
X152900500Y-102250097D01*
X152920185Y-102183058D01*
X152936819Y-102162416D01*
X154612949Y-100486286D01*
X156430520Y-98668716D01*
X156509577Y-98531784D01*
X156509577Y-98531781D01*
X156511063Y-98529209D01*
X156561630Y-98480993D01*
X156630237Y-98467769D01*
X156695102Y-98493737D01*
X156728935Y-98534912D01*
X156735373Y-98547547D01*
X156774728Y-98601716D01*
X157407037Y-97969408D01*
X157424075Y-98032993D01*
G37*
%TD.AperFunction*%
%TA.AperFunction,Conductor*%
G36*
X148731204Y-105520185D02*
G01*
X148733056Y-105521398D01*
X148864745Y-105609390D01*
X148864758Y-105609397D01*
X149010429Y-105669735D01*
X149010434Y-105669737D01*
X149052595Y-105678123D01*
X149085837Y-105684736D01*
X149147748Y-105717121D01*
X149182322Y-105777836D01*
X149178583Y-105847606D01*
X149149327Y-105894034D01*
X148281439Y-106761924D01*
X148169638Y-106873724D01*
X148169633Y-106873730D01*
X148123541Y-106953562D01*
X148072973Y-107001777D01*
X148004365Y-107014998D01*
X147939501Y-106989029D01*
X147928474Y-106979241D01*
X147535072Y-106585839D01*
X147508192Y-106545610D01*
X147485203Y-106490109D01*
X147479744Y-106476929D01*
X147410113Y-106372719D01*
X147392140Y-106345820D01*
X147381944Y-106335624D01*
X147363461Y-106317141D01*
X147329977Y-106255821D01*
X147329526Y-106205270D01*
X147336536Y-106170031D01*
X147336536Y-106012347D01*
X147336536Y-106012344D01*
X147336535Y-106012342D01*
X147305774Y-105857699D01*
X147305773Y-105857692D01*
X147300124Y-105844056D01*
X147292656Y-105774587D01*
X147323931Y-105712108D01*
X147384020Y-105676456D01*
X147390471Y-105674991D01*
X147416890Y-105669737D01*
X147562572Y-105609394D01*
X147617638Y-105572600D01*
X147694268Y-105521398D01*
X147760946Y-105500520D01*
X147763159Y-105500500D01*
X148664165Y-105500500D01*
X148731204Y-105520185D01*
G37*
%TD.AperFunction*%
%TA.AperFunction,Conductor*%
G36*
X145561705Y-89341394D02*
G01*
X145593446Y-89341962D01*
X145597630Y-89343964D01*
X145599726Y-89344114D01*
X145625284Y-89357194D01*
X145738190Y-89432636D01*
X145738203Y-89432643D01*
X145883874Y-89492981D01*
X145883879Y-89492983D01*
X146038529Y-89523745D01*
X146038532Y-89523746D01*
X146038534Y-89523746D01*
X146135238Y-89523746D01*
X146167331Y-89527970D01*
X146270073Y-89555501D01*
X146270075Y-89555501D01*
X146270911Y-89555725D01*
X146302251Y-89574828D01*
X146306703Y-89573076D01*
X146326235Y-89560524D01*
X146345733Y-89557720D01*
X146350119Y-89555995D01*
X146361169Y-89555501D01*
X146428188Y-89555501D01*
X146428191Y-89555500D01*
X146435798Y-89555500D01*
X149045904Y-89555500D01*
X149112943Y-89575185D01*
X149158698Y-89627989D01*
X149168642Y-89697147D01*
X149139617Y-89760703D01*
X149133585Y-89767181D01*
X148735340Y-90165425D01*
X148674017Y-90198910D01*
X148671851Y-90199361D01*
X148516509Y-90230261D01*
X148516499Y-90230264D01*
X148370828Y-90290602D01*
X148370815Y-90290609D01*
X148239712Y-90378210D01*
X148171259Y-90446663D01*
X148109935Y-90480147D01*
X148040244Y-90475162D01*
X147995897Y-90446662D01*
X147787590Y-90238355D01*
X147787588Y-90238352D01*
X147668717Y-90119481D01*
X147668709Y-90119475D01*
X147575054Y-90065404D01*
X147575052Y-90065403D01*
X147531790Y-90040425D01*
X147531789Y-90040424D01*
X147519263Y-90037067D01*
X147379057Y-89999499D01*
X147220943Y-89999499D01*
X147213347Y-89999499D01*
X147213331Y-89999500D01*
X146829766Y-89999500D01*
X146762727Y-89979815D01*
X146760875Y-89978602D01*
X146629185Y-89890609D01*
X146629172Y-89890602D01*
X146483501Y-89830264D01*
X146483491Y-89830261D01*
X146336979Y-89801118D01*
X146316406Y-89790356D01*
X146294133Y-89783817D01*
X146293392Y-89782962D01*
X146241768Y-89799465D01*
X146238817Y-89799500D01*
X146171155Y-89799500D01*
X146016510Y-89830261D01*
X146016498Y-89830264D01*
X145870827Y-89890602D01*
X145870814Y-89890609D01*
X145739711Y-89978210D01*
X145739707Y-89978213D01*
X145628213Y-90089707D01*
X145628210Y-90089711D01*
X145540609Y-90220814D01*
X145540602Y-90220827D01*
X145480264Y-90366498D01*
X145480261Y-90366510D01*
X145449500Y-90521153D01*
X145449500Y-90678846D01*
X145480261Y-90833489D01*
X145480264Y-90833501D01*
X145540602Y-90979172D01*
X145540609Y-90979185D01*
X145628210Y-91110288D01*
X145628213Y-91110292D01*
X145739707Y-91221786D01*
X145739711Y-91221789D01*
X145870814Y-91309390D01*
X145870827Y-91309397D01*
X146016498Y-91369735D01*
X146016503Y-91369737D01*
X146171153Y-91400499D01*
X146171156Y-91400500D01*
X146171158Y-91400500D01*
X146328844Y-91400500D01*
X146328845Y-91400499D01*
X146483497Y-91369737D01*
X146629179Y-91309394D01*
X146666600Y-91284390D01*
X146760875Y-91221398D01*
X146778921Y-91215747D01*
X146794831Y-91205523D01*
X146825792Y-91201071D01*
X146827553Y-91200520D01*
X146829766Y-91200500D01*
X146999903Y-91200500D01*
X147066942Y-91220185D01*
X147087584Y-91236819D01*
X149130252Y-93279487D01*
X149163737Y-93340810D01*
X149164188Y-93391359D01*
X149149501Y-93465195D01*
X149149501Y-93622888D01*
X149180262Y-93777531D01*
X149180265Y-93777543D01*
X149240603Y-93923214D01*
X149240610Y-93923227D01*
X149328211Y-94054330D01*
X149328214Y-94054334D01*
X149439708Y-94165828D01*
X149439712Y-94165831D01*
X149570815Y-94253432D01*
X149570828Y-94253439D01*
X149668644Y-94293955D01*
X149716504Y-94313779D01*
X149871154Y-94344541D01*
X149871157Y-94344542D01*
X149871159Y-94344542D01*
X150028845Y-94344542D01*
X150028846Y-94344541D01*
X150183498Y-94313779D01*
X150329180Y-94253436D01*
X150460290Y-94165831D01*
X150571790Y-94054331D01*
X150659395Y-93923221D01*
X150709808Y-93801510D01*
X150753647Y-93747110D01*
X150819941Y-93725044D01*
X150887640Y-93742323D01*
X150912049Y-93761284D01*
X152666280Y-95515515D01*
X152671362Y-95523229D01*
X152676148Y-95526644D01*
X152684119Y-95542590D01*
X152693764Y-95557227D01*
X152696478Y-95564028D01*
X152712882Y-95625245D01*
X152734436Y-95662577D01*
X152738903Y-95670314D01*
X152791938Y-95762174D01*
X152791940Y-95762177D01*
X152910808Y-95881045D01*
X152910814Y-95881050D01*
X153063181Y-96033417D01*
X153096666Y-96094740D01*
X153099500Y-96121098D01*
X153099500Y-97420234D01*
X153079815Y-97487273D01*
X153078602Y-97489125D01*
X152990609Y-97620814D01*
X152990602Y-97620827D01*
X152930264Y-97766498D01*
X152930261Y-97766510D01*
X152899500Y-97921153D01*
X152899500Y-98078846D01*
X152930261Y-98233489D01*
X152930264Y-98233501D01*
X152990602Y-98379172D01*
X152990609Y-98379185D01*
X153078210Y-98510288D01*
X153078213Y-98510292D01*
X153189707Y-98621786D01*
X153189711Y-98621789D01*
X153320814Y-98709390D01*
X153320827Y-98709397D01*
X153466498Y-98769735D01*
X153466503Y-98769737D01*
X153576987Y-98791713D01*
X153599691Y-98796230D01*
X153627814Y-98810940D01*
X153656703Y-98824134D01*
X153658560Y-98827023D01*
X153661602Y-98828615D01*
X153677308Y-98856197D01*
X153694477Y-98882912D01*
X153695137Y-98887506D01*
X153696176Y-98889330D01*
X153699500Y-98917847D01*
X153699500Y-99084216D01*
X153679815Y-99151255D01*
X153663181Y-99171897D01*
X151419481Y-101415596D01*
X151419479Y-101415598D01*
X151391159Y-101464651D01*
X151379189Y-101485385D01*
X151359806Y-101518957D01*
X151340423Y-101552528D01*
X151340423Y-101552529D01*
X151299499Y-101705257D01*
X151299499Y-101705259D01*
X151299499Y-101873360D01*
X151299500Y-101873373D01*
X151299500Y-101899902D01*
X151279815Y-101966941D01*
X151263181Y-101987583D01*
X150424585Y-102826178D01*
X150424581Y-102826183D01*
X150377049Y-102908513D01*
X150377048Y-102908515D01*
X150351297Y-102953115D01*
X150300729Y-103001330D01*
X150232122Y-103014551D01*
X150167257Y-102988582D01*
X150129350Y-102938567D01*
X150109394Y-102890387D01*
X150109392Y-102890384D01*
X150109390Y-102890380D01*
X150021398Y-102758691D01*
X150000520Y-102692013D01*
X150000500Y-102689800D01*
X150000500Y-101310201D01*
X150020185Y-101243162D01*
X150021398Y-101241310D01*
X150024265Y-101237020D01*
X150109394Y-101109615D01*
X150169737Y-100963933D01*
X150200500Y-100809278D01*
X150200500Y-100651594D01*
X150200500Y-100651591D01*
X150200499Y-100651589D01*
X150169738Y-100496946D01*
X150169737Y-100496939D01*
X150165325Y-100486287D01*
X150109397Y-100351263D01*
X150109390Y-100351250D01*
X150021789Y-100220147D01*
X150021786Y-100220143D01*
X149910292Y-100108649D01*
X149910288Y-100108646D01*
X149779185Y-100021045D01*
X149779172Y-100021038D01*
X149633501Y-99960700D01*
X149633489Y-99960697D01*
X149478845Y-99929936D01*
X149478842Y-99929936D01*
X149321158Y-99929936D01*
X149321155Y-99929936D01*
X149166510Y-99960697D01*
X149166498Y-99960700D01*
X149020827Y-100021038D01*
X149020814Y-100021045D01*
X148889711Y-100108646D01*
X148889707Y-100108649D01*
X148778213Y-100220143D01*
X148778210Y-100220147D01*
X148690609Y-100351250D01*
X148690602Y-100351263D01*
X148630264Y-100496934D01*
X148630261Y-100496946D01*
X148599500Y-100651589D01*
X148599500Y-100809282D01*
X148630261Y-100963925D01*
X148630264Y-100963937D01*
X148690602Y-101109608D01*
X148690609Y-101109621D01*
X148778602Y-101241310D01*
X148799480Y-101307987D01*
X148799500Y-101310201D01*
X148799500Y-102689800D01*
X148779815Y-102756839D01*
X148778602Y-102758691D01*
X148690609Y-102890380D01*
X148690602Y-102890393D01*
X148630264Y-103036064D01*
X148630261Y-103036076D01*
X148599500Y-103190719D01*
X148599500Y-103348412D01*
X148630261Y-103503055D01*
X148630264Y-103503067D01*
X148690602Y-103648738D01*
X148690609Y-103648751D01*
X148778210Y-103779854D01*
X148778213Y-103779858D01*
X148889707Y-103891352D01*
X148889711Y-103891355D01*
X148963740Y-103940820D01*
X149008545Y-103994432D01*
X149017252Y-104063757D01*
X148987098Y-104126785D01*
X148942302Y-104158483D01*
X148864755Y-104190604D01*
X148864745Y-104190609D01*
X148733056Y-104278602D01*
X148666378Y-104299480D01*
X148664165Y-104299500D01*
X147763159Y-104299500D01*
X147696120Y-104279815D01*
X147694268Y-104278602D01*
X147562578Y-104190609D01*
X147562565Y-104190602D01*
X147416894Y-104130264D01*
X147416882Y-104130261D01*
X147262238Y-104099500D01*
X147262235Y-104099500D01*
X147104551Y-104099500D01*
X147104548Y-104099500D01*
X146949903Y-104130261D01*
X146949891Y-104130264D01*
X146804220Y-104190602D01*
X146804207Y-104190609D01*
X146673104Y-104278210D01*
X146673100Y-104278213D01*
X146561606Y-104389707D01*
X146561603Y-104389711D01*
X146474002Y-104520814D01*
X146473995Y-104520827D01*
X146413657Y-104666498D01*
X146413654Y-104666510D01*
X146382893Y-104821153D01*
X146382893Y-104821158D01*
X146382893Y-104978842D01*
X146382893Y-104978844D01*
X146382892Y-104978844D01*
X146406198Y-105096004D01*
X146404320Y-105116987D01*
X146407319Y-105137842D01*
X146401268Y-105151090D01*
X146399971Y-105165596D01*
X146387047Y-105182232D01*
X146378295Y-105201398D01*
X146366041Y-105209272D01*
X146357108Y-105220773D01*
X146337242Y-105227781D01*
X146319517Y-105239173D01*
X146294933Y-105242707D01*
X146291219Y-105244018D01*
X146284582Y-105244196D01*
X146159179Y-105244196D01*
X146159175Y-105244196D01*
X146151568Y-105244197D01*
X146151567Y-105244196D01*
X146151567Y-105244197D01*
X144672608Y-105244197D01*
X144672592Y-105244196D01*
X144664996Y-105244196D01*
X144615883Y-105244196D01*
X144548844Y-105224511D01*
X144503089Y-105171707D01*
X144493145Y-105102549D01*
X144506524Y-105061744D01*
X144509390Y-105056378D01*
X144509394Y-105056374D01*
X144569737Y-104910692D01*
X144600500Y-104756037D01*
X144600500Y-104598353D01*
X144600500Y-104598350D01*
X144600499Y-104598348D01*
X144585076Y-104520814D01*
X144569737Y-104443698D01*
X144547375Y-104389711D01*
X144514329Y-104309929D01*
X144504890Y-104262477D01*
X144504890Y-104145945D01*
X144504890Y-104145943D01*
X144463967Y-103993216D01*
X144445331Y-103960937D01*
X144384910Y-103856284D01*
X144273106Y-103744480D01*
X144273104Y-103744479D01*
X144273099Y-103744475D01*
X144136180Y-103665426D01*
X144136176Y-103665424D01*
X144136174Y-103665423D01*
X143983447Y-103624500D01*
X143983446Y-103624500D01*
X143843257Y-103624500D01*
X143776218Y-103604815D01*
X143730463Y-103552011D01*
X143722944Y-103525831D01*
X143722604Y-103525923D01*
X143720501Y-103518074D01*
X143720501Y-103518072D01*
X143679577Y-103365344D01*
X143650639Y-103315224D01*
X143600520Y-103228413D01*
X143591514Y-103219407D01*
X143583902Y-103207058D01*
X143578361Y-103186787D01*
X143568293Y-103168348D01*
X143569335Y-103153764D01*
X143565481Y-103139660D01*
X143571778Y-103119615D01*
X143573277Y-103098656D01*
X143582040Y-103086950D01*
X143586422Y-103073002D01*
X143602557Y-103059543D01*
X143615149Y-103042723D01*
X143633283Y-103033914D01*
X143640076Y-103028248D01*
X143646629Y-103027431D01*
X143657364Y-103022216D01*
X143691099Y-103013177D01*
X143741218Y-102984239D01*
X143828030Y-102934120D01*
X143939834Y-102822316D01*
X143939835Y-102822314D01*
X144502741Y-102259409D01*
X144581798Y-102122477D01*
X144622722Y-101969750D01*
X144622722Y-101811635D01*
X144622722Y-101804040D01*
X144622721Y-101804022D01*
X144622721Y-101774105D01*
X144642406Y-101707066D01*
X144695210Y-101661311D01*
X144730540Y-101651165D01*
X144735578Y-101650501D01*
X144735592Y-101650501D01*
X144888320Y-101609577D01*
X144949000Y-101574543D01*
X145025251Y-101530520D01*
X145137055Y-101418716D01*
X145137055Y-101418714D01*
X145147259Y-101408511D01*
X145147262Y-101408506D01*
X146187010Y-100368761D01*
X146266067Y-100231829D01*
X146306991Y-100079102D01*
X146306991Y-99920987D01*
X146266067Y-99768260D01*
X146266065Y-99768258D01*
X146265448Y-99765952D01*
X146265250Y-99765673D01*
X146265224Y-99765118D01*
X146263963Y-99760410D01*
X146264997Y-99760132D01*
X146263827Y-99734441D01*
X146260484Y-99703356D01*
X146262199Y-99698685D01*
X146262072Y-99695876D01*
X146267012Y-99685585D01*
X146275259Y-99663137D01*
X146279791Y-99655324D01*
X146280520Y-99654596D01*
X146342563Y-99547133D01*
X146359577Y-99517665D01*
X146400500Y-99364937D01*
X146400500Y-99206823D01*
X146400500Y-93482871D01*
X146400501Y-93482858D01*
X146400501Y-93314755D01*
X146391051Y-93279487D01*
X146359577Y-93162027D01*
X146310048Y-93076239D01*
X146280524Y-93025101D01*
X146280518Y-93025093D01*
X145513388Y-92257963D01*
X144739802Y-91484378D01*
X144706318Y-91423056D01*
X144711302Y-91353364D01*
X144753174Y-91297431D01*
X144769638Y-91288062D01*
X144769212Y-91287264D01*
X144774575Y-91284396D01*
X144774582Y-91284394D01*
X144905692Y-91196789D01*
X145017192Y-91085289D01*
X145104797Y-90954179D01*
X145107470Y-90947727D01*
X145154783Y-90833501D01*
X145165140Y-90808497D01*
X145195903Y-90653842D01*
X145195903Y-90496158D01*
X145195903Y-90496155D01*
X145195902Y-90496153D01*
X145186058Y-90446663D01*
X145165140Y-90341503D01*
X145144058Y-90290606D01*
X145104800Y-90195827D01*
X145104793Y-90195814D01*
X145016801Y-90064125D01*
X144995923Y-89997447D01*
X144995903Y-89995234D01*
X144995903Y-89896787D01*
X145015588Y-89829748D01*
X145032222Y-89809106D01*
X145213339Y-89627989D01*
X145468714Y-89372613D01*
X145496572Y-89357402D01*
X145523588Y-89340714D01*
X145527021Y-89340775D01*
X145530035Y-89339130D01*
X145561705Y-89341394D01*
G37*
%TD.AperFunction*%
%TA.AperFunction,Conductor*%
G36*
X141557323Y-90931687D02*
G01*
X141591680Y-90992526D01*
X141594903Y-91020612D01*
X141594903Y-91407211D01*
X141594902Y-91565326D01*
X141625595Y-91679871D01*
X141635826Y-91718054D01*
X141635829Y-91718059D01*
X141714878Y-91854978D01*
X141714882Y-91854983D01*
X141714883Y-91854985D01*
X143718182Y-93858286D01*
X143751666Y-93919607D01*
X143754500Y-93945965D01*
X143754500Y-99165895D01*
X143734815Y-99232934D01*
X143682011Y-99278689D01*
X143662472Y-99285702D01*
X143662131Y-99285793D01*
X143644857Y-99290421D01*
X143644846Y-99290426D01*
X143507927Y-99369475D01*
X143507923Y-99369478D01*
X143403186Y-99474215D01*
X143403185Y-99474214D01*
X143403183Y-99474217D01*
X142453508Y-100423891D01*
X142341703Y-100535695D01*
X142341701Y-100535697D01*
X142315385Y-100581279D01*
X142304262Y-100600546D01*
X142262645Y-100672628D01*
X142245752Y-100735670D01*
X142221720Y-100825360D01*
X142221650Y-100825899D01*
X142221464Y-100826319D01*
X142219619Y-100833205D01*
X142218544Y-100832917D01*
X142193378Y-100889794D01*
X142186393Y-100897385D01*
X141256283Y-101827495D01*
X141233381Y-101850396D01*
X141172057Y-101883880D01*
X141102366Y-101878894D01*
X141072817Y-101863032D01*
X141002074Y-101811635D01*
X140937816Y-101764949D01*
X140929054Y-101760485D01*
X140878259Y-101712512D01*
X140861463Y-101644692D01*
X140883999Y-101578556D01*
X140929054Y-101539515D01*
X140937816Y-101535051D01*
X140959789Y-101519086D01*
X141109786Y-101410109D01*
X141109788Y-101410106D01*
X141109792Y-101410104D01*
X141260104Y-101259792D01*
X141260106Y-101259788D01*
X141260109Y-101259786D01*
X141385048Y-101087820D01*
X141385047Y-101087820D01*
X141385051Y-101087816D01*
X141481557Y-100898412D01*
X141547246Y-100696243D01*
X141580500Y-100486287D01*
X141580500Y-100273713D01*
X141547246Y-100063757D01*
X141481557Y-99861588D01*
X141385051Y-99672184D01*
X141385049Y-99672181D01*
X141385048Y-99672179D01*
X141260109Y-99500213D01*
X141109786Y-99349890D01*
X140937817Y-99224949D01*
X140928504Y-99220204D01*
X140877707Y-99172230D01*
X140860912Y-99104409D01*
X140883449Y-99038274D01*
X140928507Y-98999232D01*
X140937555Y-98994622D01*
X140991716Y-98955270D01*
X140991717Y-98955270D01*
X140359408Y-98322962D01*
X140422993Y-98305925D01*
X140537007Y-98240099D01*
X140630099Y-98147007D01*
X140695925Y-98032993D01*
X140712962Y-97969409D01*
X141345270Y-98601717D01*
X141345270Y-98601716D01*
X141384622Y-98547554D01*
X141481095Y-98358217D01*
X141546757Y-98156130D01*
X141546757Y-98156127D01*
X141580000Y-97946246D01*
X141580000Y-97733753D01*
X141546757Y-97523872D01*
X141546757Y-97523869D01*
X141481095Y-97321782D01*
X141384624Y-97132449D01*
X141345270Y-97078282D01*
X141345269Y-97078282D01*
X140712962Y-97710590D01*
X140695925Y-97647007D01*
X140630099Y-97532993D01*
X140537007Y-97439901D01*
X140422993Y-97374075D01*
X140359409Y-97357037D01*
X140991716Y-96724728D01*
X140937547Y-96685373D01*
X140937547Y-96685372D01*
X140928500Y-96680763D01*
X140877706Y-96632788D01*
X140860912Y-96564966D01*
X140883451Y-96498832D01*
X140928508Y-96459793D01*
X140937816Y-96455051D01*
X141026096Y-96390912D01*
X141109786Y-96330109D01*
X141109788Y-96330106D01*
X141109792Y-96330104D01*
X141260104Y-96179792D01*
X141260106Y-96179788D01*
X141260109Y-96179786D01*
X141385048Y-96007820D01*
X141385047Y-96007820D01*
X141385051Y-96007816D01*
X141481557Y-95818412D01*
X141547246Y-95616243D01*
X141580500Y-95406287D01*
X141580500Y-95193713D01*
X141547246Y-94983757D01*
X141481557Y-94781588D01*
X141385051Y-94592184D01*
X141385049Y-94592181D01*
X141385048Y-94592179D01*
X141260109Y-94420213D01*
X141109786Y-94269890D01*
X140937820Y-94144951D01*
X140937115Y-94144591D01*
X140929054Y-94140485D01*
X140878259Y-94092512D01*
X140861463Y-94024692D01*
X140883999Y-93958556D01*
X140929054Y-93919515D01*
X140937816Y-93915051D01*
X141015950Y-93858284D01*
X141109786Y-93790109D01*
X141109788Y-93790106D01*
X141109792Y-93790104D01*
X141260104Y-93639792D01*
X141260106Y-93639788D01*
X141260109Y-93639786D01*
X141385048Y-93467820D01*
X141385047Y-93467820D01*
X141385051Y-93467816D01*
X141481557Y-93278412D01*
X141547246Y-93076243D01*
X141580500Y-92866287D01*
X141580500Y-92653713D01*
X141547246Y-92443757D01*
X141481557Y-92241588D01*
X141385051Y-92052184D01*
X141385049Y-92052181D01*
X141385048Y-92052179D01*
X141260109Y-91880213D01*
X141109786Y-91729890D01*
X140937820Y-91604951D01*
X140937115Y-91604591D01*
X140929054Y-91600485D01*
X140878259Y-91552512D01*
X140861463Y-91484692D01*
X140883999Y-91418556D01*
X140929054Y-91379515D01*
X140937816Y-91375051D01*
X141013921Y-91319758D01*
X141109786Y-91250109D01*
X141109788Y-91250106D01*
X141109792Y-91250104D01*
X141260104Y-91099792D01*
X141370586Y-90947725D01*
X141425914Y-90905061D01*
X141495527Y-90899082D01*
X141557323Y-90931687D01*
G37*
%TD.AperFunction*%
%TA.AperFunction,Conductor*%
G36*
X139764075Y-98032993D02*
G01*
X139829901Y-98147007D01*
X139922993Y-98240099D01*
X140037007Y-98305925D01*
X140100590Y-98322962D01*
X139468282Y-98955269D01*
X139468282Y-98955270D01*
X139522452Y-98994626D01*
X139522451Y-98994626D01*
X139531495Y-98999234D01*
X139582292Y-99047208D01*
X139599087Y-99115029D01*
X139576550Y-99181164D01*
X139531499Y-99220202D01*
X139522182Y-99224949D01*
X139350213Y-99349890D01*
X139350209Y-99349894D01*
X139212181Y-99487923D01*
X139150858Y-99521408D01*
X139081166Y-99516424D01*
X139025233Y-99474552D01*
X139000816Y-99409088D01*
X139000500Y-99400242D01*
X139000500Y-98726869D01*
X139020185Y-98659830D01*
X139072989Y-98614075D01*
X139108677Y-98607767D01*
X139747037Y-97969408D01*
X139764075Y-98032993D01*
G37*
%TD.AperFunction*%
%TA.AperFunction,Conductor*%
G36*
X158963181Y-98559627D02*
G01*
X158996666Y-98620950D01*
X158999500Y-98647308D01*
X158999500Y-99280242D01*
X158979815Y-99347281D01*
X158927011Y-99393036D01*
X158857853Y-99402980D01*
X158794297Y-99373955D01*
X158787819Y-99367923D01*
X158769786Y-99349890D01*
X158597817Y-99224949D01*
X158588504Y-99220204D01*
X158537707Y-99172230D01*
X158520912Y-99104409D01*
X158543449Y-99038274D01*
X158588507Y-98999232D01*
X158597555Y-98994622D01*
X158651716Y-98955270D01*
X158651717Y-98955270D01*
X158019408Y-98322962D01*
X158082993Y-98305925D01*
X158197007Y-98240099D01*
X158290099Y-98147007D01*
X158355925Y-98032993D01*
X158372962Y-97969408D01*
X158963181Y-98559627D01*
G37*
%TD.AperFunction*%
%TA.AperFunction,Conductor*%
G36*
X139205703Y-96186045D02*
G01*
X139212181Y-96192077D01*
X139350213Y-96330109D01*
X139522179Y-96455048D01*
X139522181Y-96455049D01*
X139522184Y-96455051D01*
X139531493Y-96459794D01*
X139582290Y-96507766D01*
X139599087Y-96575587D01*
X139576552Y-96641722D01*
X139531505Y-96680760D01*
X139522446Y-96685376D01*
X139522440Y-96685380D01*
X139468282Y-96724727D01*
X139468282Y-96724728D01*
X140100591Y-97357037D01*
X140037007Y-97374075D01*
X139922993Y-97439901D01*
X139829901Y-97532993D01*
X139764075Y-97647007D01*
X139747037Y-97710591D01*
X139107598Y-97071152D01*
X139065851Y-97062382D01*
X139016094Y-97013331D01*
X139000500Y-96953129D01*
X139000500Y-96279758D01*
X139020185Y-96212719D01*
X139072989Y-96166964D01*
X139142147Y-96157020D01*
X139205703Y-96186045D01*
G37*
%TD.AperFunction*%
%TA.AperFunction,Conductor*%
G36*
X156749106Y-96084514D02*
G01*
X156766024Y-96085724D01*
X156780989Y-96096927D01*
X156798411Y-96103710D01*
X156820732Y-96126679D01*
X156821957Y-96127596D01*
X156823008Y-96129021D01*
X156859890Y-96179785D01*
X156859894Y-96179790D01*
X157010213Y-96330109D01*
X157182179Y-96455048D01*
X157182181Y-96455049D01*
X157182184Y-96455051D01*
X157191493Y-96459794D01*
X157242290Y-96507766D01*
X157259087Y-96575587D01*
X157236552Y-96641722D01*
X157191505Y-96680760D01*
X157182446Y-96685376D01*
X157182440Y-96685380D01*
X157128282Y-96724727D01*
X157128282Y-96724728D01*
X157760591Y-97357037D01*
X157697007Y-97374075D01*
X157582993Y-97439901D01*
X157489901Y-97532993D01*
X157424075Y-97647007D01*
X157407037Y-97710591D01*
X156774728Y-97078282D01*
X156774648Y-97078288D01*
X156719489Y-97120823D01*
X156649876Y-97126802D01*
X156588080Y-97094197D01*
X156553723Y-97033359D01*
X156550500Y-97005272D01*
X156550500Y-96250096D01*
X156570185Y-96183057D01*
X156586815Y-96162419D01*
X156635010Y-96114224D01*
X156651416Y-96105265D01*
X156664824Y-96092236D01*
X156681447Y-96088867D01*
X156696332Y-96080740D01*
X156714979Y-96082073D01*
X156733302Y-96078361D01*
X156749106Y-96084514D01*
G37*
%TD.AperFunction*%
%TA.AperFunction,Conductor*%
G36*
X158918834Y-96283576D02*
G01*
X158974767Y-96325448D01*
X158999184Y-96390912D01*
X158999500Y-96399758D01*
X158999500Y-97032692D01*
X158979815Y-97099731D01*
X158963181Y-97120373D01*
X158372962Y-97710591D01*
X158355925Y-97647007D01*
X158290099Y-97532993D01*
X158197007Y-97439901D01*
X158082993Y-97374075D01*
X158019409Y-97357037D01*
X158651716Y-96724728D01*
X158597547Y-96685373D01*
X158597547Y-96685372D01*
X158588500Y-96680763D01*
X158537706Y-96632788D01*
X158520912Y-96564966D01*
X158543451Y-96498832D01*
X158588508Y-96459793D01*
X158597816Y-96455051D01*
X158686096Y-96390912D01*
X158769786Y-96330109D01*
X158769788Y-96330106D01*
X158769792Y-96330104D01*
X158787819Y-96312077D01*
X158849142Y-96278592D01*
X158918834Y-96283576D01*
G37*
%TD.AperFunction*%
%TA.AperFunction,Conductor*%
G36*
X150768834Y-89932915D02*
G01*
X150824767Y-89974787D01*
X150849184Y-90040251D01*
X150849500Y-90049097D01*
X150849500Y-91609132D01*
X150829815Y-91676171D01*
X150777011Y-91721926D01*
X150725500Y-91733132D01*
X150646155Y-91733132D01*
X150491510Y-91763893D01*
X150491498Y-91763896D01*
X150345827Y-91824234D01*
X150345814Y-91824241D01*
X150214711Y-91911842D01*
X150214707Y-91911845D01*
X150103213Y-92023339D01*
X150103210Y-92023343D01*
X150015609Y-92154446D01*
X150015604Y-92154455D01*
X149995265Y-92203560D01*
X149951424Y-92257963D01*
X149885130Y-92280028D01*
X149817430Y-92262749D01*
X149793023Y-92243788D01*
X149303338Y-91754103D01*
X149269853Y-91692780D01*
X149274837Y-91623088D01*
X149303336Y-91578742D01*
X149371790Y-91510289D01*
X149459395Y-91379179D01*
X149519738Y-91233497D01*
X149546334Y-91099792D01*
X149550639Y-91078150D01*
X149583024Y-91016239D01*
X149584521Y-91014714D01*
X150637819Y-89961415D01*
X150699142Y-89927931D01*
X150768834Y-89932915D01*
G37*
%TD.AperFunction*%
%TA.AperFunction,Conductor*%
G36*
X143793115Y-79210185D02*
G01*
X143838870Y-79262989D01*
X143848814Y-79332147D01*
X143829178Y-79383391D01*
X143793814Y-79436315D01*
X143793807Y-79436328D01*
X143718430Y-79618306D01*
X143718427Y-79618318D01*
X143680000Y-79811504D01*
X143680000Y-79960000D01*
X144380000Y-79960000D01*
X144380000Y-80460000D01*
X143680000Y-80460000D01*
X143680000Y-80608495D01*
X143718427Y-80801681D01*
X143718430Y-80801693D01*
X143793807Y-80983671D01*
X143793814Y-80983684D01*
X143903248Y-81147462D01*
X143903251Y-81147466D01*
X144042533Y-81286748D01*
X144042537Y-81286751D01*
X144206315Y-81396185D01*
X144206328Y-81396192D01*
X144388308Y-81471569D01*
X144430000Y-81479862D01*
X144430000Y-80676988D01*
X144439940Y-80694205D01*
X144495795Y-80750060D01*
X144564204Y-80789556D01*
X144640504Y-80810000D01*
X144719496Y-80810000D01*
X144795796Y-80789556D01*
X144864205Y-80750060D01*
X144920060Y-80694205D01*
X144930000Y-80676988D01*
X144930000Y-81479862D01*
X144971690Y-81471569D01*
X144971692Y-81471569D01*
X145153671Y-81396192D01*
X145153684Y-81396185D01*
X145317462Y-81286751D01*
X145317466Y-81286748D01*
X145456748Y-81147466D01*
X145456751Y-81147462D01*
X145566185Y-80983684D01*
X145566192Y-80983671D01*
X145641569Y-80801693D01*
X145641572Y-80801681D01*
X145679999Y-80608495D01*
X145680000Y-80608492D01*
X145680000Y-80460000D01*
X144980000Y-80460000D01*
X144980000Y-79960000D01*
X145680000Y-79960000D01*
X145680000Y-79811508D01*
X145679999Y-79811504D01*
X145641572Y-79618318D01*
X145641569Y-79618306D01*
X145566192Y-79436328D01*
X145566185Y-79436315D01*
X145530822Y-79383391D01*
X145509944Y-79316714D01*
X145528428Y-79249334D01*
X145580407Y-79202643D01*
X145633924Y-79190500D01*
X152366076Y-79190500D01*
X152433115Y-79210185D01*
X152478870Y-79262989D01*
X152488814Y-79332147D01*
X152469178Y-79383391D01*
X152433814Y-79436315D01*
X152433807Y-79436328D01*
X152358430Y-79618306D01*
X152358427Y-79618318D01*
X152320000Y-79811504D01*
X152320000Y-79960000D01*
X153020000Y-79960000D01*
X153020000Y-80460000D01*
X152320000Y-80460000D01*
X152320000Y-80608495D01*
X152358427Y-80801681D01*
X152358430Y-80801693D01*
X152433807Y-80983671D01*
X152433814Y-80983684D01*
X152543248Y-81147462D01*
X152543251Y-81147466D01*
X152682533Y-81286748D01*
X152682537Y-81286751D01*
X152846315Y-81396185D01*
X152846328Y-81396192D01*
X153028308Y-81471569D01*
X153070000Y-81479862D01*
X153070000Y-80676988D01*
X153079940Y-80694205D01*
X153135795Y-80750060D01*
X153204204Y-80789556D01*
X153280504Y-80810000D01*
X153359496Y-80810000D01*
X153435796Y-80789556D01*
X153504205Y-80750060D01*
X153560060Y-80694205D01*
X153570000Y-80676988D01*
X153570000Y-81479862D01*
X153611690Y-81471569D01*
X153611692Y-81471569D01*
X153793671Y-81396192D01*
X153793684Y-81396185D01*
X153957462Y-81286751D01*
X153957466Y-81286748D01*
X154096748Y-81147466D01*
X154096751Y-81147462D01*
X154206185Y-80983684D01*
X154206192Y-80983671D01*
X154281569Y-80801693D01*
X154281572Y-80801681D01*
X154319999Y-80608495D01*
X154320000Y-80608492D01*
X154320000Y-80460000D01*
X153620000Y-80460000D01*
X153620000Y-79960000D01*
X154320000Y-79960000D01*
X154320000Y-79811508D01*
X154319999Y-79811504D01*
X154281572Y-79618318D01*
X154281569Y-79618306D01*
X154206192Y-79436328D01*
X154206185Y-79436315D01*
X154170822Y-79383391D01*
X154149944Y-79316714D01*
X154168428Y-79249334D01*
X154220407Y-79202643D01*
X154273924Y-79190500D01*
X156415500Y-79190500D01*
X156482539Y-79210185D01*
X156528294Y-79262989D01*
X156539500Y-79314500D01*
X156539500Y-80957870D01*
X156539501Y-80957876D01*
X156545908Y-81017483D01*
X156596202Y-81152328D01*
X156596206Y-81152335D01*
X156682452Y-81267544D01*
X156682455Y-81267547D01*
X156797664Y-81353793D01*
X156797671Y-81353797D01*
X156929082Y-81402810D01*
X156985016Y-81444681D01*
X157009433Y-81510145D01*
X156994582Y-81578418D01*
X156973431Y-81606673D01*
X156859889Y-81720215D01*
X156734951Y-81892179D01*
X156638444Y-82081585D01*
X156572753Y-82283760D01*
X156549265Y-82432058D01*
X156539500Y-82493713D01*
X156539500Y-82706287D01*
X156572754Y-82916243D01*
X156612717Y-83039237D01*
X156638444Y-83118414D01*
X156734951Y-83307820D01*
X156859890Y-83479786D01*
X157010213Y-83630109D01*
X157182179Y-83755048D01*
X157182181Y-83755049D01*
X157182184Y-83755051D01*
X157191493Y-83759794D01*
X157242290Y-83807766D01*
X157259087Y-83875587D01*
X157236552Y-83941722D01*
X157191505Y-83980760D01*
X157182446Y-83985376D01*
X157182440Y-83985380D01*
X157128282Y-84024727D01*
X157128282Y-84024728D01*
X157760591Y-84657037D01*
X157697007Y-84674075D01*
X157582993Y-84739901D01*
X157489901Y-84832993D01*
X157424075Y-84947007D01*
X157407037Y-85010591D01*
X156774728Y-84378282D01*
X156774727Y-84378282D01*
X156735380Y-84432439D01*
X156638904Y-84621782D01*
X156573242Y-84823869D01*
X156573242Y-84823872D01*
X156540000Y-85033753D01*
X156540000Y-85246246D01*
X156573242Y-85456127D01*
X156573242Y-85456130D01*
X156638904Y-85658217D01*
X156735375Y-85847550D01*
X156774728Y-85901716D01*
X157407037Y-85269408D01*
X157424075Y-85332993D01*
X157489901Y-85447007D01*
X157582993Y-85540099D01*
X157697007Y-85605925D01*
X157760590Y-85622962D01*
X157128282Y-86255269D01*
X157128282Y-86255270D01*
X157182452Y-86294626D01*
X157182451Y-86294626D01*
X157191495Y-86299234D01*
X157242292Y-86347208D01*
X157259087Y-86415029D01*
X157236550Y-86481164D01*
X157191499Y-86520202D01*
X157182182Y-86524949D01*
X157010213Y-86649890D01*
X156859890Y-86800213D01*
X156734951Y-86972179D01*
X156638444Y-87161585D01*
X156572753Y-87363760D01*
X156539500Y-87573713D01*
X156539500Y-87786286D01*
X156572429Y-87994195D01*
X156572754Y-87996243D01*
X156627154Y-88163669D01*
X156638444Y-88198414D01*
X156734951Y-88387820D01*
X156859890Y-88559786D01*
X157010213Y-88710109D01*
X157182182Y-88835050D01*
X157190946Y-88839516D01*
X157241742Y-88887491D01*
X157258536Y-88955312D01*
X157235998Y-89021447D01*
X157190946Y-89060484D01*
X157182182Y-89064949D01*
X157010213Y-89189890D01*
X156859890Y-89340213D01*
X156734951Y-89512179D01*
X156638444Y-89701585D01*
X156572753Y-89903760D01*
X156546594Y-90068921D01*
X156516665Y-90132056D01*
X156457353Y-90168987D01*
X156387490Y-90167989D01*
X156336440Y-90137204D01*
X154537590Y-88338355D01*
X154537588Y-88338352D01*
X154418717Y-88219481D01*
X154418709Y-88219475D01*
X154322049Y-88163669D01*
X154322047Y-88163668D01*
X154281790Y-88140425D01*
X154281789Y-88140424D01*
X154269263Y-88137067D01*
X154129057Y-88099499D01*
X153970943Y-88099499D01*
X153963347Y-88099499D01*
X153963331Y-88099500D01*
X151643627Y-88099500D01*
X151576588Y-88079815D01*
X151555946Y-88063181D01*
X151367246Y-87874481D01*
X151367245Y-87874480D01*
X151280433Y-87824360D01*
X151280433Y-87824359D01*
X151280429Y-87824358D01*
X151230314Y-87795423D01*
X151077586Y-87754499D01*
X150919472Y-87754499D01*
X150911876Y-87754499D01*
X150911860Y-87754500D01*
X150580533Y-87754500D01*
X150580529Y-87754499D01*
X150422414Y-87754499D01*
X150361223Y-87770894D01*
X150349370Y-87771735D01*
X150326371Y-87766716D01*
X150302844Y-87766156D01*
X150296964Y-87764003D01*
X150254792Y-87752702D01*
X150254792Y-87752703D01*
X150217523Y-87742717D01*
X150142987Y-87722745D01*
X150142985Y-87722745D01*
X149984872Y-87722746D01*
X146866003Y-87722746D01*
X146798964Y-87703061D01*
X146793099Y-87699050D01*
X146785213Y-87693318D01*
X146734621Y-87642726D01*
X146647809Y-87592606D01*
X146642174Y-87589352D01*
X146642172Y-87589351D01*
X146597690Y-87563669D01*
X146444962Y-87522745D01*
X146286848Y-87522745D01*
X146279252Y-87522745D01*
X146279236Y-87522746D01*
X145947904Y-87522746D01*
X145789790Y-87522746D01*
X145637062Y-87563669D01*
X145637061Y-87563669D01*
X145637059Y-87563670D01*
X145637056Y-87563671D01*
X145586943Y-87592605D01*
X145586942Y-87592606D01*
X145543536Y-87617666D01*
X145500132Y-87642725D01*
X145500129Y-87642727D01*
X145036857Y-88105999D01*
X145036855Y-88106002D01*
X145011932Y-88149170D01*
X144966546Y-88194556D01*
X144923378Y-88219479D01*
X144923375Y-88219481D01*
X144207584Y-88935273D01*
X144146261Y-88968758D01*
X144076569Y-88963774D01*
X144020636Y-88921902D01*
X143996219Y-88856438D01*
X143995903Y-88847592D01*
X143995903Y-85917579D01*
X144015588Y-85850540D01*
X144068392Y-85804785D01*
X144137550Y-85794841D01*
X144188796Y-85814479D01*
X144206312Y-85826183D01*
X144206328Y-85826192D01*
X144388308Y-85901569D01*
X144430000Y-85909862D01*
X144430000Y-85106988D01*
X144439940Y-85124205D01*
X144495795Y-85180060D01*
X144564204Y-85219556D01*
X144640504Y-85240000D01*
X144719496Y-85240000D01*
X144795796Y-85219556D01*
X144864205Y-85180060D01*
X144920060Y-85124205D01*
X144930000Y-85106988D01*
X144930000Y-85909862D01*
X144971690Y-85901569D01*
X144971692Y-85901569D01*
X145153671Y-85826192D01*
X145153684Y-85826185D01*
X145317462Y-85716751D01*
X145317466Y-85716748D01*
X145456748Y-85577466D01*
X145456751Y-85577462D01*
X145566185Y-85413684D01*
X145566192Y-85413671D01*
X145641569Y-85231693D01*
X145641572Y-85231681D01*
X145679999Y-85038495D01*
X145680000Y-85038492D01*
X145680000Y-84640000D01*
X144980000Y-84640000D01*
X144980000Y-84140000D01*
X145535536Y-84140000D01*
X145602575Y-84159685D01*
X145642923Y-84202000D01*
X145649482Y-84213361D01*
X145649484Y-84213364D01*
X145649485Y-84213365D01*
X145756635Y-84320515D01*
X145887865Y-84396281D01*
X146034234Y-84435500D01*
X146034236Y-84435500D01*
X146185764Y-84435500D01*
X146185766Y-84435500D01*
X146332135Y-84396281D01*
X146463365Y-84320515D01*
X146570515Y-84213365D01*
X146646281Y-84082135D01*
X146685500Y-83935766D01*
X146685500Y-83784234D01*
X151314500Y-83784234D01*
X151314500Y-83935765D01*
X151353719Y-84082136D01*
X151391602Y-84147750D01*
X151429485Y-84213365D01*
X151536635Y-84320515D01*
X151667865Y-84396281D01*
X151814234Y-84435500D01*
X151814236Y-84435500D01*
X151965764Y-84435500D01*
X151965766Y-84435500D01*
X152112135Y-84396281D01*
X152243365Y-84320515D01*
X152350515Y-84213365D01*
X152357077Y-84202000D01*
X152407644Y-84153784D01*
X152464464Y-84140000D01*
X153020000Y-84140000D01*
X153020000Y-84640000D01*
X152320000Y-84640000D01*
X152320000Y-85038495D01*
X152358427Y-85231681D01*
X152358430Y-85231693D01*
X152433807Y-85413671D01*
X152433814Y-85413684D01*
X152543248Y-85577462D01*
X152543251Y-85577466D01*
X152682533Y-85716748D01*
X152682537Y-85716751D01*
X152846315Y-85826185D01*
X152846328Y-85826192D01*
X153028308Y-85901569D01*
X153070000Y-85909862D01*
X153070000Y-85106988D01*
X153079940Y-85124205D01*
X153135795Y-85180060D01*
X153204204Y-85219556D01*
X153280504Y-85240000D01*
X153359496Y-85240000D01*
X153435796Y-85219556D01*
X153504205Y-85180060D01*
X153560060Y-85124205D01*
X153570000Y-85106988D01*
X153570000Y-85909862D01*
X153611690Y-85901569D01*
X153611692Y-85901569D01*
X153793671Y-85826192D01*
X153793684Y-85826185D01*
X153957462Y-85716751D01*
X153957466Y-85716748D01*
X154096748Y-85577466D01*
X154096751Y-85577462D01*
X154206185Y-85413684D01*
X154206192Y-85413671D01*
X154281569Y-85231693D01*
X154281572Y-85231681D01*
X154319999Y-85038495D01*
X154320000Y-85038492D01*
X154320000Y-84640000D01*
X153620000Y-84640000D01*
X153620000Y-84140000D01*
X154320000Y-84140000D01*
X154320000Y-83741508D01*
X154319999Y-83741504D01*
X154281572Y-83548318D01*
X154281569Y-83548306D01*
X154206192Y-83366328D01*
X154206185Y-83366315D01*
X154096751Y-83202537D01*
X154096748Y-83202533D01*
X153957466Y-83063251D01*
X153957462Y-83063248D01*
X153793684Y-82953814D01*
X153793671Y-82953807D01*
X153611691Y-82878429D01*
X153611683Y-82878427D01*
X153570000Y-82870135D01*
X153570000Y-83673011D01*
X153560060Y-83655795D01*
X153504205Y-83599940D01*
X153435796Y-83560444D01*
X153359496Y-83540000D01*
X153280504Y-83540000D01*
X153204204Y-83560444D01*
X153135795Y-83599940D01*
X153079940Y-83655795D01*
X153070000Y-83673011D01*
X153070000Y-82870136D01*
X153069999Y-82870135D01*
X153028316Y-82878427D01*
X153028308Y-82878429D01*
X152846328Y-82953807D01*
X152846315Y-82953814D01*
X152682537Y-83063248D01*
X152682533Y-83063251D01*
X152543248Y-83202536D01*
X152430427Y-83371387D01*
X152429003Y-83370435D01*
X152385742Y-83414451D01*
X152317600Y-83429892D01*
X152251927Y-83406041D01*
X152249907Y-83404306D01*
X152249811Y-83404432D01*
X152243367Y-83399487D01*
X152243365Y-83399485D01*
X152177750Y-83361602D01*
X152112136Y-83323719D01*
X152038950Y-83304109D01*
X151965766Y-83284500D01*
X151814234Y-83284500D01*
X151667863Y-83323719D01*
X151536635Y-83399485D01*
X151536632Y-83399487D01*
X151429487Y-83506632D01*
X151429485Y-83506635D01*
X151353719Y-83637863D01*
X151314500Y-83784234D01*
X146685500Y-83784234D01*
X146646281Y-83637865D01*
X146570515Y-83506635D01*
X146463365Y-83399485D01*
X146397750Y-83361602D01*
X146332136Y-83323719D01*
X146258950Y-83304109D01*
X146185766Y-83284500D01*
X146034234Y-83284500D01*
X145887863Y-83323719D01*
X145756635Y-83399485D01*
X145750189Y-83404432D01*
X145748099Y-83401709D01*
X145700217Y-83427466D01*
X145630558Y-83422043D01*
X145574888Y-83379821D01*
X145569299Y-83370976D01*
X145456751Y-83202537D01*
X145456748Y-83202533D01*
X145317466Y-83063251D01*
X145317462Y-83063248D01*
X145153684Y-82953814D01*
X145153671Y-82953807D01*
X144971691Y-82878429D01*
X144971683Y-82878427D01*
X144930000Y-82870135D01*
X144930000Y-83673011D01*
X144920060Y-83655795D01*
X144864205Y-83599940D01*
X144795796Y-83560444D01*
X144719496Y-83540000D01*
X144640504Y-83540000D01*
X144564204Y-83560444D01*
X144495795Y-83599940D01*
X144480501Y-83615234D01*
X144480501Y-83570944D01*
X144480501Y-83570943D01*
X144439577Y-83418216D01*
X144439575Y-83418213D01*
X144439574Y-83418208D01*
X144439438Y-83417879D01*
X144439299Y-83417181D01*
X144437473Y-83410366D01*
X144437919Y-83410246D01*
X144430000Y-83370430D01*
X144430000Y-82870136D01*
X144429999Y-82870135D01*
X144388316Y-82878427D01*
X144388308Y-82878429D01*
X144206323Y-82953809D01*
X144206320Y-82953811D01*
X144187064Y-82966678D01*
X144120387Y-82987556D01*
X144053007Y-82969071D01*
X144030493Y-82951257D01*
X141616818Y-80537582D01*
X141602114Y-80510654D01*
X141585522Y-80484836D01*
X141584630Y-80478635D01*
X141583333Y-80476259D01*
X141580499Y-80449901D01*
X141580499Y-79314500D01*
X141600184Y-79247461D01*
X141652988Y-79201706D01*
X141704499Y-79190500D01*
X143726076Y-79190500D01*
X143793115Y-79210185D01*
G37*
%TD.AperFunction*%
%TA.AperFunction,Conductor*%
G36*
X141785203Y-84944884D02*
G01*
X141791681Y-84950916D01*
X142358584Y-85517819D01*
X142392069Y-85579142D01*
X142394903Y-85605500D01*
X142394903Y-88636306D01*
X142375218Y-88703345D01*
X142322414Y-88749100D01*
X142253256Y-88759044D01*
X142189700Y-88730019D01*
X142183222Y-88723987D01*
X141578472Y-88119237D01*
X141544987Y-88057914D01*
X141547820Y-88001389D01*
X141546109Y-88000979D01*
X141547246Y-87996241D01*
X141547247Y-87996239D01*
X141580500Y-87786287D01*
X141580500Y-87573713D01*
X141547246Y-87363757D01*
X141481557Y-87161588D01*
X141385051Y-86972184D01*
X141385049Y-86972181D01*
X141385048Y-86972179D01*
X141260109Y-86800213D01*
X141109786Y-86649890D01*
X140937817Y-86524949D01*
X140928504Y-86520204D01*
X140877707Y-86472230D01*
X140860912Y-86404409D01*
X140883449Y-86338274D01*
X140928507Y-86299232D01*
X140937555Y-86294622D01*
X140991716Y-86255270D01*
X140991717Y-86255270D01*
X140359408Y-85622962D01*
X140422993Y-85605925D01*
X140537007Y-85540099D01*
X140630099Y-85447007D01*
X140695925Y-85332993D01*
X140712962Y-85269408D01*
X141345270Y-85901717D01*
X141345270Y-85901716D01*
X141384622Y-85847554D01*
X141481095Y-85658217D01*
X141546757Y-85456130D01*
X141546757Y-85456127D01*
X141580000Y-85246246D01*
X141580000Y-85038597D01*
X141599685Y-84971558D01*
X141652489Y-84925803D01*
X141721647Y-84915859D01*
X141785203Y-84944884D01*
G37*
%TD.AperFunction*%
%TA.AperFunction,Conductor*%
G36*
X139764075Y-85332993D02*
G01*
X139829901Y-85447007D01*
X139922993Y-85540099D01*
X140037007Y-85605925D01*
X140100590Y-85622962D01*
X139468282Y-86255269D01*
X139468282Y-86255270D01*
X139522452Y-86294626D01*
X139522451Y-86294626D01*
X139531495Y-86299234D01*
X139582292Y-86347208D01*
X139599087Y-86415029D01*
X139576550Y-86481164D01*
X139531499Y-86520202D01*
X139522182Y-86524949D01*
X139350213Y-86649890D01*
X139350209Y-86649894D01*
X139212181Y-86787923D01*
X139150858Y-86821408D01*
X139081166Y-86816424D01*
X139025233Y-86774552D01*
X139000816Y-86709088D01*
X139000500Y-86700242D01*
X139000500Y-86026869D01*
X139020185Y-85959830D01*
X139072989Y-85914075D01*
X139108677Y-85907767D01*
X139747037Y-85269408D01*
X139764075Y-85332993D01*
G37*
%TD.AperFunction*%
%TA.AperFunction,Conductor*%
G36*
X158963181Y-85859627D02*
G01*
X158996666Y-85920950D01*
X158999500Y-85947308D01*
X158999500Y-86580242D01*
X158979815Y-86647281D01*
X158927011Y-86693036D01*
X158857853Y-86702980D01*
X158794297Y-86673955D01*
X158787819Y-86667923D01*
X158769786Y-86649890D01*
X158597817Y-86524949D01*
X158588504Y-86520204D01*
X158537707Y-86472230D01*
X158520912Y-86404409D01*
X158543449Y-86338274D01*
X158588507Y-86299232D01*
X158597555Y-86294622D01*
X158651716Y-86255270D01*
X158651717Y-86255270D01*
X158019408Y-85622962D01*
X158082993Y-85605925D01*
X158197007Y-85540099D01*
X158290099Y-85447007D01*
X158355925Y-85332993D01*
X158372962Y-85269408D01*
X158963181Y-85859627D01*
G37*
%TD.AperFunction*%
%TA.AperFunction,Conductor*%
G36*
X139205703Y-83486045D02*
G01*
X139212181Y-83492077D01*
X139350213Y-83630109D01*
X139522179Y-83755048D01*
X139522181Y-83755049D01*
X139522184Y-83755051D01*
X139531493Y-83759794D01*
X139582290Y-83807766D01*
X139599087Y-83875587D01*
X139576552Y-83941722D01*
X139531505Y-83980760D01*
X139522446Y-83985376D01*
X139522440Y-83985380D01*
X139468282Y-84024727D01*
X139468282Y-84024728D01*
X140100591Y-84657037D01*
X140037007Y-84674075D01*
X139922993Y-84739901D01*
X139829901Y-84832993D01*
X139764075Y-84947007D01*
X139747037Y-85010591D01*
X139107598Y-84371152D01*
X139065851Y-84362382D01*
X139016094Y-84313331D01*
X139000500Y-84253129D01*
X139000500Y-83579758D01*
X139020185Y-83512719D01*
X139072989Y-83466964D01*
X139142147Y-83457020D01*
X139205703Y-83486045D01*
G37*
%TD.AperFunction*%
%TA.AperFunction,Conductor*%
G36*
X158918834Y-83583576D02*
G01*
X158974767Y-83625448D01*
X158999184Y-83690912D01*
X158999500Y-83699758D01*
X158999500Y-84332692D01*
X158979815Y-84399731D01*
X158963181Y-84420373D01*
X158372962Y-85010591D01*
X158355925Y-84947007D01*
X158290099Y-84832993D01*
X158197007Y-84739901D01*
X158082993Y-84674075D01*
X158019409Y-84657037D01*
X158651716Y-84024728D01*
X158597547Y-83985373D01*
X158597547Y-83985372D01*
X158588500Y-83980763D01*
X158537706Y-83932788D01*
X158520912Y-83864966D01*
X158543451Y-83798832D01*
X158588508Y-83759793D01*
X158597816Y-83755051D01*
X158686096Y-83690912D01*
X158769786Y-83630109D01*
X158769788Y-83630106D01*
X158769792Y-83630104D01*
X158787819Y-83612077D01*
X158849142Y-83578592D01*
X158918834Y-83583576D01*
G37*
%TD.AperFunction*%
%TD*%
M02*
