%TF.GenerationSoftware,KiCad,Pcbnew,10.0.3*%
%TF.CreationDate,2026-06-27T21:16:08+05:30*%
%TF.ProjectId,boardstorm_x3,626f6172-6473-4746-9f72-6d5f78332e6b,rev?*%
%TF.SameCoordinates,Original*%
%TF.FileFunction,Copper,L1,Top*%
%TF.FilePolarity,Positive*%
%FSLAX46Y46*%
G04 Gerber Fmt 4.6, Leading zero omitted, Abs format (unit mm)*
G04 Created by KiCad (PCBNEW 10.0.3) date 2026-06-27 21:16:08*
%MOMM*%
%LPD*%
G01*
G04 APERTURE LIST*
G04 Aperture macros list*
%AMRoundRect*
0 Rectangle with rounded corners*
0 $1 Rounding radius*
0 $2 $3 $4 $5 $6 $7 $8 $9 X,Y pos of 4 corners*
0 Add a 4 corners polygon primitive as box body*
4,1,4,$2,$3,$4,$5,$6,$7,$8,$9,$2,$3,0*
0 Add four circle primitives for the rounded corners*
1,1,$1+$1,$2,$3*
1,1,$1+$1,$4,$5*
1,1,$1+$1,$6,$7*
1,1,$1+$1,$8,$9*
0 Add four rect primitives between the rounded corners*
20,1,$1+$1,$2,$3,$4,$5,0*
20,1,$1+$1,$4,$5,$6,$7,0*
20,1,$1+$1,$6,$7,$8,$9,0*
20,1,$1+$1,$8,$9,$2,$3,0*%
G04 Aperture macros list end*
%TA.AperFunction,SMDPad,CuDef*%
%ADD10RoundRect,0.135000X0.185000X-0.135000X0.185000X0.135000X-0.185000X0.135000X-0.185000X-0.135000X0*%
%TD*%
%TA.AperFunction,SMDPad,CuDef*%
%ADD11RoundRect,0.135000X0.135000X0.185000X-0.135000X0.185000X-0.135000X-0.185000X0.135000X-0.185000X0*%
%TD*%
%TA.AperFunction,SMDPad,CuDef*%
%ADD12RoundRect,0.135000X-0.135000X-0.185000X0.135000X-0.185000X0.135000X0.185000X-0.135000X0.185000X0*%
%TD*%
%TA.AperFunction,SMDPad,CuDef*%
%ADD13RoundRect,0.225000X-0.335876X-0.017678X-0.017678X-0.335876X0.335876X0.017678X0.017678X0.335876X0*%
%TD*%
%TA.AperFunction,SMDPad,CuDef*%
%ADD14RoundRect,0.140000X-0.140000X-0.170000X0.140000X-0.170000X0.140000X0.170000X-0.140000X0.170000X0*%
%TD*%
%TA.AperFunction,SMDPad,CuDef*%
%ADD15RoundRect,0.135000X-0.185000X0.135000X-0.185000X-0.135000X0.185000X-0.135000X0.185000X0.135000X0*%
%TD*%
%TA.AperFunction,SMDPad,CuDef*%
%ADD16RoundRect,0.140000X0.170000X-0.140000X0.170000X0.140000X-0.170000X0.140000X-0.170000X-0.140000X0*%
%TD*%
%TA.AperFunction,ComponentPad*%
%ADD17RoundRect,0.250000X-0.350000X-0.625000X0.350000X-0.625000X0.350000X0.625000X-0.350000X0.625000X0*%
%TD*%
%TA.AperFunction,ComponentPad*%
%ADD18O,1.200000X1.750000*%
%TD*%
%TA.AperFunction,SMDPad,CuDef*%
%ADD19RoundRect,0.140000X-0.170000X0.140000X-0.170000X-0.140000X0.170000X-0.140000X0.170000X0.140000X0*%
%TD*%
%TA.AperFunction,SMDPad,CuDef*%
%ADD20RoundRect,0.140000X0.140000X0.170000X-0.140000X0.170000X-0.140000X-0.170000X0.140000X-0.170000X0*%
%TD*%
%TA.AperFunction,SMDPad,CuDef*%
%ADD21RoundRect,0.150000X0.150000X-0.587500X0.150000X0.587500X-0.150000X0.587500X-0.150000X-0.587500X0*%
%TD*%
%TA.AperFunction,SMDPad,CuDef*%
%ADD22RoundRect,0.062500X-0.387500X-0.062500X0.387500X-0.062500X0.387500X0.062500X-0.387500X0.062500X0*%
%TD*%
%TA.AperFunction,HeatsinkPad*%
%ADD23R,0.200000X1.600000*%
%TD*%
%TA.AperFunction,SMDPad,CuDef*%
%ADD24RoundRect,0.140000X0.021213X-0.219203X0.219203X-0.021213X-0.021213X0.219203X-0.219203X0.021213X0*%
%TD*%
%TA.AperFunction,SMDPad,CuDef*%
%ADD25RoundRect,0.200000X0.200000X0.800000X-0.200000X0.800000X-0.200000X-0.800000X0.200000X-0.800000X0*%
%TD*%
%TA.AperFunction,SMDPad,CuDef*%
%ADD26RoundRect,0.062500X0.375000X0.062500X-0.375000X0.062500X-0.375000X-0.062500X0.375000X-0.062500X0*%
%TD*%
%TA.AperFunction,SMDPad,CuDef*%
%ADD27RoundRect,0.062500X0.062500X0.375000X-0.062500X0.375000X-0.062500X-0.375000X0.062500X-0.375000X0*%
%TD*%
%TA.AperFunction,HeatsinkPad*%
%ADD28R,1.600000X1.600000*%
%TD*%
%TA.AperFunction,SMDPad,CuDef*%
%ADD29RoundRect,0.050000X-0.387500X-0.050000X0.387500X-0.050000X0.387500X0.050000X-0.387500X0.050000X0*%
%TD*%
%TA.AperFunction,SMDPad,CuDef*%
%ADD30RoundRect,0.050000X-0.050000X-0.387500X0.050000X-0.387500X0.050000X0.387500X-0.050000X0.387500X0*%
%TD*%
%TA.AperFunction,HeatsinkPad*%
%ADD31R,3.200000X3.200000*%
%TD*%
%TA.AperFunction,SMDPad,CuDef*%
%ADD32RoundRect,0.225000X0.225000X0.250000X-0.225000X0.250000X-0.225000X-0.250000X0.225000X-0.250000X0*%
%TD*%
%TA.AperFunction,SMDPad,CuDef*%
%ADD33RoundRect,0.225000X-0.250000X0.225000X-0.250000X-0.225000X0.250000X-0.225000X0.250000X0.225000X0*%
%TD*%
%TA.AperFunction,SMDPad,CuDef*%
%ADD34RoundRect,0.250000X0.450000X0.350000X-0.450000X0.350000X-0.450000X-0.350000X0.450000X-0.350000X0*%
%TD*%
%TA.AperFunction,SMDPad,CuDef*%
%ADD35R,0.254800X0.706399*%
%TD*%
%TA.AperFunction,SMDPad,CuDef*%
%ADD36R,1.295400X0.889000*%
%TD*%
%TA.AperFunction,SMDPad,CuDef*%
%ADD37RoundRect,0.147500X0.172500X-0.147500X0.172500X0.147500X-0.172500X0.147500X-0.172500X-0.147500X0*%
%TD*%
%TA.AperFunction,SMDPad,CuDef*%
%ADD38RoundRect,0.150000X0.150000X0.575000X-0.150000X0.575000X-0.150000X-0.575000X0.150000X-0.575000X0*%
%TD*%
%TA.AperFunction,SMDPad,CuDef*%
%ADD39RoundRect,0.075000X0.075000X0.650000X-0.075000X0.650000X-0.075000X-0.650000X0.075000X-0.650000X0*%
%TD*%
%TA.AperFunction,ComponentPad*%
%ADD40O,1.000000X2.100000*%
%TD*%
%TA.AperFunction,ComponentPad*%
%ADD41O,1.000000X1.600000*%
%TD*%
%TA.AperFunction,SMDPad,CuDef*%
%ADD42R,0.508000X0.774700*%
%TD*%
%TA.AperFunction,ComponentPad*%
%ADD43R,1.700000X1.700000*%
%TD*%
%TA.AperFunction,ComponentPad*%
%ADD44C,1.700000*%
%TD*%
%TA.AperFunction,ViaPad*%
%ADD45C,0.600000*%
%TD*%
%TA.AperFunction,Conductor*%
%ADD46C,0.200000*%
%TD*%
G04 APERTURE END LIST*
D10*
%TO.P,R10,1*%
%TO.N,GND*%
X153075000Y-97345000D03*
%TO.P,R10,2*%
%TO.N,Net-(U4-TMR)*%
X153075000Y-96325000D03*
%TD*%
D11*
%TO.P,R9,1*%
%TO.N,Net-(U4-ISET)*%
X153835000Y-93750000D03*
%TO.P,R9,2*%
%TO.N,GND*%
X152815000Y-93750000D03*
%TD*%
D12*
%TO.P,R14,1*%
%TO.N,Net-(D1-K)*%
X153315000Y-100075000D03*
%TO.P,R14,2*%
%TO.N,+3V3*%
X154335000Y-100075000D03*
%TD*%
D13*
%TO.P,C18,1*%
%TO.N,VSYS*%
X150901992Y-94126992D03*
%TO.P,C18,2*%
%TO.N,GND*%
X151998008Y-95223008D03*
%TD*%
D12*
%TO.P,R7,1*%
%TO.N,QSPI_SS*%
X143980000Y-98775000D03*
%TO.P,R7,2*%
%TO.N,+3V3*%
X145000000Y-98775000D03*
%TD*%
D14*
%TO.P,C10,1*%
%TO.N,+1V1*%
X151970000Y-112975000D03*
%TO.P,C10,2*%
%TO.N,GND*%
X152930000Y-112975000D03*
%TD*%
D15*
%TO.P,R6,1*%
%TO.N,Net-(R6-Pad1)*%
X143225000Y-96365000D03*
%TO.P,R6,2*%
%TO.N,QSPI_SS*%
X143225000Y-97385000D03*
%TD*%
D16*
%TO.P,C16,1*%
%TO.N,GND*%
X151007500Y-115852500D03*
%TO.P,C16,2*%
%TO.N,Net-(C16-Pad2)*%
X151007500Y-114892500D03*
%TD*%
D14*
%TO.P,C8,1*%
%TO.N,+3V3*%
X153840000Y-103900000D03*
%TO.P,C8,2*%
%TO.N,GND*%
X154800000Y-103900000D03*
%TD*%
D17*
%TO.P,J5,1,Pin_1_1*%
%TO.N,BAT+*%
X148250000Y-122875000D03*
D18*
%TO.P,J5,2,Pin_2_2*%
%TO.N,GND*%
X150250000Y-122875000D03*
%TD*%
D12*
%TO.P,R13,1*%
%TO.N,+3V3*%
X148440000Y-118825000D03*
%TO.P,R13,2*%
%TO.N,GPIO5*%
X149460000Y-118825000D03*
%TD*%
D11*
%TO.P,R5,1*%
%TO.N,Net-(C16-Pad2)*%
X149817500Y-113372500D03*
%TO.P,R5,2*%
%TO.N,XOUT*%
X148797500Y-113372500D03*
%TD*%
D19*
%TO.P,C2,1*%
%TO.N,+3V3*%
X151007500Y-112967500D03*
%TO.P,C2,2*%
%TO.N,GND*%
X151007500Y-113927500D03*
%TD*%
D15*
%TO.P,R8,1*%
%TO.N,Net-(U4-TS)*%
X154925000Y-92730000D03*
%TO.P,R8,2*%
%TO.N,GND*%
X154925000Y-93750000D03*
%TD*%
%TO.P,R12,1*%
%TO.N,+3V3*%
X147325000Y-119090000D03*
%TO.P,R12,2*%
%TO.N,GPIO4*%
X147325000Y-120110000D03*
%TD*%
D20*
%TO.P,C4,1*%
%TO.N,+3V3*%
X144680000Y-103625000D03*
%TO.P,C4,2*%
%TO.N,GND*%
X143720000Y-103625000D03*
%TD*%
D21*
%TO.P,U2,1,GND_1*%
%TO.N,GND*%
X143300000Y-91212500D03*
%TO.P,U2,2,VO_2*%
%TO.N,+3V3*%
X145200000Y-91212500D03*
%TO.P,U2,3,VI_3*%
%TO.N,VSYS*%
X144250000Y-89337500D03*
%TD*%
D22*
%TO.P,U3,1,~{CS}_1*%
%TO.N,QSPI_SS*%
X144275000Y-100025000D03*
%TO.P,U3,2,DO/IO_{1}_2*%
%TO.N,QSPI_SD1*%
X144275000Y-100525000D03*
%TO.P,U3,3,~{WP}/IO_{2}_3*%
%TO.N,QSPI_SD2*%
X144275000Y-101025000D03*
%TO.P,U3,4,GND_4*%
%TO.N,GND*%
X144275000Y-101525000D03*
%TO.P,U3,5,DI/IO_{0}_5*%
%TO.N,QSPI_SD0*%
X147125000Y-101525000D03*
%TO.P,U3,6,CLK_6*%
%TO.N,QSPI_SCLK*%
X147125000Y-101025000D03*
%TO.P,U3,7,~{HOLD}/~{RESET}/IO_{3}_7*%
%TO.N,QSPI_SD3*%
X147125000Y-100525000D03*
%TO.P,U3,8,VCC_8*%
%TO.N,+3V3*%
X147125000Y-100025000D03*
D23*
%TO.P,U3,9*%
%TO.N,N/C*%
X145700000Y-100775000D03*
%TD*%
D24*
%TO.P,C1,1*%
%TO.N,+3V3*%
X154135589Y-102314411D03*
%TO.P,C1,2*%
%TO.N,GND*%
X154814411Y-101635589D03*
%TD*%
D25*
%TO.P,SW1,1,1_1*%
%TO.N,GND*%
X148625000Y-96150000D03*
%TO.P,SW1,2,2_2*%
%TO.N,Net-(R6-Pad1)*%
X144425000Y-96150000D03*
%TD*%
D26*
%TO.P,U4,1,TS_1*%
%TO.N,Net-(U4-TS)*%
X154012500Y-91812500D03*
%TO.P,U4,2,BAT_2*%
%TO.N,BAT+*%
X154012500Y-91312500D03*
%TO.P,U4,3,BAT_3*%
X154012500Y-90812500D03*
%TO.P,U4,4,~{CE}_4*%
%TO.N,GND*%
X154012500Y-90312500D03*
D27*
%TO.P,U4,5,EN2_5*%
%TO.N,VBUS*%
X153325000Y-89625000D03*
%TO.P,U4,6,EN1_6*%
%TO.N,GND*%
X152825000Y-89625000D03*
%TO.P,U4,7,~{PGOOD}_7*%
%TO.N,unconnected-(U4-~{PGOOD}-Pad7)*%
X152325000Y-89625000D03*
%TO.P,U4,8,VSS_8*%
%TO.N,GND*%
X151825000Y-89625000D03*
D26*
%TO.P,U4,9,~{CHG}_9*%
%TO.N,unconnected-(U4-~{CHG}-Pad9)*%
X151137500Y-90312500D03*
%TO.P,U4,10,OUT_10*%
%TO.N,VSYS*%
X151137500Y-90812500D03*
%TO.P,U4,11,OUT_11*%
X151137500Y-91312500D03*
%TO.P,U4,12,ILIM_12*%
%TO.N,Net-(U4-ILIM)*%
X151137500Y-91812500D03*
D27*
%TO.P,U4,13,IN_13*%
%TO.N,VBUS*%
X151825000Y-92500000D03*
%TO.P,U4,14,TMR_14*%
%TO.N,Net-(U4-TMR)*%
X152325000Y-92500000D03*
%TO.P,U4,15,SYSOFF_15*%
%TO.N,GND*%
X152825000Y-92500000D03*
%TO.P,U4,16,ISET_16*%
%TO.N,Net-(U4-ISET)*%
X153325000Y-92500000D03*
D28*
%TO.P,U4,17,VSS_17*%
%TO.N,GND*%
X152575000Y-91062500D03*
%TD*%
D16*
%TO.P,C5,1*%
%TO.N,+3V3*%
X152950000Y-103155000D03*
%TO.P,C5,2*%
%TO.N,GND*%
X152950000Y-102195000D03*
%TD*%
%TO.P,C6,1*%
%TO.N,+3V3*%
X149775000Y-100050000D03*
%TO.P,C6,2*%
%TO.N,GND*%
X149775000Y-99090000D03*
%TD*%
D14*
%TO.P,C9,1*%
%TO.N,+3V3*%
X154645000Y-108975000D03*
%TO.P,C9,2*%
%TO.N,GND*%
X155605000Y-108975000D03*
%TD*%
D19*
%TO.P,C15,1*%
%TO.N,GND*%
X145457500Y-115422500D03*
%TO.P,C15,2*%
%TO.N,XIN*%
X145457500Y-116382500D03*
%TD*%
D29*
%TO.P,U1,1,IOVDD_1*%
%TO.N,+3V3*%
X145562500Y-104800000D03*
%TO.P,U1,2,GPIO0_2*%
%TO.N,GPIO0*%
X145562500Y-105200000D03*
%TO.P,U1,3,GPIO1_3*%
%TO.N,GPIO1*%
X145562500Y-105600000D03*
%TO.P,U1,4,GPIO2_4*%
%TO.N,GPIO2*%
X145562500Y-106000000D03*
%TO.P,U1,5,GPIO3_5*%
%TO.N,GPIO3*%
X145562500Y-106400000D03*
%TO.P,U1,6,GPIO4_6*%
%TO.N,GPIO4*%
X145562500Y-106800000D03*
%TO.P,U1,7,GPIO5_7*%
%TO.N,GPIO5*%
X145562500Y-107200000D03*
%TO.P,U1,8,GPIO6_8*%
%TO.N,GPIO6*%
X145562500Y-107600000D03*
%TO.P,U1,9,GPIO7_9*%
%TO.N,GPIO7*%
X145562500Y-108000000D03*
%TO.P,U1,10,IOVDD_10*%
%TO.N,+3V3*%
X145562500Y-108400000D03*
%TO.P,U1,11,GPIO8_11*%
%TO.N,GPIO8*%
X145562500Y-108800000D03*
%TO.P,U1,12,GPIO9_12*%
%TO.N,GPIO9*%
X145562500Y-109200000D03*
%TO.P,U1,13,GPIO10_13*%
%TO.N,GPIO10*%
X145562500Y-109600000D03*
%TO.P,U1,14,GPIO11_14*%
%TO.N,GPIO11*%
X145562500Y-110000000D03*
D30*
%TO.P,U1,15,GPIO12_15*%
%TO.N,GPIO12*%
X146400000Y-110837500D03*
%TO.P,U1,16,GPIO13_16*%
%TO.N,GPIO13*%
X146800000Y-110837500D03*
%TO.P,U1,17,GPIO14_17*%
%TO.N,GPIO14*%
X147200000Y-110837500D03*
%TO.P,U1,18,GPIO15_18*%
%TO.N,GPIO15*%
X147600000Y-110837500D03*
%TO.P,U1,19,TESTEN_19*%
%TO.N,GND*%
X148000000Y-110837500D03*
%TO.P,U1,20,XIN_20*%
%TO.N,XIN*%
X148400000Y-110837500D03*
%TO.P,U1,21,XOUT_21*%
%TO.N,XOUT*%
X148800000Y-110837500D03*
%TO.P,U1,22,IOVDD_22*%
%TO.N,+3V3*%
X149200000Y-110837500D03*
%TO.P,U1,23,DVDD_23*%
%TO.N,+1V1*%
X149600000Y-110837500D03*
%TO.P,U1,24,SWCLK_24*%
%TO.N,SWCLK*%
X150000000Y-110837500D03*
%TO.P,U1,25,SWDIO_25*%
%TO.N,SWDIO*%
X150400000Y-110837500D03*
%TO.P,U1,26,RUN_26*%
%TO.N,RUN*%
X150800000Y-110837500D03*
%TO.P,U1,27,GPIO16_27*%
%TO.N,GPIO16*%
X151200000Y-110837500D03*
%TO.P,U1,28,GPIO17_28*%
%TO.N,GPIO17*%
X151600000Y-110837500D03*
D29*
%TO.P,U1,29,GPIO18_29*%
%TO.N,GPIO18*%
X152437500Y-110000000D03*
%TO.P,U1,30,GPIO19_30*%
%TO.N,GPIO19*%
X152437500Y-109600000D03*
%TO.P,U1,31,GPIO20_31*%
%TO.N,GPIO20*%
X152437500Y-109200000D03*
%TO.P,U1,32,GPIO21_32*%
%TO.N,GPIO21*%
X152437500Y-108800000D03*
%TO.P,U1,33,IOVDD_33*%
%TO.N,+3V3*%
X152437500Y-108400000D03*
%TO.P,U1,34,GPIO22_34*%
%TO.N,GPIO22*%
X152437500Y-108000000D03*
%TO.P,U1,35,GPIO23_35*%
%TO.N,GPIO23*%
X152437500Y-107600000D03*
%TO.P,U1,36,GPIO24_36*%
%TO.N,GPIO24*%
X152437500Y-107200000D03*
%TO.P,U1,37,GPIO25_37*%
%TO.N,unconnected-(U1-GPIO25-Pad37)*%
X152437500Y-106800000D03*
%TO.P,U1,38,GPIO26/ADC0_38*%
%TO.N,GPIO26{slash}ADC0*%
X152437500Y-106400000D03*
%TO.P,U1,39,GPIO27/ADC1_39*%
%TO.N,GPIO27{slash}ADC1*%
X152437500Y-106000000D03*
%TO.P,U1,40,GPIO28/ADC2_40*%
%TO.N,GPIO28{slash}ADC2*%
X152437500Y-105600000D03*
%TO.P,U1,41,GPIO29/ADC3_41*%
%TO.N,GPIO29{slash}ADC3*%
X152437500Y-105200000D03*
%TO.P,U1,42,IOVDD_42*%
%TO.N,+3V3*%
X152437500Y-104800000D03*
D30*
%TO.P,U1,43,ADC_AVDD_43*%
X151600000Y-103962500D03*
%TO.P,U1,44,VREG_VIN_44*%
X151200000Y-103962500D03*
%TO.P,U1,45,VREG_VOUT_45*%
%TO.N,+1V1*%
X150800000Y-103962500D03*
%TO.P,U1,46,USB_DM_46*%
%TO.N,Net-(U1-USB_DM)*%
X150400000Y-103962500D03*
%TO.P,U1,47,USB_DP_47*%
%TO.N,Net-(U1-USB_DP)*%
X150000000Y-103962500D03*
%TO.P,U1,48,USB_VDD_48*%
%TO.N,+3V3*%
X149600000Y-103962500D03*
%TO.P,U1,49,IOVDD_49*%
X149200000Y-103962500D03*
%TO.P,U1,50,DVDD_50*%
%TO.N,+1V1*%
X148800000Y-103962500D03*
%TO.P,U1,51,QSPI_SD3_51*%
%TO.N,QSPI_SD3*%
X148400000Y-103962500D03*
%TO.P,U1,52,QSPI_SCLK_52*%
%TO.N,QSPI_SCLK*%
X148000000Y-103962500D03*
%TO.P,U1,53,QSPI_SD0_53*%
%TO.N,QSPI_SD0*%
X147600000Y-103962500D03*
%TO.P,U1,54,QSPI_SD2_54*%
%TO.N,QSPI_SD2*%
X147200000Y-103962500D03*
%TO.P,U1,55,QSPI_SD1_55*%
%TO.N,QSPI_SD1*%
X146800000Y-103962500D03*
%TO.P,U1,56,~{QSPI_SS}_56*%
%TO.N,QSPI_SS*%
X146400000Y-103962500D03*
D31*
%TO.P,U1,57,GND_57*%
%TO.N,GND*%
X149000000Y-107400000D03*
%TD*%
D32*
%TO.P,C13,1*%
%TO.N,VBUS*%
X145975000Y-87500000D03*
%TO.P,C13,2*%
%TO.N,GND*%
X144425000Y-87500000D03*
%TD*%
D33*
%TO.P,C14,1*%
%TO.N,BAT+*%
X154715000Y-95600000D03*
%TO.P,C14,2*%
%TO.N,GND*%
X154715000Y-97150000D03*
%TD*%
D16*
%TO.P,C7,1*%
%TO.N,+3V3*%
X150200000Y-97730000D03*
%TO.P,C7,2*%
%TO.N,GND*%
X150200000Y-96770000D03*
%TD*%
D15*
%TO.P,R1,1*%
%TO.N,Net-(J1-CC1)*%
X150825000Y-87165000D03*
%TO.P,R1,2*%
%TO.N,GND*%
X150825000Y-88185000D03*
%TD*%
D34*
%TO.P,Y1,1,1_1*%
%TO.N,Net-(C16-Pad2)*%
X149282500Y-114767500D03*
%TO.P,Y1,2,G_2*%
%TO.N,GND*%
X147082500Y-114767500D03*
%TO.P,Y1,3,3_3*%
%TO.N,XIN*%
X147082500Y-116467500D03*
%TO.P,Y1,4,G_4*%
%TO.N,GND*%
X149282500Y-116467500D03*
%TD*%
D15*
%TO.P,R2,1*%
%TO.N,Net-(J1-CC2)*%
X147250000Y-87165000D03*
%TO.P,R2,2*%
%TO.N,GND*%
X147250000Y-88185000D03*
%TD*%
D35*
%TO.P,U5,1,CTG_1*%
%TO.N,GND*%
X152650001Y-117409100D03*
%TO.P,U5,2,CELL_2*%
%TO.N,BAT+*%
X152150000Y-117409100D03*
%TO.P,U5,3,VDD_3*%
X151650000Y-117409100D03*
%TO.P,U5,4,GND_4*%
%TO.N,GND*%
X151149999Y-117409100D03*
%TO.P,U5,5,~{ALERT}_5*%
%TO.N,unconnected-(U5-~{ALERT}-Pad5)*%
X151149999Y-119410900D03*
%TO.P,U5,6,QSTRT_6*%
%TO.N,GND*%
X151650000Y-119410900D03*
%TO.P,U5,7,SCL_7*%
%TO.N,GPIO5*%
X152150000Y-119410900D03*
%TO.P,U5,8,SDA_8*%
%TO.N,GPIO4*%
X152650001Y-119410900D03*
D36*
%TO.P,U5,9,EP_9*%
%TO.N,GND*%
X151900000Y-118410000D03*
%TD*%
D20*
%TO.P,C17,1*%
%TO.N,+3V3*%
X147025000Y-98815000D03*
%TO.P,C17,2*%
%TO.N,GND*%
X146065000Y-98815000D03*
%TD*%
D10*
%TO.P,R4,1*%
%TO.N,Net-(U1-USB_DP)*%
X149700000Y-102510000D03*
%TO.P,R4,2*%
%TO.N,USB_D+*%
X149700000Y-101490000D03*
%TD*%
D37*
%TO.P,D1,1,K_1*%
%TO.N,Net-(D1-K)*%
X152025000Y-100310000D03*
%TO.P,D1,2,A_2*%
%TO.N,GND*%
X152025000Y-99340000D03*
%TD*%
D20*
%TO.P,C20,1*%
%TO.N,BAT+*%
X154180000Y-88100000D03*
%TO.P,C20,2*%
%TO.N,GND*%
X153220000Y-88100000D03*
%TD*%
D16*
%TO.P,C12,1*%
%TO.N,+1V1*%
X148775000Y-100050000D03*
%TO.P,C12,2*%
%TO.N,GND*%
X148775000Y-99090000D03*
%TD*%
D11*
%TO.P,R11,1*%
%TO.N,Net-(U4-ILIM)*%
X154260000Y-98775000D03*
%TO.P,R11,2*%
%TO.N,GND*%
X153240000Y-98775000D03*
%TD*%
D16*
%TO.P,C11,1*%
%TO.N,+1V1*%
X151700000Y-102655000D03*
%TO.P,C11,2*%
%TO.N,GND*%
X151700000Y-101695000D03*
%TD*%
D10*
%TO.P,R3,1*%
%TO.N,Net-(U1-USB_DM)*%
X150700000Y-102510000D03*
%TO.P,R3,2*%
%TO.N,USB_D-*%
X150700000Y-101490000D03*
%TD*%
D38*
%TO.P,J1,A1,GND_A1*%
%TO.N,GND*%
X152250000Y-85305000D03*
%TO.P,J1,A4,VBUS_A4*%
%TO.N,VBUS*%
X151450000Y-85305000D03*
D39*
%TO.P,J1,A5,CC1_A5*%
%TO.N,Net-(J1-CC1)*%
X150250000Y-85305000D03*
%TO.P,J1,A6,D+_A6*%
%TO.N,USB_D+*%
X149250000Y-85305000D03*
%TO.P,J1,A7,D-_A7*%
%TO.N,USB_D-*%
X148750000Y-85305000D03*
%TO.P,J1,A8*%
%TO.N,N/C*%
X147750000Y-85305000D03*
D38*
%TO.P,J1,A9,VBUS_A9*%
%TO.N,VBUS*%
X146550000Y-85305000D03*
%TO.P,J1,A12,GND_A12*%
%TO.N,GND*%
X145750000Y-85305000D03*
%TO.P,J1,B1,GND_B1*%
X145750000Y-85305000D03*
%TO.P,J1,B4,VBUS_B4*%
%TO.N,VBUS*%
X146550000Y-85305000D03*
D39*
%TO.P,J1,B5,CC2_B5*%
%TO.N,Net-(J1-CC2)*%
X147250000Y-85305000D03*
%TO.P,J1,B6,D+_B6*%
%TO.N,USB_D+*%
X148250000Y-85305000D03*
%TO.P,J1,B7,D-_B7*%
%TO.N,USB_D-*%
X149750000Y-85305000D03*
%TO.P,J1,B8*%
%TO.N,N/C*%
X150750000Y-85305000D03*
D38*
%TO.P,J1,B9,VBUS_B9*%
%TO.N,VBUS*%
X151450000Y-85305000D03*
%TO.P,J1,B12,GND_B12*%
%TO.N,GND*%
X152250000Y-85305000D03*
D40*
%TO.P,J1,SH,SHIELD_SH*%
X153320000Y-84390000D03*
D41*
X153320000Y-80210000D03*
D40*
X144680000Y-84390000D03*
D41*
X144680000Y-80210000D03*
%TD*%
D42*
%TO.P,U6,1,I/O1_1*%
%TO.N,USB_D+*%
X147449999Y-92552300D03*
%TO.P,U6,2,GND_2*%
%TO.N,GND*%
X148400000Y-92552300D03*
%TO.P,U6,3,I/O2_3*%
%TO.N,USB_D-*%
X149350001Y-92552300D03*
%TO.P,U6,4,I/O2_4*%
X149350001Y-90025000D03*
%TO.P,U6,5,VBUS_5*%
%TO.N,VBUS*%
X148400000Y-90025000D03*
%TO.P,U6,6,I/O1_6*%
%TO.N,USB_D+*%
X147449999Y-90025000D03*
%TD*%
D32*
%TO.P,C19,1*%
%TO.N,+3V3*%
X145050000Y-93050000D03*
%TO.P,C19,2*%
%TO.N,GND*%
X143500000Y-93050000D03*
%TD*%
D20*
%TO.P,C3,1*%
%TO.N,+3V3*%
X143755000Y-108400000D03*
%TO.P,C3,2*%
%TO.N,GND*%
X142795000Y-108400000D03*
%TD*%
D43*
%TO.P,J4,1,Pin_1_1*%
%TO.N,SWCLK*%
X146460000Y-128080000D03*
D44*
%TO.P,J4,2,Pin_2_2*%
%TO.N,GND*%
X149000000Y-128080000D03*
%TO.P,J4,3,Pin_3_3*%
%TO.N,SWDIO*%
X151540000Y-128080000D03*
%TD*%
D43*
%TO.P,J3,1,Pin_1_1*%
%TO.N,VBUS*%
X157890000Y-80060000D03*
D44*
%TO.P,J3,2,Pin_2_2*%
%TO.N,GPIO29{slash}ADC3*%
X157890000Y-82600000D03*
%TO.P,J3,3,Pin_3_3*%
%TO.N,GND*%
X157890000Y-85140000D03*
%TO.P,J3,4,Pin_4_4*%
%TO.N,GPIO28{slash}ADC2*%
X157890000Y-87680000D03*
%TO.P,J3,5,Pin_5_5*%
%TO.N,+3V3*%
X157890000Y-90220000D03*
%TO.P,J3,6,Pin_6_6*%
%TO.N,GPIO27{slash}ADC1*%
X157890000Y-92760000D03*
%TO.P,J3,7,Pin_7_7*%
%TO.N,GPIO26{slash}ADC0*%
X157890000Y-95300000D03*
%TO.P,J3,8,Pin_8_8*%
%TO.N,GND*%
X157890000Y-97840000D03*
%TO.P,J3,9,Pin_9_9*%
%TO.N,GPIO24*%
X157890000Y-100380000D03*
%TO.P,J3,10,Pin_10_10*%
%TO.N,GPIO23*%
X157890000Y-102920000D03*
%TO.P,J3,11,Pin_11_11*%
%TO.N,RUN*%
X157890000Y-105460000D03*
%TO.P,J3,12,Pin_12_12*%
%TO.N,GPIO22*%
X157890000Y-108000000D03*
%TO.P,J3,13,Pin_13_13*%
%TO.N,GND*%
X157890000Y-110540000D03*
%TO.P,J3,14,Pin_14_14*%
%TO.N,GPIO21*%
X157890000Y-113080000D03*
%TO.P,J3,15,Pin_15_15*%
%TO.N,GPIO20*%
X157890000Y-115620000D03*
%TO.P,J3,16,Pin_16_16*%
%TO.N,GPIO19*%
X157890000Y-118160000D03*
%TO.P,J3,17,Pin_17_17*%
%TO.N,GPIO18*%
X157890000Y-120700000D03*
%TO.P,J3,18,Pin_18_18*%
%TO.N,GND*%
X157890000Y-123240000D03*
%TO.P,J3,19,Pin_19_19*%
%TO.N,GPIO17*%
X157890000Y-125780000D03*
%TO.P,J3,20,Pin_20_20*%
%TO.N,GPIO16*%
X157890000Y-128320000D03*
%TD*%
D43*
%TO.P,J2,1,Pin_1_1*%
%TO.N,GPIO0*%
X140230000Y-80060000D03*
D44*
%TO.P,J2,2,Pin_2_2*%
%TO.N,GPIO1*%
X140230000Y-82600000D03*
%TO.P,J2,3,Pin_3_3*%
%TO.N,GND*%
X140230000Y-85140000D03*
%TO.P,J2,4,Pin_4_4*%
%TO.N,GPIO2*%
X140230000Y-87680000D03*
%TO.P,J2,5,Pin_5_5*%
%TO.N,GPIO3*%
X140230000Y-90220000D03*
%TO.P,J2,6,Pin_6_6*%
%TO.N,GPIO4*%
X140230000Y-92760000D03*
%TO.P,J2,7,Pin_7_7*%
%TO.N,GPIO5*%
X140230000Y-95300000D03*
%TO.P,J2,8,Pin_8_8*%
%TO.N,GND*%
X140230000Y-97840000D03*
%TO.P,J2,9,Pin_9_9*%
%TO.N,GPIO6*%
X140230000Y-100380000D03*
%TO.P,J2,10,Pin_10_10*%
%TO.N,GPIO7*%
X140230000Y-102920000D03*
%TO.P,J2,11,Pin_11_11*%
%TO.N,GPIO8*%
X140230000Y-105460000D03*
%TO.P,J2,12,Pin_12_12*%
%TO.N,GPIO9*%
X140230000Y-108000000D03*
%TO.P,J2,13,Pin_13_13*%
%TO.N,GND*%
X140230000Y-110540000D03*
%TO.P,J2,14,Pin_14_14*%
%TO.N,GPIO10*%
X140230000Y-113080000D03*
%TO.P,J2,15,Pin_15_15*%
%TO.N,GPIO11*%
X140230000Y-115620000D03*
%TO.P,J2,16,Pin_16_16*%
%TO.N,GPIO12*%
X140230000Y-118160000D03*
%TO.P,J2,17,Pin_17_17*%
%TO.N,GPIO13*%
X140230000Y-120700000D03*
%TO.P,J2,18,Pin_18_18*%
%TO.N,GND*%
X140230000Y-123240000D03*
%TO.P,J2,19,Pin_19_19*%
%TO.N,GPIO14*%
X140230000Y-125780000D03*
%TO.P,J2,20,Pin_20_20*%
%TO.N,GPIO15*%
X140230000Y-128320000D03*
%TD*%
D45*
%TO.N,GND*%
X154447157Y-117800000D03*
X147804999Y-99000012D03*
X142300000Y-122200000D03*
X157300000Y-96550000D03*
X149900000Y-96200000D03*
X148500000Y-87700000D03*
X147800000Y-112351258D03*
X151644777Y-87001802D03*
X154300000Y-113300000D03*
X154930148Y-102050073D03*
X146244691Y-99689718D03*
X153240000Y-98775000D03*
X154100000Y-122900000D03*
X153300000Y-86700000D03*
X156400000Y-109700000D03*
X153535589Y-101562939D03*
X151644777Y-87001802D03*
X141800000Y-108500000D03*
X144622221Y-101650000D03*
X148203998Y-92352527D03*
X142312550Y-99087450D03*
X143720000Y-103625000D03*
X151900000Y-118410000D03*
X151998008Y-95223008D03*
X150795094Y-117474896D03*
X142300000Y-93200000D03*
X149775000Y-99090000D03*
X148300000Y-117450000D03*
X150200292Y-90398237D03*
X153300000Y-86700000D03*
X144800000Y-114200000D03*
X152106743Y-97248546D03*
X149050000Y-108700000D03*
X149600000Y-117800000D03*
X151603365Y-101232420D03*
X143425000Y-103053600D03*
X151998008Y-95223008D03*
%TO.N,+3V3*%
X144395403Y-90575000D03*
X149243931Y-104900000D03*
X149400000Y-100730436D03*
X156557843Y-91500000D03*
X149400000Y-103269566D03*
X147183393Y-104900000D03*
X154957843Y-98289990D03*
%TO.N,VSYS*%
X146250000Y-90600000D03*
X149950001Y-93544042D03*
%TO.N,+1V1*%
X150039756Y-104981643D03*
X153450000Y-114225000D03*
%TO.N,BAT+*%
X152300000Y-115300000D03*
X154233731Y-95012077D03*
X154957843Y-91150000D03*
%TO.N,GPIO5*%
X146650000Y-117700000D03*
X146548180Y-107651820D03*
%TO.N,GPIO4*%
X145108292Y-118100000D03*
X146770350Y-106856108D03*
%TO.N,VBUS*%
X151540136Y-92567026D03*
X150750000Y-88955000D03*
X146117376Y-88723246D03*
X148750001Y-91000000D03*
%TO.N,Net-(U4-ILIM)*%
X150725000Y-92533632D03*
X153700000Y-98000000D03*
%TO.N,GPIO0*%
X143800000Y-104677195D03*
%TO.N,GPIO1*%
X143180000Y-105277195D03*
%TO.N,GPIO2*%
X143682108Y-105900000D03*
%TO.N,GPIO3*%
X146536036Y-106091189D03*
%TO.N,GPIO8*%
X146482587Y-109410901D03*
%TO.N,SWCLK*%
X150356066Y-109900000D03*
%TO.N,SWDIO*%
X150450000Y-111725000D03*
%TO.N,RUN*%
X151500000Y-109243759D03*
%TO.N,GPIO24*%
X154450003Y-106600000D03*
%TO.N,GPIO26{slash}ADC0*%
X151505104Y-105425000D03*
%TD*%
%TO.N,GND*%
D46*
X149600000Y-117800000D02*
X149250000Y-117450000D01*
X151007500Y-115852500D02*
X151007500Y-117266601D01*
X145457500Y-115422500D02*
X145457500Y-114947500D01*
X146244691Y-98994691D02*
X146065000Y-98815000D01*
X148685012Y-99000012D02*
X148775000Y-99090000D01*
X151650000Y-118660000D02*
X151650000Y-119410900D01*
X151032500Y-115852500D02*
X151032500Y-116247500D01*
X151032500Y-116247500D02*
X150812500Y-116467500D01*
X151149999Y-117989698D02*
X151570301Y-118410000D01*
X154930148Y-102050073D02*
X154930148Y-103769852D01*
X151570301Y-118410000D02*
X151900000Y-118410000D01*
X152025000Y-99340000D02*
X152675000Y-99340000D01*
X151085000Y-88185000D02*
X151145000Y-88125000D01*
X151850000Y-90101886D02*
X151850000Y-89650000D01*
X152229699Y-118410000D02*
X151900000Y-118410000D01*
X154447157Y-117800000D02*
X154350000Y-117800000D01*
X143425000Y-103330000D02*
X143720000Y-103625000D01*
X149600000Y-117800000D02*
X150210000Y-118410000D01*
X150825000Y-88185000D02*
X151644777Y-87365223D01*
X145457500Y-114947500D02*
X145637500Y-114767500D01*
X148400000Y-92548529D02*
X148203998Y-92352527D01*
X154050000Y-120178170D02*
X151353170Y-122875000D01*
X150200000Y-96770000D02*
X149245000Y-96770000D01*
X149245000Y-96770000D02*
X148625000Y-96150000D01*
X153165000Y-84390000D02*
X152250000Y-85305000D01*
X154930148Y-103769852D02*
X154800000Y-103900000D01*
X150700000Y-89625000D02*
X151825000Y-89625000D01*
X152825000Y-92500000D02*
X152825000Y-91312500D01*
X147250000Y-88439151D02*
X146365905Y-89323246D01*
X153075000Y-97345000D02*
X154520000Y-97345000D01*
X152650001Y-117409100D02*
X152650001Y-117989698D01*
X156400000Y-109700000D02*
X157050000Y-109700000D01*
X153048529Y-112975000D02*
X154050000Y-113976471D01*
X150860890Y-117409100D02*
X150795094Y-117474896D01*
X153975000Y-112975000D02*
X154300000Y-113300000D01*
X145868847Y-89323246D02*
X144425000Y-87879399D01*
X150825000Y-88185000D02*
X151085000Y-88185000D01*
X151850000Y-89650000D02*
X151825000Y-89625000D01*
X150150000Y-89203529D02*
X150571471Y-89625000D01*
X144497221Y-101525000D02*
X144622221Y-101650000D01*
X144425000Y-87879399D02*
X144425000Y-87500000D01*
X152675000Y-99340000D02*
X153240000Y-98775000D01*
X143425000Y-103053600D02*
X143425000Y-103330000D01*
X150250000Y-126830000D02*
X150250000Y-122875000D01*
X140230000Y-97840000D02*
X141477450Y-99087450D01*
X150812500Y-116467500D02*
X149282500Y-116467500D01*
X144275000Y-101525000D02*
X144497221Y-101525000D01*
X148000000Y-110837500D02*
X148000000Y-112151258D01*
X150275000Y-122900000D02*
X154100000Y-122900000D01*
X153300000Y-86700000D02*
X153300000Y-88020000D01*
X150150000Y-88706471D02*
X150150000Y-89203529D01*
X151617500Y-114537500D02*
X151617500Y-115242500D01*
X151353170Y-122875000D02*
X150250000Y-122875000D01*
X152825000Y-92500000D02*
X152825000Y-93740000D01*
X152978546Y-97248546D02*
X153075000Y-97345000D01*
X149250000Y-117450000D02*
X148300000Y-117450000D01*
X152825000Y-90076886D02*
X153110614Y-90362500D01*
X152950000Y-102195000D02*
X152950000Y-102148528D01*
X147804999Y-99000012D02*
X148685012Y-99000012D01*
X153300000Y-88020000D02*
X153220000Y-88100000D01*
X145637500Y-114767500D02*
X147082500Y-114767500D01*
X152930000Y-112975000D02*
X153975000Y-112975000D01*
X152950000Y-102148528D02*
X153535589Y-101562939D01*
X150210000Y-118410000D02*
X151900000Y-118410000D01*
X156400000Y-109700000D02*
X156330000Y-109700000D01*
X152950000Y-102195000D02*
X152200000Y-102195000D01*
X156330000Y-109700000D02*
X155605000Y-108975000D01*
X152815000Y-93750000D02*
X153477077Y-94412077D01*
X150200000Y-96500000D02*
X149900000Y-96200000D01*
X148400000Y-92552300D02*
X148400000Y-92548529D01*
X152130341Y-85930341D02*
X152130341Y-85424659D01*
X153320000Y-84390000D02*
X153165000Y-84390000D01*
X147250000Y-88185000D02*
X148015000Y-88185000D01*
X152825000Y-91312500D02*
X152575000Y-91062500D01*
X157050000Y-109700000D02*
X157890000Y-110540000D01*
X153962500Y-90362500D02*
X154012500Y-90312500D01*
X145200000Y-86725000D02*
X145500000Y-86725000D01*
X151149999Y-117409100D02*
X150860890Y-117409100D01*
X141270000Y-122200000D02*
X142300000Y-122200000D01*
X149282500Y-117482500D02*
X149600000Y-117800000D01*
X143350000Y-93200000D02*
X143500000Y-93050000D01*
X152825000Y-90076886D02*
X152539386Y-90362500D01*
X154520000Y-97345000D02*
X154715000Y-97150000D01*
X142795000Y-108400000D02*
X141900000Y-108400000D01*
X152539386Y-90362500D02*
X152110614Y-90362500D01*
X141477450Y-99087450D02*
X142312550Y-99087450D01*
X151007500Y-117266601D02*
X151149999Y-117409100D01*
X149282500Y-116467500D02*
X149282500Y-117482500D01*
X152110614Y-90362500D02*
X151850000Y-90101886D01*
X152106743Y-97248546D02*
X152978546Y-97248546D01*
X151644777Y-87365223D02*
X151644777Y-87001802D01*
X151617500Y-115242500D02*
X151007500Y-115852500D01*
X150825000Y-88185000D02*
X150671471Y-88185000D01*
X145750000Y-86475000D02*
X145750000Y-85305000D01*
X154262923Y-94412077D02*
X154925000Y-93750000D01*
X151149999Y-117409100D02*
X151149999Y-117989698D01*
X152825000Y-90812500D02*
X152575000Y-91062500D01*
X150200000Y-96770000D02*
X150200000Y-96500000D01*
X151700000Y-101329055D02*
X151603365Y-101232420D01*
X147250000Y-88185000D02*
X147250000Y-88439151D01*
X153110614Y-90362500D02*
X153962500Y-90362500D01*
X142300000Y-93200000D02*
X143350000Y-93200000D01*
X153320000Y-84390000D02*
X153320000Y-86680000D01*
X153477077Y-94412077D02*
X154262923Y-94412077D01*
X146777500Y-115072500D02*
X147082500Y-114767500D01*
X152825000Y-89625000D02*
X152825000Y-90812500D01*
X148000000Y-112151258D02*
X147800000Y-112351258D01*
X157890000Y-97840000D02*
X157890000Y-97140000D01*
X145457500Y-114947500D02*
X145457500Y-114857500D01*
X152930000Y-112975000D02*
X153048529Y-112975000D01*
X157890000Y-97140000D02*
X157300000Y-96550000D01*
X153320000Y-86680000D02*
X153300000Y-86700000D01*
X152130341Y-85424659D02*
X152250000Y-85305000D01*
X144425000Y-87500000D02*
X145200000Y-86725000D01*
X150200292Y-90398237D02*
X150200292Y-90124708D01*
X151900000Y-118410000D02*
X151650000Y-118660000D01*
X150250000Y-122875000D02*
X150275000Y-122900000D01*
X152825000Y-93740000D02*
X152815000Y-93750000D01*
X146365905Y-89323246D02*
X145868847Y-89323246D01*
X150200292Y-90124708D02*
X150700000Y-89625000D01*
X149000000Y-128080000D02*
X150250000Y-126830000D01*
X151700000Y-101695000D02*
X151700000Y-101329055D01*
X149050000Y-107450000D02*
X149000000Y-107400000D01*
X153300000Y-86700000D02*
X152900000Y-86700000D01*
X154050000Y-113976471D02*
X154050000Y-117500000D01*
X151998008Y-95223008D02*
X151998008Y-95102383D01*
X141900000Y-108400000D02*
X141800000Y-108500000D01*
X152650001Y-117989698D02*
X152229699Y-118410000D01*
X152825000Y-89625000D02*
X152825000Y-90076886D01*
X148015000Y-88185000D02*
X148500000Y-87700000D01*
X152200000Y-102195000D02*
X151700000Y-101695000D01*
X150671471Y-88185000D02*
X150150000Y-88706471D01*
X154050000Y-117500000D02*
X154050000Y-120178170D01*
X145500000Y-86725000D02*
X145750000Y-86475000D01*
X145457500Y-114857500D02*
X144800000Y-114200000D01*
X154350000Y-117800000D02*
X154050000Y-117500000D01*
X150571471Y-89625000D02*
X150700000Y-89625000D01*
X151007500Y-113927500D02*
X151617500Y-114537500D01*
X146244691Y-99689718D02*
X146244691Y-98994691D01*
X152900000Y-86700000D02*
X152130341Y-85930341D01*
X149050000Y-108700000D02*
X149050000Y-107450000D01*
X140230000Y-123240000D02*
X141270000Y-122200000D01*
%TO.N,Net-(U4-TMR)*%
X152225000Y-94098924D02*
X152225000Y-93051886D01*
X153710919Y-95306471D02*
X152774448Y-94370000D01*
X153189448Y-96325000D02*
X153710919Y-95803529D01*
X152496076Y-94370000D02*
X152225000Y-94098924D01*
X152225000Y-93051886D02*
X152325000Y-92951886D01*
X153075000Y-96325000D02*
X153189448Y-96325000D01*
X153710919Y-95803529D02*
X153710919Y-95306471D01*
X152325000Y-92951886D02*
X152325000Y-92500000D01*
X152774448Y-94370000D02*
X152496076Y-94370000D01*
%TO.N,Net-(U4-ISET)*%
X153325000Y-92500000D02*
X153325000Y-93321076D01*
X153325000Y-93321076D02*
X153753924Y-93750000D01*
X153753924Y-93750000D02*
X153835000Y-93750000D01*
%TO.N,Net-(D1-K)*%
X153080000Y-100310000D02*
X153315000Y-100075000D01*
X152025000Y-100310000D02*
X153080000Y-100310000D01*
%TO.N,+3V3*%
X149243931Y-104543931D02*
X149200000Y-104500000D01*
X147025000Y-98300000D02*
X146900000Y-98175000D01*
X154335000Y-100075000D02*
X154135589Y-100274411D01*
X146848602Y-104900000D02*
X146748602Y-104800000D01*
X149465256Y-121700000D02*
X149150000Y-122015256D01*
X153960589Y-103779411D02*
X153840000Y-103900000D01*
X147220215Y-109300000D02*
X147082587Y-109162372D01*
X149200000Y-112500000D02*
X149200000Y-110837500D01*
X146538599Y-108400000D02*
X145562500Y-108400000D01*
X149775000Y-100050000D02*
X149775000Y-100355436D01*
X145050000Y-91362500D02*
X145200000Y-91212500D01*
X151600000Y-103962500D02*
X152037500Y-103962500D01*
X147590000Y-118825000D02*
X147325000Y-119090000D01*
X144562500Y-90575000D02*
X145200000Y-91212500D01*
X150950000Y-108400000D02*
X150900000Y-108350000D01*
X153140000Y-103200000D02*
X153840000Y-103900000D01*
X153485000Y-120177485D02*
X151962485Y-121700000D01*
X151200000Y-104881575D02*
X150900000Y-105181575D01*
X147125000Y-98915000D02*
X147025000Y-98815000D01*
X144859763Y-117500000D02*
X145356821Y-117500000D01*
X147025000Y-98815000D02*
X147025000Y-99925000D01*
X150792500Y-112752500D02*
X149452500Y-112752500D01*
X149243931Y-104900000D02*
X149243931Y-104543931D01*
X149200000Y-110303640D02*
X148585680Y-109689320D01*
X149200000Y-104500000D02*
X149200000Y-103962500D01*
X147025000Y-98815000D02*
X147025000Y-98300000D01*
X150900000Y-109175000D02*
X150900000Y-108350000D01*
X148585680Y-109689320D02*
X148196360Y-109300000D01*
X153840000Y-102610000D02*
X154135589Y-102314411D01*
X148440000Y-118825000D02*
X147590000Y-118825000D01*
X147082587Y-109162372D02*
X147082587Y-108943988D01*
X149600000Y-103469566D02*
X149400000Y-103269566D01*
X149452500Y-112752500D02*
X149200000Y-112500000D01*
X143755000Y-108400000D02*
X145562500Y-108400000D01*
X149150000Y-123734744D02*
X148834744Y-124050000D01*
X149600000Y-103962500D02*
X149600000Y-103469566D01*
X150900000Y-105181575D02*
X150900000Y-108350000D01*
X144508292Y-117851471D02*
X144859763Y-117500000D01*
X149200000Y-103469566D02*
X149400000Y-103269566D01*
X146075000Y-97475000D02*
X145375000Y-98175000D01*
X145050000Y-93050000D02*
X146075000Y-94075000D01*
X148196360Y-109300000D02*
X150775000Y-109300000D01*
X151007500Y-112967500D02*
X153485000Y-115445000D01*
X148834744Y-124050000D02*
X147665256Y-124050000D01*
X145075000Y-103625000D02*
X145562500Y-104112500D01*
X153840000Y-103900000D02*
X153840000Y-102610000D01*
X150775000Y-109300000D02*
X150900000Y-109175000D01*
X154135589Y-100274411D02*
X154135589Y-102314411D01*
X144508292Y-120893036D02*
X144508292Y-117851471D01*
X146075000Y-94075000D02*
X146075000Y-97475000D01*
X145100000Y-98175000D02*
X145000000Y-98275000D01*
X152037500Y-103962500D02*
X152800000Y-103200000D01*
X151200000Y-103962500D02*
X151200000Y-104881575D01*
X149200000Y-103962500D02*
X149200000Y-103469566D01*
X144530000Y-103625000D02*
X145075000Y-103625000D01*
X151962485Y-121700000D02*
X149465256Y-121700000D01*
X149775000Y-100355436D02*
X149400000Y-100730436D01*
X148196360Y-109300000D02*
X147220215Y-109300000D01*
X149200000Y-110837500D02*
X149200000Y-110303640D01*
X157890000Y-90410000D02*
X157890000Y-90220000D01*
X154335000Y-100075000D02*
X154957843Y-99452157D01*
X146900000Y-98175000D02*
X145375000Y-98175000D01*
X152437500Y-108400000D02*
X150950000Y-108400000D01*
X147082587Y-108943988D02*
X146538599Y-108400000D01*
X145000000Y-98275000D02*
X145000000Y-98775000D01*
X145375000Y-98175000D02*
X145100000Y-98175000D01*
X145050000Y-93050000D02*
X145050000Y-91362500D01*
X151281575Y-104800000D02*
X150900000Y-105181575D01*
X156557843Y-91500000D02*
X156800000Y-91500000D01*
X147183393Y-104900000D02*
X146848602Y-104900000D01*
X154957843Y-99452157D02*
X154957843Y-98289990D01*
X144395403Y-90575000D02*
X144562500Y-90575000D01*
X146946821Y-119090000D02*
X147325000Y-119090000D01*
X147025000Y-98815000D02*
X148110000Y-97730000D01*
X147665256Y-124050000D02*
X144508292Y-120893036D01*
X152800000Y-103200000D02*
X153140000Y-103200000D01*
X148110000Y-97730000D02*
X150200000Y-97730000D01*
X152437500Y-104800000D02*
X151281575Y-104800000D01*
X151600000Y-103962500D02*
X151200000Y-103962500D01*
X145562500Y-104112500D02*
X145562500Y-104800000D01*
X154070000Y-108400000D02*
X154645000Y-108975000D01*
X147025000Y-99925000D02*
X147125000Y-100025000D01*
X156800000Y-91500000D02*
X157890000Y-90410000D01*
X153485000Y-115445000D02*
X153485000Y-120177485D01*
X151200000Y-104496360D02*
X151200000Y-103962500D01*
X154000000Y-108400000D02*
X152437500Y-108400000D01*
X154000000Y-108400000D02*
X154070000Y-108400000D01*
X145356821Y-117500000D02*
X146946821Y-119090000D01*
X150395000Y-97925000D02*
X150200000Y-97730000D01*
X146748602Y-104800000D02*
X145562500Y-104800000D01*
X149150000Y-122015256D02*
X149150000Y-123734744D01*
X149775000Y-100050000D02*
X150395000Y-99430000D01*
X150395000Y-99430000D02*
X150395000Y-97925000D01*
X151007500Y-112967500D02*
X150792500Y-112752500D01*
%TO.N,VSYS*%
X149950001Y-93349999D02*
X149950001Y-93544042D01*
X150685614Y-91312500D02*
X150400000Y-91598114D01*
X146250000Y-90600000D02*
X145525000Y-89875000D01*
X149904001Y-91795999D02*
X149904001Y-92804001D01*
X144787500Y-89875000D02*
X144250000Y-89337500D01*
X150901992Y-93285624D02*
X150901992Y-94126992D01*
X145525000Y-89875000D02*
X144787500Y-89875000D01*
X150321419Y-92978581D02*
X150476471Y-93133632D01*
X151137500Y-90812500D02*
X151137500Y-91312500D01*
X150476471Y-93133632D02*
X150750000Y-93133632D01*
X150750000Y-93133632D02*
X150901992Y-93285624D01*
X150101886Y-91598114D02*
X149904001Y-91795999D01*
X151137500Y-91312500D02*
X150685614Y-91312500D01*
X150078581Y-92978581D02*
X150321419Y-92978581D01*
X150400000Y-91598114D02*
X150101886Y-91598114D01*
X149904001Y-92804001D02*
X150078581Y-92978581D01*
X150321419Y-92978581D02*
X149950001Y-93349999D01*
%TO.N,QSPI_SS*%
X146225000Y-102825000D02*
X146225000Y-102775000D01*
X143125000Y-101905072D02*
X143994928Y-102775000D01*
X146400000Y-103000000D02*
X146400000Y-103962500D01*
X143980000Y-99789928D02*
X143672464Y-100097464D01*
X143980000Y-98775000D02*
X143980000Y-99789928D01*
X143125000Y-100644929D02*
X143125000Y-101905072D01*
X143994928Y-102775000D02*
X146225000Y-102775000D01*
X143225000Y-97385000D02*
X143225000Y-98020000D01*
X143225000Y-98020000D02*
X143980000Y-98775000D01*
X146400000Y-103000000D02*
X146225000Y-102825000D01*
X143672464Y-100097464D02*
X143125000Y-100644929D01*
X144275000Y-100025000D02*
X143744929Y-100025000D01*
X143744929Y-100025000D02*
X143672464Y-100097464D01*
%TO.N,+1V1*%
X151970000Y-113100000D02*
X151970000Y-112905000D01*
X149600000Y-112150000D02*
X149600000Y-110837500D01*
X150800000Y-103428640D02*
X151573640Y-102655000D01*
X148775000Y-100050000D02*
X148800000Y-100075000D01*
X148800000Y-104496360D02*
X148596360Y-104700000D01*
X148800000Y-101450000D02*
X148800000Y-103962500D01*
X151390000Y-112325000D02*
X151200000Y-112325000D01*
X148800000Y-101450000D02*
X148800000Y-100601471D01*
X148800000Y-100075000D02*
X148800000Y-101450000D01*
X149600000Y-112150000D02*
X149775000Y-112325000D01*
X153220000Y-114225000D02*
X153450000Y-114225000D01*
X151200000Y-112325000D02*
X151320000Y-112325000D01*
X148075000Y-104700000D02*
X147775000Y-105000000D01*
X148596360Y-104700000D02*
X148075000Y-104700000D01*
X147775000Y-105500000D02*
X149175000Y-105500000D01*
X151200000Y-112325000D02*
X149775000Y-112325000D01*
X150800000Y-103962500D02*
X150800000Y-103428640D01*
X150050955Y-104970444D02*
X150039756Y-104981643D01*
X151800000Y-102680000D02*
X151490001Y-102680000D01*
X151970000Y-112975000D02*
X151970000Y-112905000D01*
X150545444Y-104970444D02*
X150050955Y-104970444D01*
X148800000Y-103962500D02*
X148800000Y-104496360D01*
X150375000Y-105500000D02*
X150375000Y-105140889D01*
X151970000Y-112975000D02*
X153220000Y-114225000D01*
X147775000Y-105000000D02*
X147775000Y-105500000D01*
X150375000Y-105140889D02*
X150545444Y-104970444D01*
X150545444Y-104970444D02*
X150800000Y-104715889D01*
X148850000Y-105500000D02*
X150375000Y-105500000D01*
X151573640Y-102655000D02*
X151700000Y-102655000D01*
X150800000Y-104715889D02*
X150800000Y-103962500D01*
X151970000Y-112905000D02*
X151390000Y-112325000D01*
%TO.N,Net-(R6-Pad1)*%
X143225000Y-96365000D02*
X144210000Y-96365000D01*
X144210000Y-96365000D02*
X144425000Y-96150000D01*
%TO.N,Net-(C16-Pad2)*%
X151032500Y-114892500D02*
X149407500Y-114892500D01*
X149407500Y-114892500D02*
X149282500Y-114767500D01*
X149817500Y-113372500D02*
X149817500Y-114232500D01*
X149817500Y-114232500D02*
X149282500Y-114767500D01*
%TO.N,BAT+*%
X148650000Y-120892500D02*
X148250000Y-121292500D01*
X154412077Y-95012077D02*
X154715000Y-95315000D01*
X154464386Y-90812500D02*
X154012500Y-90812500D01*
X153085000Y-120011799D02*
X152204299Y-120892500D01*
X152300000Y-115300000D02*
X153085000Y-116085000D01*
X154233731Y-95012077D02*
X154412077Y-95012077D01*
X154750000Y-89870000D02*
X154750000Y-90526886D01*
X148250000Y-121292500D02*
X148250000Y-122875000D01*
X152150000Y-117425000D02*
X151650000Y-117425000D01*
X154180000Y-89300000D02*
X154750000Y-89870000D01*
X152204299Y-120892500D02*
X148650000Y-120892500D01*
X154715000Y-95315000D02*
X154715000Y-95600000D01*
X152300000Y-115300000D02*
X151650000Y-115950000D01*
X154957843Y-91150000D02*
X154620343Y-90812500D01*
X154012500Y-91312500D02*
X154012500Y-90812500D01*
X151650000Y-115950000D02*
X151650000Y-117425000D01*
X154750000Y-90526886D02*
X154464386Y-90812500D01*
X153085000Y-116085000D02*
X153085000Y-120011799D01*
X154620343Y-90812500D02*
X154464386Y-90812500D01*
X154180000Y-88100000D02*
X154180000Y-89300000D01*
%TO.N,GPIO5*%
X146803745Y-117700000D02*
X147153745Y-118050000D01*
X142325000Y-102236442D02*
X142325000Y-100313559D01*
X150709572Y-120092500D02*
X151872928Y-120092500D01*
X142740000Y-104146819D02*
X142740000Y-104059215D01*
X142205000Y-97869609D02*
X142205000Y-97215000D01*
X151872928Y-120092500D02*
X152150000Y-119815428D01*
X142180000Y-104862980D02*
X142765786Y-104277195D01*
X142180000Y-105691409D02*
X142180000Y-104862980D01*
X142872465Y-99766093D02*
X142872468Y-99766085D01*
X142800000Y-104277195D02*
X142800000Y-104262980D01*
X142425000Y-102639385D02*
X142576471Y-102487914D01*
X143000000Y-106632107D02*
X142682108Y-106314214D01*
X147153745Y-118050000D02*
X148685000Y-118050000D01*
X152150000Y-119815428D02*
X152150000Y-119395000D01*
X142205000Y-97215000D02*
X140230000Y-95240000D01*
X142740000Y-104059215D02*
X142720000Y-104039214D01*
X145562500Y-107200000D02*
X144622506Y-107200000D01*
X142682108Y-106314214D02*
X142682108Y-106193518D01*
X146548180Y-107651820D02*
X146096360Y-107200000D01*
X142872468Y-99766085D02*
X143000000Y-99638555D01*
X142576471Y-102487914D02*
X142325000Y-102236442D01*
X143250000Y-106900000D02*
X143000000Y-106649999D01*
X149460000Y-118842928D02*
X150709572Y-120092500D01*
X142682108Y-106193518D02*
X142180000Y-105691409D01*
X142720000Y-104039214D02*
X142720000Y-103762815D01*
X142720000Y-103762815D02*
X142425000Y-103467814D01*
X142325000Y-100313559D02*
X142872465Y-99766093D01*
X144622506Y-107200000D02*
X144322505Y-106900000D01*
X142425000Y-103467814D02*
X142425000Y-102639385D01*
X142765786Y-104277195D02*
X142800000Y-104277195D01*
X146650000Y-117700000D02*
X146803745Y-117700000D01*
X143000000Y-98926371D02*
X142425000Y-98351370D01*
X149460000Y-118825000D02*
X149460000Y-118842928D01*
X142828080Y-104234900D02*
X142740000Y-104146819D01*
X143000000Y-106649999D02*
X143000000Y-106632107D01*
X146096360Y-107200000D02*
X145562500Y-107200000D01*
X148685000Y-118050000D02*
X149460000Y-118825000D01*
X142425000Y-98089610D02*
X142205000Y-97869609D01*
X142425000Y-98351370D02*
X142425000Y-98089610D01*
X144322505Y-106900000D02*
X143250000Y-106900000D01*
X143000000Y-99638555D02*
X143000000Y-98926371D01*
X142800000Y-104262980D02*
X142828080Y-104234900D01*
%TO.N,XOUT*%
X148797500Y-113372500D02*
X148800000Y-113370000D01*
X148797500Y-113372500D02*
X148832500Y-113337500D01*
X148800000Y-113370000D02*
X148800000Y-110837500D01*
%TO.N,Net-(U4-TS)*%
X154012500Y-91817500D02*
X154925000Y-92730000D01*
X154012500Y-91812500D02*
X154012500Y-91817500D01*
%TO.N,GPIO4*%
X144788191Y-106800000D02*
X144488190Y-106500000D01*
X143082108Y-106148529D02*
X143082108Y-105877195D01*
X143140000Y-103893529D02*
X143120000Y-103873529D01*
X142796076Y-96875000D02*
X142605000Y-96683924D01*
X143393766Y-104234900D02*
X143140000Y-103981134D01*
X143140000Y-103981134D02*
X143140000Y-103893529D01*
X145108292Y-118100000D02*
X145168292Y-118160000D01*
X143200000Y-104428666D02*
X143393766Y-104234900D01*
X143082108Y-105877195D02*
X142931471Y-105877195D01*
X142605000Y-96046076D02*
X142856076Y-95795000D01*
X143400000Y-99804243D02*
X143400000Y-98760686D01*
X148100000Y-119625000D02*
X149575000Y-119625000D01*
X147325000Y-120110000D02*
X147615000Y-120110000D01*
X142580000Y-105525724D02*
X142580000Y-105028666D01*
X142605000Y-97066076D02*
X142796076Y-96875000D01*
X143415686Y-106500000D02*
X143400000Y-106484314D01*
X152650000Y-119881114D02*
X152650000Y-119395000D01*
X142931471Y-104677195D02*
X143200000Y-104677195D01*
X143400000Y-98760686D02*
X142825000Y-98185685D01*
X143400000Y-106466421D02*
X143082108Y-106148529D01*
X143400000Y-106484314D02*
X143400000Y-106466421D01*
X142856076Y-95795000D02*
X143325000Y-95795000D01*
X142605000Y-96683924D02*
X142605000Y-96046076D01*
X143142157Y-102487914D02*
X142725000Y-102070757D01*
X147615000Y-120110000D02*
X148100000Y-119625000D01*
X143272465Y-99931775D02*
X143400000Y-99804243D01*
X142825000Y-98185685D02*
X142825000Y-97923924D01*
X142825000Y-102805071D02*
X143142157Y-102487914D01*
X146770350Y-106856108D02*
X146714242Y-106800000D01*
X145562500Y-106800000D02*
X144788191Y-106800000D01*
X143325000Y-95795000D02*
X140230000Y-92700000D01*
X152038614Y-120492500D02*
X152650000Y-119881114D01*
X146714242Y-106800000D02*
X145562500Y-106800000D01*
X145375000Y-118160000D02*
X147325000Y-120110000D01*
X143120000Y-103597129D02*
X142825000Y-103302129D01*
X142931471Y-105877195D02*
X142580000Y-105525724D01*
X142825000Y-103302129D02*
X142825000Y-102805071D01*
X143272465Y-99931778D02*
X143272465Y-99931775D01*
X142725000Y-100479244D02*
X143272465Y-99931778D01*
X149575000Y-119625000D02*
X150442500Y-120492500D01*
X143120000Y-103873529D02*
X143120000Y-103597129D01*
X150442500Y-120492500D02*
X152038614Y-120492500D01*
X143200000Y-104677195D02*
X143200000Y-104428666D01*
X144488190Y-106500000D02*
X143415686Y-106500000D01*
X142725000Y-102070757D02*
X142725000Y-100479244D01*
X142825000Y-97923924D02*
X142605000Y-97703924D01*
X142605000Y-97703924D02*
X142605000Y-97066076D01*
X145168292Y-118160000D02*
X145375000Y-118160000D01*
X142580000Y-105028666D02*
X142931471Y-104677195D01*
%TO.N,QSPI_SD1*%
X146420343Y-102370343D02*
X146800000Y-102750000D01*
X146800000Y-102750000D02*
X146800000Y-103962500D01*
X143525000Y-100810614D02*
X143525000Y-101739386D01*
X143810614Y-100525000D02*
X143525000Y-100810614D01*
X144155957Y-102370343D02*
X146420343Y-102370343D01*
X144275000Y-100525000D02*
X143810614Y-100525000D01*
X143525000Y-101739386D02*
X144155957Y-102370343D01*
%TO.N,QSPI_SD2*%
X146586029Y-101970343D02*
X147200000Y-102584315D01*
X147200000Y-102584315D02*
X147200000Y-103962500D01*
X146475000Y-101970343D02*
X146586029Y-101970343D01*
X145225000Y-101800000D02*
X145395343Y-101970343D01*
X145395343Y-101970343D02*
X146475000Y-101970343D01*
X144275000Y-101025000D02*
X145225000Y-101025000D01*
X145225000Y-101025000D02*
X145225000Y-101800000D01*
%TO.N,QSPI_SD0*%
X147600000Y-102000000D02*
X147600000Y-103962500D01*
X147125000Y-101525000D02*
X147100000Y-101550000D01*
X147125000Y-101525000D02*
X147600000Y-102000000D01*
%TO.N,QSPI_SCLK*%
X147125000Y-101025000D02*
X147650000Y-101025000D01*
X148000000Y-101375000D02*
X148000000Y-103962500D01*
X147650000Y-101025000D02*
X148000000Y-101375000D01*
%TO.N,QSPI_SD3*%
X147125000Y-100525000D02*
X147875000Y-100525000D01*
X147875000Y-100525000D02*
X148400000Y-101050000D01*
X148400000Y-101050000D02*
X148400000Y-103962500D01*
%TO.N,VBUS*%
X146117376Y-88723246D02*
X146117376Y-87642376D01*
X151215000Y-83580406D02*
X151755406Y-83040000D01*
X151450000Y-85305000D02*
X151215000Y-85070000D01*
X151450000Y-88600000D02*
X151600000Y-88750000D01*
X152300000Y-86808496D02*
X152300000Y-87134314D01*
X151600000Y-88750000D02*
X152901886Y-88750000D01*
X154120000Y-83508629D02*
X154120000Y-83830000D01*
X153325000Y-89173114D02*
X153325000Y-89625000D01*
X148400000Y-90025000D02*
X148400000Y-90649999D01*
X151450000Y-85958496D02*
X152300000Y-86808496D01*
X152220000Y-87830000D02*
X151450000Y-88600000D01*
X148400000Y-90649999D02*
X148750001Y-91000000D01*
X157890000Y-80060000D02*
X154120000Y-83830000D01*
X153651371Y-83040000D02*
X154120000Y-83508629D01*
X152220000Y-87214315D02*
X152220000Y-87830000D01*
X152300000Y-87134314D02*
X152220000Y-87214315D01*
X151718424Y-92567026D02*
X151785450Y-92500000D01*
X150750000Y-88955000D02*
X151095000Y-88955000D01*
X152901886Y-88750000D02*
X153325000Y-89173114D01*
X145975000Y-87500000D02*
X146550000Y-86925000D01*
X151785450Y-92500000D02*
X151825000Y-92500000D01*
X146117376Y-87642376D02*
X145975000Y-87500000D01*
X151755406Y-83040000D02*
X153651371Y-83040000D01*
X151450000Y-85305000D02*
X151450000Y-85958496D01*
X146550000Y-86925000D02*
X146550000Y-85305000D01*
X151540136Y-92567026D02*
X151718424Y-92567026D01*
X151095000Y-88955000D02*
X151450000Y-88600000D01*
X151215000Y-85070000D02*
X151215000Y-83580406D01*
%TO.N,Net-(U4-ILIM)*%
X154260000Y-98560000D02*
X153700000Y-98000000D01*
X151137500Y-91812500D02*
X151137500Y-92121132D01*
X151137500Y-92121132D02*
X150725000Y-92533632D01*
X154260000Y-98775000D02*
X154260000Y-98560000D01*
%TO.N,XIN*%
X145457500Y-116382500D02*
X146997500Y-116382500D01*
X148082500Y-115467500D02*
X148082500Y-112967500D01*
X147082500Y-116467500D02*
X148082500Y-115467500D01*
X148400000Y-112650000D02*
X148400000Y-110837500D01*
X146997500Y-116382500D02*
X147082500Y-116467500D01*
X147082500Y-116467500D02*
X147662500Y-116467500D01*
X148082500Y-112967500D02*
X148400000Y-112650000D01*
%TO.N,GPIO0*%
X144978640Y-105200000D02*
X144455835Y-104677195D01*
X144455835Y-104677195D02*
X143800000Y-104677195D01*
X145562500Y-105200000D02*
X144978640Y-105200000D01*
%TO.N,GPIO1*%
X145562500Y-105600000D02*
X144230637Y-105600000D01*
X144230637Y-105600000D02*
X143907832Y-105277195D01*
X143907832Y-105277195D02*
X143180000Y-105277195D01*
%TO.N,GPIO2*%
X143725000Y-106000000D02*
X143725000Y-105942892D01*
X143725000Y-105942892D02*
X143682108Y-105900000D01*
X145562500Y-106000000D02*
X143725000Y-106000000D01*
%TO.N,GPIO3*%
X146096360Y-106400000D02*
X145562500Y-106400000D01*
X146405171Y-106091189D02*
X146096360Y-106400000D01*
X146536036Y-106091189D02*
X146405171Y-106091189D01*
%TO.N,GPIO6*%
X141780000Y-101870000D02*
X141780000Y-106114314D01*
X141780000Y-106114314D02*
X142965686Y-107300000D01*
X144156820Y-107300000D02*
X144456820Y-107600000D01*
X144456820Y-107600000D02*
X145200000Y-107600000D01*
X140230000Y-100320000D02*
X141780000Y-101870000D01*
X142965686Y-107300000D02*
X144156820Y-107300000D01*
%TO.N,GPIO7*%
X145562500Y-108000000D02*
X144291134Y-108000000D01*
X141380000Y-104010000D02*
X140230000Y-102860000D01*
X141380000Y-106280000D02*
X141380000Y-104010000D01*
X143991134Y-107700000D02*
X142800000Y-107700000D01*
X142800000Y-107700000D02*
X141380000Y-106280000D01*
X144291134Y-108000000D02*
X143991134Y-107700000D01*
%TO.N,GPIO8*%
X146482587Y-109410901D02*
X146482587Y-108909673D01*
X146482587Y-108909673D02*
X146372914Y-108800000D01*
X146372914Y-108800000D02*
X145562500Y-108800000D01*
%TO.N,GPIO9*%
X141490000Y-109200000D02*
X140230000Y-107940000D01*
X145562500Y-109200000D02*
X141490000Y-109200000D01*
%TO.N,GPIO10*%
X143650000Y-109600000D02*
X140230000Y-113020000D01*
X145562500Y-109600000D02*
X143650000Y-109600000D01*
%TO.N,GPIO11*%
X141732843Y-114057157D02*
X140230000Y-115560000D01*
X143815686Y-110000000D02*
X141732843Y-112082843D01*
X141732843Y-112082843D02*
X141732843Y-114057157D01*
X145562500Y-110000000D02*
X143815686Y-110000000D01*
%TO.N,GPIO12*%
X146400000Y-110837500D02*
X145962500Y-110400000D01*
X143981372Y-110400000D02*
X142132843Y-112248529D01*
X142132843Y-112248529D02*
X142132843Y-116197157D01*
X145962500Y-110400000D02*
X143981372Y-110400000D01*
X142132843Y-116197157D02*
X140230000Y-118100000D01*
%TO.N,GPIO13*%
X145750000Y-111121360D02*
X145750000Y-110800000D01*
X146203640Y-111575000D02*
X145750000Y-111121360D01*
X142532843Y-118337157D02*
X140230000Y-120640000D01*
X144147058Y-110800000D02*
X142532843Y-112414215D01*
X142532843Y-112414215D02*
X142532843Y-118337157D01*
X146800000Y-110837500D02*
X146800000Y-111371360D01*
X146800000Y-111371360D02*
X146596360Y-111575000D01*
X145750000Y-110800000D02*
X144147058Y-110800000D01*
X146596360Y-111575000D02*
X146203640Y-111575000D01*
%TO.N,GPIO14*%
X142932843Y-123017157D02*
X140230000Y-125720000D01*
X146037954Y-111975000D02*
X145275000Y-111212046D01*
X146762045Y-111975000D02*
X146037954Y-111975000D01*
X142932843Y-112579901D02*
X142932843Y-123017157D01*
X145275000Y-111200000D02*
X144312744Y-111200000D01*
X147200000Y-111537046D02*
X146762045Y-111975000D01*
X145275000Y-111212046D02*
X145275000Y-111200000D01*
X144312744Y-111200000D02*
X142932843Y-112579901D01*
X147200000Y-110837500D02*
X147200000Y-111537046D01*
%TO.N,GPIO15*%
X143332843Y-112745587D02*
X143332843Y-125157157D01*
X143332843Y-125157157D02*
X140230000Y-128260000D01*
X147600000Y-110837500D02*
X147599999Y-111702732D01*
X144975000Y-111600000D02*
X144478430Y-111600000D01*
X147599999Y-111702732D02*
X146927730Y-112375000D01*
X144478430Y-111600000D02*
X143332843Y-112745587D01*
X145750000Y-112375000D02*
X144975000Y-111600000D01*
X146927730Y-112375000D02*
X145750000Y-112375000D01*
%TO.N,SWCLK*%
X150000000Y-110303640D02*
X150000000Y-110837500D01*
X149998119Y-110301759D02*
X150000000Y-110303640D01*
X149998119Y-110026881D02*
X149998119Y-110301759D01*
X150125000Y-109900000D02*
X149998119Y-110026881D01*
X150356066Y-109900000D02*
X150125000Y-109900000D01*
%TO.N,SWDIO*%
X150400000Y-110837500D02*
X150400000Y-111675000D01*
X150400000Y-111675000D02*
X150450000Y-111725000D01*
%TO.N,RUN*%
X151500000Y-109243759D02*
X151500000Y-109603636D01*
X150800000Y-110303636D02*
X150800000Y-110837500D01*
X151500000Y-109603636D02*
X150800000Y-110303636D01*
%TO.N,GPIO16*%
X152793186Y-111585000D02*
X154019314Y-111585000D01*
X152453186Y-111925000D02*
X152793186Y-111585000D01*
X154019314Y-111585000D02*
X154019314Y-112069215D01*
X155047157Y-125477157D02*
X157890000Y-128320000D01*
X151200000Y-110837500D02*
X151200000Y-111650000D01*
X151200000Y-111650000D02*
X151475000Y-111925000D01*
X155047157Y-113097058D02*
X155047157Y-125477157D01*
X154019314Y-112069215D02*
X155047157Y-113097058D01*
X151475000Y-111925000D02*
X152453186Y-111925000D01*
%TO.N,GPIO17*%
X154419314Y-111903529D02*
X155447157Y-112931372D01*
X151600000Y-110837500D02*
X151600000Y-111425000D01*
X154419314Y-111340686D02*
X154419314Y-111903529D01*
X154263628Y-111185000D02*
X154419314Y-111340686D01*
X155447157Y-123337157D02*
X157890000Y-125780000D01*
X151700000Y-111525000D02*
X152287500Y-111525000D01*
X152287500Y-111525000D02*
X152627500Y-111185000D01*
X152627500Y-111185000D02*
X154263628Y-111185000D01*
X151600000Y-111425000D02*
X151700000Y-111525000D01*
X155447157Y-112931372D02*
X155447157Y-123337157D01*
%TO.N,GPIO18*%
X154819314Y-111737843D02*
X155847157Y-112765686D01*
X154429314Y-110785000D02*
X154819314Y-111175000D01*
X152437500Y-110000000D02*
X153036810Y-110000000D01*
X153036810Y-110000000D02*
X153821811Y-110785000D01*
X153821811Y-110785000D02*
X154429314Y-110785000D01*
X154819314Y-111175000D02*
X154819314Y-111737843D01*
X155847157Y-112765686D02*
X155847157Y-118657157D01*
X155847157Y-118657157D02*
X157890000Y-120700000D01*
%TO.N,GPIO19*%
X152437500Y-109600000D02*
X153202496Y-109600000D01*
X153987496Y-110385000D02*
X154625000Y-110385000D01*
X156247157Y-112600000D02*
X156247157Y-116517157D01*
X155219314Y-111572157D02*
X156247157Y-112600000D01*
X153202496Y-109600000D02*
X153987496Y-110385000D01*
X155219314Y-110979314D02*
X155219314Y-111572157D01*
X154625000Y-110385000D02*
X155219314Y-110979314D01*
X156247157Y-116517157D02*
X157890000Y-118160000D01*
%TO.N,GPIO20*%
X156647157Y-115097157D02*
X157170000Y-115620000D01*
X153665000Y-109496820D02*
X154153181Y-109985000D01*
X155619314Y-110729314D02*
X155619314Y-111375000D01*
X155619314Y-111375000D02*
X156647157Y-112402843D01*
X152437500Y-109200000D02*
X153665000Y-109200000D01*
X154875000Y-109985000D02*
X155619314Y-110729314D01*
X157170000Y-115620000D02*
X157890000Y-115620000D01*
X153665000Y-109200000D02*
X153665000Y-109496820D01*
X154153181Y-109985000D02*
X154875000Y-109985000D01*
X156647157Y-112402843D02*
X156647157Y-115097157D01*
%TO.N,GPIO21*%
X152437500Y-108800000D02*
X153904314Y-108800000D01*
X155100000Y-109585000D02*
X156200000Y-110685000D01*
X156200000Y-110685000D02*
X156200000Y-111390000D01*
X154318866Y-109585000D02*
X155100000Y-109585000D01*
X153904314Y-108800000D02*
X154065000Y-108960686D01*
X154065000Y-108960686D02*
X154065000Y-109331134D01*
X156200000Y-111390000D02*
X157890000Y-113080000D01*
X154065000Y-109331134D02*
X154318866Y-109585000D01*
%TO.N,GPIO22*%
X152437500Y-108000000D02*
X157890000Y-108000000D01*
%TO.N,GPIO23*%
X157890000Y-103833654D02*
X155050003Y-106673651D01*
X154736134Y-107600000D02*
X152650000Y-107600000D01*
X157890000Y-102920000D02*
X157890000Y-103833654D01*
X155050003Y-106673651D02*
X155050003Y-107286131D01*
X155050003Y-107286131D02*
X154736134Y-107600000D01*
%TO.N,GPIO24*%
X153898529Y-107200000D02*
X154450003Y-106648526D01*
X152437500Y-107200000D02*
X153898529Y-107200000D01*
X154450003Y-106648526D02*
X154450003Y-106600000D01*
%TO.N,GPIO26{slash}ADC0*%
X157890000Y-95300000D02*
X157732843Y-95300000D01*
X151505104Y-106001464D02*
X151903640Y-106400000D01*
X151903640Y-106400000D02*
X152437500Y-106400000D01*
X151505104Y-105425000D02*
X151505104Y-106001464D01*
%TO.N,GPIO27{slash}ADC1*%
X154767506Y-106000000D02*
X152275000Y-106000000D01*
X157890000Y-92760000D02*
X156357843Y-94292157D01*
X156357843Y-104409663D02*
X154767506Y-106000000D01*
X156357843Y-94292157D02*
X156357843Y-104409663D01*
%TO.N,GPIO28{slash}ADC2*%
X155957843Y-89100000D02*
X155957843Y-104243977D01*
X155957843Y-104243977D02*
X154601819Y-105600000D01*
X156470000Y-89100000D02*
X155957843Y-89100000D01*
X157890000Y-87680000D02*
X156470000Y-89100000D01*
X154601819Y-105600000D02*
X152437500Y-105600000D01*
%TO.N,GPIO29{slash}ADC3*%
X154436134Y-105200000D02*
X152437500Y-105200000D01*
X157890000Y-82600000D02*
X155915686Y-82600000D01*
X155557843Y-82957843D02*
X155557843Y-104078291D01*
X155915686Y-82600000D02*
X155557843Y-82957843D01*
X155557843Y-104078291D02*
X154436134Y-105200000D01*
%TO.N,Net-(U1-USB_DM)*%
X150400000Y-102810000D02*
X150400000Y-103962500D01*
X150700000Y-102510000D02*
X150400000Y-102810000D01*
%TO.N,Net-(U1-USB_DP)*%
X149700000Y-102510000D02*
X150000000Y-102810000D01*
X150000000Y-102810000D02*
X150000000Y-103962500D01*
%TO.N,Net-(J1-CC1)*%
X150250000Y-86840000D02*
X150250000Y-85305000D01*
X150575000Y-87165000D02*
X150250000Y-86840000D01*
X150825000Y-87165000D02*
X150575000Y-87165000D01*
%TO.N,Net-(J1-CC2)*%
X147250000Y-85305000D02*
X147250000Y-87115000D01*
X147250000Y-87115000D02*
X147300000Y-87165000D01*
%TO.N,USB_D+*%
X149700000Y-101490000D02*
X150950000Y-100240000D01*
X147449999Y-90025000D02*
X147449999Y-89891650D01*
X147449999Y-92843649D02*
X147449999Y-92552300D01*
X149700000Y-101440000D02*
X149700000Y-101490000D01*
X149250000Y-88091649D02*
X149250000Y-85305000D01*
X148250000Y-85305000D02*
X148250000Y-86062410D01*
X149250000Y-86062410D02*
X149250000Y-85305000D01*
X150950000Y-96343650D02*
X147449999Y-92843649D01*
X147449999Y-90025000D02*
X147449999Y-92552300D01*
X148982410Y-86330000D02*
X149250000Y-86062410D01*
X148250000Y-86062410D02*
X148517590Y-86330000D01*
X147449999Y-89891650D02*
X149250000Y-88091649D01*
X150950000Y-100240000D02*
X150950000Y-96343650D01*
X148517590Y-86330000D02*
X148982410Y-86330000D01*
%TO.N,USB_D-*%
X151350000Y-97481381D02*
X151350000Y-96325451D01*
X149350001Y-92552300D02*
X149350001Y-93886615D01*
X149815784Y-94352398D02*
X150056037Y-94592652D01*
X149017590Y-84280000D02*
X149482410Y-84280000D01*
X151350000Y-97601381D02*
X151350000Y-97481381D01*
X149750000Y-86392501D02*
X149725000Y-86417501D01*
X151350000Y-95886615D02*
X150056037Y-94592652D01*
X149750000Y-84547590D02*
X149750000Y-85305000D01*
X150700000Y-101490000D02*
X150700000Y-101126397D01*
X150664644Y-101091041D02*
X151350000Y-100405685D01*
X149350001Y-88761395D02*
X149350001Y-90025000D01*
X148750000Y-84547590D02*
X149017590Y-84280000D01*
X148750000Y-85305000D02*
X148750000Y-84547590D01*
X149725000Y-86417501D02*
X149725000Y-88386396D01*
X151350000Y-96325451D02*
X151350000Y-95886615D01*
X152237572Y-98201381D02*
X152237572Y-98081381D01*
X151590000Y-98441381D02*
X151997572Y-98441381D01*
X151350000Y-100405685D02*
X151350000Y-98681381D01*
X150700000Y-101126397D02*
X150664644Y-101091041D01*
X149350001Y-90025000D02*
X149350001Y-92552300D01*
X149482410Y-84280000D02*
X149750000Y-84547590D01*
X149725000Y-88386396D02*
X149350001Y-88761395D01*
X151997572Y-97841381D02*
X151590000Y-97841381D01*
X150700000Y-101440000D02*
X150700000Y-101490000D01*
X149350001Y-93886615D02*
X149815784Y-94352398D01*
X149750000Y-85305000D02*
X149750000Y-86392501D01*
X151590000Y-97841381D02*
G75*
G02*
X151350019Y-97601381I0J239981D01*
G01*
X151350000Y-98681381D02*
G75*
G02*
X151590000Y-98441400I240000J-19D01*
G01*
X151997572Y-98441381D02*
G75*
G03*
X152237581Y-98201381I28J239981D01*
G01*
X152237572Y-98081381D02*
G75*
G03*
X151997572Y-97841428I-239972J-19D01*
G01*
%TD*%
%TA.AperFunction,Conductor*%
%TO.N,GND*%
G36*
X154385930Y-114427411D02*
G01*
X154433541Y-114478548D01*
X154446657Y-114534053D01*
X154446657Y-125390487D01*
X154446656Y-125390505D01*
X154446656Y-125556211D01*
X154446655Y-125556211D01*
X154446656Y-125556214D01*
X154487580Y-125708942D01*
X154492074Y-125716725D01*
X154492076Y-125716735D01*
X154492079Y-125716734D01*
X154566634Y-125845869D01*
X154566638Y-125845874D01*
X154685506Y-125964742D01*
X154685512Y-125964747D01*
X156556241Y-127835476D01*
X156589726Y-127896799D01*
X156586492Y-127961473D01*
X156572753Y-128003757D01*
X156560678Y-128079999D01*
X156539500Y-128213713D01*
X156539500Y-128426287D01*
X156572754Y-128636243D01*
X156622003Y-128787816D01*
X156638444Y-128838414D01*
X156725466Y-129009205D01*
X156738362Y-129077875D01*
X156712086Y-129142615D01*
X156654979Y-129182872D01*
X156614981Y-129189500D01*
X152639758Y-129189500D01*
X152572719Y-129169815D01*
X152526964Y-129117011D01*
X152517020Y-129047853D01*
X152546045Y-128984297D01*
X152552077Y-128977819D01*
X152570104Y-128959792D01*
X152570106Y-128959788D01*
X152570109Y-128959786D01*
X152695048Y-128787820D01*
X152695050Y-128787817D01*
X152695051Y-128787816D01*
X152791557Y-128598412D01*
X152857246Y-128396243D01*
X152890500Y-128186287D01*
X152890500Y-127973713D01*
X152857246Y-127763757D01*
X152791557Y-127561588D01*
X152695051Y-127372184D01*
X152695049Y-127372181D01*
X152695048Y-127372179D01*
X152570109Y-127200213D01*
X152419786Y-127049890D01*
X152247820Y-126924951D01*
X152058414Y-126828444D01*
X152058413Y-126828443D01*
X152058412Y-126828443D01*
X151856243Y-126762754D01*
X151856241Y-126762753D01*
X151856240Y-126762753D01*
X151694957Y-126737208D01*
X151646287Y-126729500D01*
X151433713Y-126729500D01*
X151385042Y-126737208D01*
X151223760Y-126762753D01*
X151021585Y-126828444D01*
X150832179Y-126924951D01*
X150660213Y-127049890D01*
X150509890Y-127200213D01*
X150384949Y-127372182D01*
X150380202Y-127381499D01*
X150332227Y-127432293D01*
X150264405Y-127449087D01*
X150198271Y-127426548D01*
X150159234Y-127381495D01*
X150154626Y-127372452D01*
X150115270Y-127318282D01*
X150115269Y-127318282D01*
X149482962Y-127950590D01*
X149465925Y-127887007D01*
X149400099Y-127772993D01*
X149307007Y-127679901D01*
X149192993Y-127614075D01*
X149129409Y-127597037D01*
X149761716Y-126964728D01*
X149707550Y-126925375D01*
X149518217Y-126828904D01*
X149316129Y-126763242D01*
X149106246Y-126730000D01*
X148893754Y-126730000D01*
X148683872Y-126763242D01*
X148683869Y-126763242D01*
X148481782Y-126828904D01*
X148292439Y-126925380D01*
X148238282Y-126964727D01*
X148238282Y-126964728D01*
X148870591Y-127597037D01*
X148807007Y-127614075D01*
X148692993Y-127679901D01*
X148599901Y-127772993D01*
X148534075Y-127887007D01*
X148517037Y-127950591D01*
X147846818Y-127280372D01*
X147813333Y-127219049D01*
X147813330Y-127219036D01*
X147810499Y-127206015D01*
X147810499Y-127182128D01*
X147804091Y-127122517D01*
X147770165Y-127031557D01*
X147753798Y-126987673D01*
X147753793Y-126987664D01*
X147667547Y-126872455D01*
X147667544Y-126872452D01*
X147552335Y-126786206D01*
X147552328Y-126786202D01*
X147417482Y-126735908D01*
X147417483Y-126735908D01*
X147357883Y-126729501D01*
X147357881Y-126729500D01*
X147357873Y-126729500D01*
X147357864Y-126729500D01*
X145562129Y-126729500D01*
X145562123Y-126729501D01*
X145502516Y-126735908D01*
X145367671Y-126786202D01*
X145367664Y-126786206D01*
X145252455Y-126872452D01*
X145252452Y-126872455D01*
X145166206Y-126987664D01*
X145166202Y-126987671D01*
X145115908Y-127122517D01*
X145109501Y-127182116D01*
X145109500Y-127182135D01*
X145109500Y-128977870D01*
X145109501Y-128977876D01*
X145116738Y-129045196D01*
X145115342Y-129045345D01*
X145112050Y-129106756D01*
X145071182Y-129163427D01*
X145006163Y-129189007D01*
X144995114Y-129189500D01*
X141505019Y-129189500D01*
X141437980Y-129169815D01*
X141392225Y-129117011D01*
X141382281Y-129047853D01*
X141394534Y-129009205D01*
X141459500Y-128881701D01*
X141481557Y-128838412D01*
X141547246Y-128636243D01*
X141580500Y-128426287D01*
X141580500Y-128213713D01*
X141547246Y-128003757D01*
X141518792Y-127916188D01*
X141516798Y-127846348D01*
X141549041Y-127790192D01*
X143813363Y-125525873D01*
X143892420Y-125388941D01*
X143933344Y-125236214D01*
X143933344Y-125078099D01*
X143933344Y-125070504D01*
X143933343Y-125070486D01*
X143933343Y-121466685D01*
X143939576Y-121445456D01*
X143941148Y-121423387D01*
X143949228Y-121412586D01*
X143953028Y-121399646D01*
X143969747Y-121385158D01*
X143983002Y-121367441D01*
X143995639Y-121362723D01*
X144005832Y-121353891D01*
X144027731Y-121350742D01*
X144048459Y-121343004D01*
X144061638Y-121345866D01*
X144074990Y-121343947D01*
X144095115Y-121353137D01*
X144116736Y-121357834D01*
X144127326Y-121365759D01*
X144127746Y-121365131D01*
X144127749Y-121365133D01*
X144135757Y-121371698D01*
X144138546Y-121372972D01*
X144144997Y-121378977D01*
X144146620Y-121380599D01*
X144146621Y-121380601D01*
X144146641Y-121380621D01*
X144146647Y-121380626D01*
X147180395Y-124414374D01*
X147180405Y-124414385D01*
X147184735Y-124418715D01*
X147184736Y-124418716D01*
X147296540Y-124530520D01*
X147368786Y-124572230D01*
X147383351Y-124580639D01*
X147383353Y-124580641D01*
X147414412Y-124598573D01*
X147433471Y-124609577D01*
X147586198Y-124650500D01*
X147586199Y-124650500D01*
X148748075Y-124650500D01*
X148748091Y-124650501D01*
X148755687Y-124650501D01*
X148913798Y-124650501D01*
X148913801Y-124650501D01*
X149066529Y-124609577D01*
X149116648Y-124580639D01*
X149203460Y-124530520D01*
X149315264Y-124418716D01*
X149315264Y-124418714D01*
X149325472Y-124408507D01*
X149325474Y-124408504D01*
X149518713Y-124215265D01*
X149518716Y-124215264D01*
X149589701Y-124144278D01*
X149651020Y-124110796D01*
X149651022Y-124110795D01*
X149690852Y-124113644D01*
X149720712Y-124115780D01*
X149733674Y-124121477D01*
X149827744Y-124169408D01*
X149992415Y-124222914D01*
X149992414Y-124222914D01*
X149999999Y-124224115D01*
X150000000Y-124224114D01*
X150000000Y-123155330D01*
X150019745Y-123175075D01*
X150105255Y-123224444D01*
X150200630Y-123250000D01*
X150299370Y-123250000D01*
X150394745Y-123224444D01*
X150480255Y-123175075D01*
X150500000Y-123155330D01*
X150500000Y-124224115D01*
X150507584Y-124222914D01*
X150672255Y-124169408D01*
X150826524Y-124090804D01*
X150966602Y-123989032D01*
X151089032Y-123866602D01*
X151190804Y-123726524D01*
X151269408Y-123572257D01*
X151322914Y-123407584D01*
X151350000Y-123236571D01*
X151350000Y-123125000D01*
X150530330Y-123125000D01*
X150550075Y-123105255D01*
X150599444Y-123019745D01*
X150625000Y-122924370D01*
X150625000Y-122825630D01*
X150599444Y-122730255D01*
X150550075Y-122644745D01*
X150530330Y-122625000D01*
X151350000Y-122625000D01*
X151350000Y-122513429D01*
X151338987Y-122443898D01*
X151347941Y-122374605D01*
X151392937Y-122321153D01*
X151459689Y-122300513D01*
X151461460Y-122300500D01*
X151875816Y-122300500D01*
X151875832Y-122300501D01*
X151883428Y-122300501D01*
X152041539Y-122300501D01*
X152041542Y-122300501D01*
X152194270Y-122259577D01*
X152244389Y-122230639D01*
X152331201Y-122180520D01*
X152443005Y-122068716D01*
X152443005Y-122068714D01*
X152453213Y-122058507D01*
X152453215Y-122058504D01*
X153843506Y-120668213D01*
X153843511Y-120668209D01*
X153853714Y-120658005D01*
X153853716Y-120658005D01*
X153965520Y-120546201D01*
X154044577Y-120409269D01*
X154085500Y-120256542D01*
X154085500Y-115365943D01*
X154075391Y-115328215D01*
X154044577Y-115213215D01*
X153993233Y-115124285D01*
X153965520Y-115076284D01*
X153926554Y-115037318D01*
X153921336Y-115030392D01*
X153911959Y-115005486D01*
X153899207Y-114982133D01*
X153899839Y-114973295D01*
X153896717Y-114965003D01*
X153902292Y-114938985D01*
X153904191Y-114912441D01*
X153909501Y-114905346D01*
X153911358Y-114896685D01*
X153930115Y-114877811D01*
X153946063Y-114856508D01*
X153951453Y-114852692D01*
X153960289Y-114846789D01*
X154071789Y-114735289D01*
X154159394Y-114604179D01*
X154208096Y-114486600D01*
X154251936Y-114432197D01*
X154318230Y-114410132D01*
X154385930Y-114427411D01*
G37*
%TD.AperFunction*%
%TA.AperFunction,Conductor*%
G36*
X150115270Y-128841717D02*
G01*
X150115270Y-128841716D01*
X150154622Y-128787555D01*
X150159232Y-128778507D01*
X150207205Y-128727709D01*
X150275025Y-128710912D01*
X150341161Y-128733447D01*
X150380204Y-128778504D01*
X150384949Y-128787817D01*
X150509890Y-128959786D01*
X150527923Y-128977819D01*
X150561408Y-129039142D01*
X150556424Y-129108834D01*
X150514552Y-129164767D01*
X150449088Y-129189184D01*
X150440242Y-129189500D01*
X149807308Y-129189500D01*
X149740269Y-129169815D01*
X149719627Y-129153181D01*
X149129408Y-128562962D01*
X149192993Y-128545925D01*
X149307007Y-128480099D01*
X149400099Y-128387007D01*
X149465925Y-128272993D01*
X149482962Y-128209408D01*
X150115270Y-128841717D01*
G37*
%TD.AperFunction*%
%TA.AperFunction,Conductor*%
G36*
X139764075Y-123432993D02*
G01*
X139829901Y-123547007D01*
X139922993Y-123640099D01*
X140037007Y-123705925D01*
X140100590Y-123722962D01*
X139468282Y-124355269D01*
X139468282Y-124355270D01*
X139522452Y-124394626D01*
X139522451Y-124394626D01*
X139531495Y-124399234D01*
X139582292Y-124447208D01*
X139599087Y-124515029D01*
X139576550Y-124581164D01*
X139531499Y-124620202D01*
X139522182Y-124624949D01*
X139350213Y-124749890D01*
X139350209Y-124749894D01*
X139212181Y-124887923D01*
X139150858Y-124921408D01*
X139081166Y-124916424D01*
X139025233Y-124874552D01*
X139000816Y-124809088D01*
X139000500Y-124800242D01*
X139000500Y-124126869D01*
X139020185Y-124059830D01*
X139072989Y-124014075D01*
X139108677Y-124007767D01*
X139747037Y-123369408D01*
X139764075Y-123432993D01*
G37*
%TD.AperFunction*%
%TA.AperFunction,Conductor*%
G36*
X158963181Y-123959627D02*
G01*
X158996666Y-124020950D01*
X158999500Y-124047308D01*
X158999500Y-124680242D01*
X158979815Y-124747281D01*
X158927011Y-124793036D01*
X158857853Y-124802980D01*
X158794297Y-124773955D01*
X158787819Y-124767923D01*
X158769786Y-124749890D01*
X158597817Y-124624949D01*
X158588504Y-124620204D01*
X158537707Y-124572230D01*
X158520912Y-124504409D01*
X158543449Y-124438274D01*
X158588507Y-124399232D01*
X158597555Y-124394622D01*
X158651716Y-124355270D01*
X158651717Y-124355270D01*
X158019408Y-123722962D01*
X158082993Y-123705925D01*
X158197007Y-123640099D01*
X158290099Y-123547007D01*
X158355925Y-123432993D01*
X158372962Y-123369408D01*
X158963181Y-123959627D01*
G37*
%TD.AperFunction*%
%TA.AperFunction,Conductor*%
G36*
X156252860Y-119912541D02*
G01*
X156259338Y-119918573D01*
X156556241Y-120215476D01*
X156589726Y-120276799D01*
X156586492Y-120341473D01*
X156572753Y-120383757D01*
X156550575Y-120523786D01*
X156539500Y-120593713D01*
X156539500Y-120806287D01*
X156572754Y-121016243D01*
X156636828Y-121213443D01*
X156638444Y-121218414D01*
X156734951Y-121407820D01*
X156859890Y-121579786D01*
X157010213Y-121730109D01*
X157182179Y-121855048D01*
X157182181Y-121855049D01*
X157182184Y-121855051D01*
X157191493Y-121859794D01*
X157242290Y-121907766D01*
X157259087Y-121975587D01*
X157236552Y-122041722D01*
X157191505Y-122080760D01*
X157182446Y-122085376D01*
X157182440Y-122085380D01*
X157128282Y-122124727D01*
X157128282Y-122124728D01*
X157760591Y-122757037D01*
X157697007Y-122774075D01*
X157582993Y-122839901D01*
X157489901Y-122932993D01*
X157424075Y-123047007D01*
X157407037Y-123110591D01*
X156774728Y-122478282D01*
X156774727Y-122478282D01*
X156735380Y-122532439D01*
X156638904Y-122721782D01*
X156573242Y-122923869D01*
X156573242Y-122923872D01*
X156540000Y-123133753D01*
X156540000Y-123281402D01*
X156520315Y-123348441D01*
X156467511Y-123394196D01*
X156398353Y-123404140D01*
X156334797Y-123375115D01*
X156328319Y-123369083D01*
X156083976Y-123124740D01*
X156050491Y-123063417D01*
X156047657Y-123037059D01*
X156047657Y-120006254D01*
X156067342Y-119939215D01*
X156120146Y-119893460D01*
X156189304Y-119883516D01*
X156252860Y-119912541D01*
G37*
%TD.AperFunction*%
%TA.AperFunction,Conductor*%
G36*
X142251677Y-119570071D02*
G01*
X142307610Y-119611943D01*
X142332027Y-119677407D01*
X142332343Y-119686253D01*
X142332343Y-122717059D01*
X142312658Y-122784098D01*
X142296024Y-122804740D01*
X141791681Y-123309082D01*
X141730358Y-123342567D01*
X141660666Y-123337583D01*
X141604733Y-123295711D01*
X141580316Y-123230247D01*
X141580000Y-123221401D01*
X141580000Y-123133753D01*
X141546757Y-122923872D01*
X141546757Y-122923869D01*
X141481095Y-122721782D01*
X141384624Y-122532449D01*
X141345270Y-122478282D01*
X141345269Y-122478282D01*
X140712962Y-123110590D01*
X140695925Y-123047007D01*
X140630099Y-122932993D01*
X140537007Y-122839901D01*
X140422993Y-122774075D01*
X140359409Y-122757037D01*
X140991716Y-122124728D01*
X140937547Y-122085373D01*
X140937547Y-122085372D01*
X140928500Y-122080763D01*
X140877706Y-122032788D01*
X140860912Y-121964966D01*
X140883451Y-121898832D01*
X140928508Y-121859793D01*
X140937816Y-121855051D01*
X141039266Y-121781344D01*
X141109786Y-121730109D01*
X141109788Y-121730106D01*
X141109792Y-121730104D01*
X141260104Y-121579792D01*
X141260106Y-121579788D01*
X141260109Y-121579786D01*
X141385048Y-121407820D01*
X141385047Y-121407820D01*
X141385051Y-121407816D01*
X141481557Y-121218412D01*
X141547246Y-121016243D01*
X141580500Y-120806287D01*
X141580500Y-120593713D01*
X141547246Y-120383757D01*
X141518792Y-120296188D01*
X141516798Y-120226348D01*
X141549041Y-120170192D01*
X142120663Y-119598571D01*
X142181985Y-119565087D01*
X142251677Y-119570071D01*
G37*
%TD.AperFunction*%
%TA.AperFunction,Conductor*%
G36*
X139205703Y-121586045D02*
G01*
X139212181Y-121592077D01*
X139350213Y-121730109D01*
X139522179Y-121855048D01*
X139522181Y-121855049D01*
X139522184Y-121855051D01*
X139531493Y-121859794D01*
X139582290Y-121907766D01*
X139599087Y-121975587D01*
X139576552Y-122041722D01*
X139531505Y-122080760D01*
X139522446Y-122085376D01*
X139522440Y-122085380D01*
X139468282Y-122124727D01*
X139468282Y-122124728D01*
X140100591Y-122757037D01*
X140037007Y-122774075D01*
X139922993Y-122839901D01*
X139829901Y-122932993D01*
X139764075Y-123047007D01*
X139747037Y-123110591D01*
X139107598Y-122471152D01*
X139065851Y-122462382D01*
X139016094Y-122413331D01*
X139000500Y-122353129D01*
X139000500Y-121679758D01*
X139020185Y-121612719D01*
X139072989Y-121566964D01*
X139142147Y-121557020D01*
X139205703Y-121586045D01*
G37*
%TD.AperFunction*%
%TA.AperFunction,Conductor*%
G36*
X158918834Y-121683576D02*
G01*
X158974767Y-121725448D01*
X158999184Y-121790912D01*
X158999500Y-121799758D01*
X158999500Y-122432692D01*
X158979815Y-122499731D01*
X158963181Y-122520373D01*
X158372962Y-123110591D01*
X158355925Y-123047007D01*
X158290099Y-122932993D01*
X158197007Y-122839901D01*
X158082993Y-122774075D01*
X158019409Y-122757037D01*
X158651716Y-122124728D01*
X158597547Y-122085373D01*
X158597547Y-122085372D01*
X158588500Y-122080763D01*
X158537706Y-122032788D01*
X158520912Y-121964966D01*
X158543451Y-121898832D01*
X158588508Y-121859793D01*
X158597816Y-121855051D01*
X158699266Y-121781344D01*
X158769786Y-121730109D01*
X158769788Y-121730106D01*
X158769792Y-121730104D01*
X158787819Y-121712077D01*
X158849142Y-121678592D01*
X158918834Y-121683576D01*
G37*
%TD.AperFunction*%
%TA.AperFunction,Conductor*%
G36*
X149475539Y-116487185D02*
G01*
X149521294Y-116539989D01*
X149532500Y-116591500D01*
X149532500Y-117567499D01*
X149782472Y-117567499D01*
X149782486Y-117567498D01*
X149885197Y-117557005D01*
X150051619Y-117501858D01*
X150051624Y-117501856D01*
X150200845Y-117409815D01*
X150324810Y-117285850D01*
X150327552Y-117282383D01*
X150384571Y-117242002D01*
X150454370Y-117238858D01*
X150512505Y-117271606D01*
X150522599Y-117281700D01*
X150898100Y-117281700D01*
X150906778Y-117284248D01*
X150915729Y-117282960D01*
X150939776Y-117293937D01*
X150965139Y-117301385D01*
X150971060Y-117308218D01*
X150979289Y-117311975D01*
X150993585Y-117334214D01*
X151010894Y-117354189D01*
X151013180Y-117364694D01*
X151017072Y-117370748D01*
X151022100Y-117405682D01*
X151022101Y-117412482D01*
X151002426Y-117479524D01*
X150949629Y-117525287D01*
X150898101Y-117536500D01*
X150522599Y-117536500D01*
X150522599Y-117810144D01*
X150529000Y-117869672D01*
X150529002Y-117869679D01*
X150579244Y-118004386D01*
X150579246Y-118004388D01*
X150665408Y-118119486D01*
X150665413Y-118119491D01*
X150719522Y-118159998D01*
X150719527Y-118160000D01*
X151177421Y-118160000D01*
X151244460Y-118179685D01*
X151251732Y-118184734D01*
X151280264Y-118206093D01*
X151280271Y-118206097D01*
X151315499Y-118219236D01*
X151415117Y-118256391D01*
X151474727Y-118262800D01*
X151776000Y-118262799D01*
X151784686Y-118265349D01*
X151793647Y-118264061D01*
X151817683Y-118275038D01*
X151843039Y-118282483D01*
X151848967Y-118289325D01*
X151857203Y-118293086D01*
X151871489Y-118315317D01*
X151888794Y-118335287D01*
X151891081Y-118345802D01*
X151894977Y-118351864D01*
X151900000Y-118386799D01*
X151900000Y-118483151D01*
X151880315Y-118550190D01*
X151827511Y-118595945D01*
X151819334Y-118599332D01*
X151780276Y-118613900D01*
X151780264Y-118613906D01*
X151751732Y-118635266D01*
X151730986Y-118643004D01*
X151712356Y-118654977D01*
X151690438Y-118658128D01*
X151686268Y-118659684D01*
X151677421Y-118660000D01*
X151622578Y-118660000D01*
X151555539Y-118640315D01*
X151548267Y-118635266D01*
X151519734Y-118613906D01*
X151519727Y-118613902D01*
X151384885Y-118563610D01*
X151384884Y-118563609D01*
X151384882Y-118563609D01*
X151325272Y-118557200D01*
X151325262Y-118557200D01*
X150974729Y-118557200D01*
X150974722Y-118557201D01*
X150915115Y-118563608D01*
X150780270Y-118613902D01*
X150780263Y-118613906D01*
X150665054Y-118700152D01*
X150665051Y-118700155D01*
X150578805Y-118815364D01*
X150578799Y-118815375D01*
X150565514Y-118850993D01*
X150565514Y-118850997D01*
X150523642Y-118906931D01*
X150458177Y-118931347D01*
X150389904Y-118916495D01*
X150361655Y-118895348D01*
X150266816Y-118800509D01*
X150233333Y-118739186D01*
X150230499Y-118712829D01*
X150230499Y-118575831D01*
X150230498Y-118575806D01*
X150229034Y-118557200D01*
X150227665Y-118539796D01*
X150182869Y-118385607D01*
X150101135Y-118247402D01*
X150101133Y-118247400D01*
X150101130Y-118247396D01*
X149987603Y-118133869D01*
X149987595Y-118133863D01*
X149849393Y-118052131D01*
X149849388Y-118052129D01*
X149695208Y-118007335D01*
X149695202Y-118007334D01*
X149659188Y-118004500D01*
X149659181Y-118004500D01*
X149540097Y-118004500D01*
X149473058Y-117984815D01*
X149452416Y-117968181D01*
X149172590Y-117688355D01*
X149165521Y-117681286D01*
X149165520Y-117681284D01*
X149068816Y-117584580D01*
X149035334Y-117523260D01*
X149032500Y-117496902D01*
X149032500Y-116591500D01*
X149052185Y-116524461D01*
X149104989Y-116478706D01*
X149156500Y-116467500D01*
X149408500Y-116467500D01*
X149475539Y-116487185D01*
G37*
%TD.AperFunction*%
%TA.AperFunction,Conductor*%
G36*
X144770047Y-112260130D02*
G01*
X144814395Y-112288631D01*
X145074369Y-112548605D01*
X145381284Y-112855520D01*
X145381286Y-112855521D01*
X145381290Y-112855524D01*
X145518209Y-112934573D01*
X145518212Y-112934575D01*
X145518216Y-112934577D01*
X145670943Y-112975501D01*
X145670945Y-112975501D01*
X145836654Y-112975501D01*
X145836670Y-112975500D01*
X146848672Y-112975500D01*
X147006787Y-112975501D01*
X147159514Y-112934577D01*
X147295999Y-112855777D01*
X147301897Y-112854346D01*
X147306486Y-112850371D01*
X147335456Y-112846205D01*
X147363900Y-112839305D01*
X147369637Y-112841290D01*
X147375645Y-112840427D01*
X147402268Y-112852585D01*
X147429926Y-112862158D01*
X147433677Y-112866928D01*
X147439201Y-112869451D01*
X147455026Y-112894074D01*
X147473117Y-112917079D01*
X147474533Y-112924428D01*
X147476976Y-112928229D01*
X147481998Y-112963161D01*
X147481999Y-112963164D01*
X147481999Y-113046557D01*
X147481999Y-113046559D01*
X147482000Y-113056553D01*
X147482000Y-113543500D01*
X147462315Y-113610539D01*
X147409511Y-113656294D01*
X147358000Y-113667500D01*
X147332500Y-113667500D01*
X147332500Y-114643500D01*
X147312815Y-114710539D01*
X147260011Y-114756294D01*
X147208500Y-114767500D01*
X146956500Y-114767500D01*
X146889461Y-114747815D01*
X146843706Y-114695011D01*
X146832500Y-114643500D01*
X146832500Y-113667500D01*
X146582529Y-113667500D01*
X146582512Y-113667501D01*
X146479802Y-113677994D01*
X146313380Y-113733141D01*
X146313375Y-113733143D01*
X146164154Y-113825184D01*
X146040184Y-113949154D01*
X145948143Y-114098375D01*
X145948141Y-114098380D01*
X145892994Y-114264802D01*
X145892993Y-114264809D01*
X145882500Y-114367513D01*
X145882500Y-114524968D01*
X145862815Y-114592007D01*
X145810011Y-114637762D01*
X145740853Y-114647706D01*
X145734663Y-114646370D01*
X145734641Y-114646493D01*
X145728408Y-114645354D01*
X145707500Y-114643709D01*
X145707500Y-115298500D01*
X145687815Y-115365539D01*
X145635011Y-115411294D01*
X145583500Y-115422500D01*
X145457500Y-115422500D01*
X145457500Y-115478000D01*
X145437815Y-115545039D01*
X145385011Y-115590794D01*
X145333500Y-115602000D01*
X145222802Y-115602000D01*
X145186508Y-115604856D01*
X145186502Y-115604857D01*
X145031110Y-115650003D01*
X145031105Y-115650006D01*
X145022266Y-115655232D01*
X144959148Y-115672500D01*
X144652996Y-115672500D01*
X144695468Y-115818694D01*
X144707411Y-115838889D01*
X144724592Y-115906613D01*
X144707411Y-115965128D01*
X144695006Y-115986104D01*
X144695004Y-115986109D01*
X144649857Y-116141502D01*
X144649856Y-116141508D01*
X144647000Y-116177802D01*
X144647000Y-116587197D01*
X144649856Y-116623491D01*
X144649857Y-116623497D01*
X144695602Y-116780951D01*
X144696009Y-116781483D01*
X144696107Y-116782687D01*
X144697182Y-116786387D01*
X144696426Y-116786606D01*
X144698647Y-116813844D01*
X144702624Y-116846068D01*
X144701469Y-116848467D01*
X144701686Y-116851121D01*
X144686414Y-116879761D01*
X144672334Y-116909030D01*
X144669679Y-116911147D01*
X144668812Y-116912774D01*
X144661155Y-116917945D01*
X144640770Y-116934205D01*
X144631182Y-116939564D01*
X144627978Y-116940423D01*
X144577858Y-116969360D01*
X144577159Y-116969763D01*
X144577126Y-116969782D01*
X144491048Y-117019479D01*
X144491045Y-117019481D01*
X144145024Y-117365503D01*
X144083701Y-117398988D01*
X144014009Y-117394004D01*
X143958076Y-117352132D01*
X143933659Y-117286668D01*
X143933343Y-117277822D01*
X143933343Y-115172500D01*
X144652996Y-115172500D01*
X145207500Y-115172500D01*
X145207500Y-114643710D01*
X145207499Y-114643709D01*
X145186587Y-114645354D01*
X145186581Y-114645355D01*
X145031309Y-114690466D01*
X145031304Y-114690468D01*
X144892125Y-114772778D01*
X144892116Y-114772785D01*
X144777785Y-114887116D01*
X144777778Y-114887125D01*
X144695468Y-115026304D01*
X144652996Y-115172500D01*
X143933343Y-115172500D01*
X143933343Y-113045684D01*
X143953028Y-112978645D01*
X143969662Y-112958003D01*
X144254450Y-112673215D01*
X144639035Y-112288629D01*
X144700356Y-112255146D01*
X144770047Y-112260130D01*
G37*
%TD.AperFunction*%
%TA.AperFunction,Conductor*%
G36*
X153807276Y-112725243D02*
G01*
X153856220Y-112755356D01*
X154410338Y-113309474D01*
X154443823Y-113370797D01*
X154446657Y-113397155D01*
X154446657Y-113915946D01*
X154426972Y-113982985D01*
X154374168Y-114028740D01*
X154305010Y-114038684D01*
X154241454Y-114009659D01*
X154208096Y-113963398D01*
X154159397Y-113845827D01*
X154159390Y-113845814D01*
X154071789Y-113714711D01*
X154071786Y-113714707D01*
X153960292Y-113603213D01*
X153960288Y-113603210D01*
X153829185Y-113515609D01*
X153829172Y-113515602D01*
X153752926Y-113484021D01*
X153698522Y-113440181D01*
X153676457Y-113373887D01*
X153681302Y-113334864D01*
X153707144Y-113245915D01*
X153707145Y-113245912D01*
X153708790Y-113225000D01*
X153120597Y-113225000D01*
X153091156Y-113216355D01*
X153061170Y-113209832D01*
X153056154Y-113206077D01*
X153053558Y-113205315D01*
X153032916Y-113188681D01*
X152966319Y-113122084D01*
X152932834Y-113060761D01*
X152930000Y-113034403D01*
X152930000Y-112849000D01*
X152949685Y-112781961D01*
X153002489Y-112736206D01*
X153054000Y-112725000D01*
X153734098Y-112725000D01*
X153737443Y-112722999D01*
X153807276Y-112725243D01*
G37*
%TD.AperFunction*%
%TA.AperFunction,Conductor*%
G36*
X139764075Y-110732993D02*
G01*
X139829901Y-110847007D01*
X139922993Y-110940099D01*
X140037007Y-111005925D01*
X140100589Y-111022962D01*
X139468282Y-111655269D01*
X139468282Y-111655270D01*
X139522452Y-111694626D01*
X139522451Y-111694626D01*
X139531495Y-111699234D01*
X139582292Y-111747208D01*
X139599087Y-111815029D01*
X139576550Y-111881164D01*
X139531499Y-111920202D01*
X139522182Y-111924949D01*
X139350213Y-112049890D01*
X139350209Y-112049894D01*
X139212181Y-112187923D01*
X139150858Y-112221408D01*
X139081166Y-112216424D01*
X139025233Y-112174552D01*
X139000816Y-112109088D01*
X139000500Y-112100242D01*
X139000500Y-111426869D01*
X139020185Y-111359830D01*
X139072989Y-111314075D01*
X139108677Y-111307767D01*
X139747037Y-110669408D01*
X139764075Y-110732993D01*
G37*
%TD.AperFunction*%
%TA.AperFunction,Conductor*%
G36*
X158963181Y-111259627D02*
G01*
X158996666Y-111320950D01*
X158999500Y-111347308D01*
X158999500Y-111980242D01*
X158979815Y-112047281D01*
X158927011Y-112093036D01*
X158857853Y-112102980D01*
X158794297Y-112073955D01*
X158787819Y-112067923D01*
X158769786Y-112049890D01*
X158597817Y-111924949D01*
X158588504Y-111920204D01*
X158537707Y-111872230D01*
X158520912Y-111804409D01*
X158543449Y-111738274D01*
X158588507Y-111699232D01*
X158597555Y-111694622D01*
X158651716Y-111655270D01*
X158651717Y-111655270D01*
X158019408Y-111022962D01*
X158082993Y-111005925D01*
X158197007Y-110940099D01*
X158290099Y-110847007D01*
X158355925Y-110732993D01*
X158372962Y-110669408D01*
X158963181Y-111259627D01*
G37*
%TD.AperFunction*%
%TA.AperFunction,Conductor*%
G36*
X139205703Y-108886045D02*
G01*
X139212181Y-108892077D01*
X139350213Y-109030109D01*
X139522179Y-109155048D01*
X139522181Y-109155049D01*
X139522184Y-109155051D01*
X139531493Y-109159794D01*
X139582290Y-109207766D01*
X139599087Y-109275587D01*
X139576552Y-109341722D01*
X139531505Y-109380760D01*
X139522446Y-109385376D01*
X139522440Y-109385380D01*
X139468282Y-109424727D01*
X139468282Y-109424728D01*
X140100591Y-110057037D01*
X140037007Y-110074075D01*
X139922993Y-110139901D01*
X139829901Y-110232993D01*
X139764075Y-110347007D01*
X139747037Y-110410591D01*
X139107598Y-109771152D01*
X139065851Y-109762382D01*
X139016094Y-109713331D01*
X139000500Y-109653129D01*
X139000500Y-108979758D01*
X139020185Y-108912719D01*
X139072989Y-108866964D01*
X139142147Y-108857020D01*
X139205703Y-108886045D01*
G37*
%TD.AperFunction*%
%TA.AperFunction,Conductor*%
G36*
X156618883Y-108604787D02*
G01*
X156634088Y-108604136D01*
X156651726Y-108614431D01*
X156671320Y-108620185D01*
X156682216Y-108632228D01*
X156694430Y-108639358D01*
X156714765Y-108668205D01*
X156734947Y-108707814D01*
X156734948Y-108707815D01*
X156859890Y-108879786D01*
X157010213Y-109030109D01*
X157182179Y-109155048D01*
X157182181Y-109155049D01*
X157182184Y-109155051D01*
X157191493Y-109159794D01*
X157242290Y-109207766D01*
X157259087Y-109275587D01*
X157236552Y-109341722D01*
X157191505Y-109380760D01*
X157182446Y-109385376D01*
X157182440Y-109385380D01*
X157128282Y-109424727D01*
X157128282Y-109424728D01*
X157760591Y-110057037D01*
X157697007Y-110074075D01*
X157582993Y-110139901D01*
X157489901Y-110232993D01*
X157424075Y-110347007D01*
X157407037Y-110410591D01*
X156774728Y-109778282D01*
X156774727Y-109778282D01*
X156735380Y-109832439D01*
X156638904Y-110021782D01*
X156637045Y-110026273D01*
X156635664Y-110025701D01*
X156599968Y-110077892D01*
X156535606Y-110105082D01*
X156466761Y-110093160D01*
X156433805Y-110069570D01*
X156167347Y-109803112D01*
X156133862Y-109741789D01*
X156138846Y-109672097D01*
X156167347Y-109627749D01*
X156254717Y-109540379D01*
X156254721Y-109540374D01*
X156337031Y-109401195D01*
X156337033Y-109401190D01*
X156382144Y-109245918D01*
X156382145Y-109245912D01*
X156383790Y-109225000D01*
X155729000Y-109225000D01*
X155661961Y-109205315D01*
X155616206Y-109152511D01*
X155605000Y-109101000D01*
X155605000Y-108849000D01*
X155624685Y-108781961D01*
X155677489Y-108736206D01*
X155729000Y-108725000D01*
X156383790Y-108725000D01*
X156387236Y-108721272D01*
X156398881Y-108665848D01*
X156447934Y-108616093D01*
X156508133Y-108600500D01*
X156604281Y-108600500D01*
X156618883Y-108604787D01*
G37*
%TD.AperFunction*%
%TA.AperFunction,Conductor*%
G36*
X158918834Y-108983576D02*
G01*
X158974767Y-109025448D01*
X158999184Y-109090912D01*
X158999500Y-109099758D01*
X158999500Y-109732692D01*
X158979815Y-109799731D01*
X158963181Y-109820373D01*
X158372962Y-110410591D01*
X158355925Y-110347007D01*
X158290099Y-110232993D01*
X158197007Y-110139901D01*
X158082993Y-110074075D01*
X158019409Y-110057037D01*
X158651716Y-109424728D01*
X158597547Y-109385373D01*
X158597547Y-109385372D01*
X158588500Y-109380763D01*
X158537706Y-109332788D01*
X158520912Y-109264966D01*
X158543451Y-109198832D01*
X158588508Y-109159793D01*
X158597816Y-109155051D01*
X158701764Y-109079529D01*
X158769786Y-109030109D01*
X158769788Y-109030106D01*
X158769792Y-109030104D01*
X158787819Y-109012077D01*
X158849142Y-108978592D01*
X158918834Y-108983576D01*
G37*
%TD.AperFunction*%
%TA.AperFunction,Conductor*%
G36*
X147485258Y-106034734D02*
G01*
X147489772Y-106034520D01*
X147522536Y-106047637D01*
X147543216Y-106059577D01*
X147695943Y-106100500D01*
X147854057Y-106100500D01*
X148770943Y-106100500D01*
X150175500Y-106100500D01*
X150242539Y-106120185D01*
X150288294Y-106172989D01*
X150299500Y-106224500D01*
X150299500Y-108270939D01*
X150299499Y-108270943D01*
X150299499Y-108429057D01*
X150299500Y-108429060D01*
X150299500Y-108575500D01*
X150279815Y-108642539D01*
X150227011Y-108688294D01*
X150175500Y-108699500D01*
X148283029Y-108699500D01*
X148283013Y-108699499D01*
X148275417Y-108699499D01*
X148117303Y-108699499D01*
X148109707Y-108699499D01*
X148109691Y-108699500D01*
X147706421Y-108699500D01*
X147639382Y-108679815D01*
X147599033Y-108637499D01*
X147589037Y-108620185D01*
X147563107Y-108575272D01*
X147451303Y-108463468D01*
X147451302Y-108463467D01*
X147446972Y-108459137D01*
X147446961Y-108459127D01*
X147233906Y-108246072D01*
X147200421Y-108184749D01*
X147205405Y-108115057D01*
X147218485Y-108089500D01*
X147232374Y-108068713D01*
X147257574Y-108030999D01*
X147317917Y-107885317D01*
X147348680Y-107730662D01*
X147348680Y-107572978D01*
X147334546Y-107501923D01*
X147340772Y-107432336D01*
X147368479Y-107390055D01*
X147392139Y-107366397D01*
X147479744Y-107235287D01*
X147482147Y-107229487D01*
X147494584Y-107199460D01*
X147540087Y-107089605D01*
X147570850Y-106934950D01*
X147570850Y-106777266D01*
X147570850Y-106777263D01*
X147570849Y-106777261D01*
X147560392Y-106724692D01*
X147540087Y-106622611D01*
X147510389Y-106550912D01*
X147479747Y-106476935D01*
X147479740Y-106476922D01*
X147392140Y-106345820D01*
X147386106Y-106339786D01*
X147363461Y-106317141D01*
X147329977Y-106255821D01*
X147329526Y-106205270D01*
X147336536Y-106170031D01*
X147336536Y-106155024D01*
X147338246Y-106149197D01*
X147337098Y-106143236D01*
X147347976Y-106116063D01*
X147356221Y-106087985D01*
X147360808Y-106084009D01*
X147363066Y-106078371D01*
X147386913Y-106061389D01*
X147409025Y-106042230D01*
X147415033Y-106041366D01*
X147419981Y-106037843D01*
X147449216Y-106036450D01*
X147478183Y-106032286D01*
X147485258Y-106034734D01*
G37*
%TD.AperFunction*%
%TA.AperFunction,Conductor*%
G36*
X141686653Y-107448761D02*
G01*
X141726065Y-107475300D01*
X142055010Y-107804245D01*
X142088495Y-107865568D01*
X142083511Y-107935260D01*
X142074062Y-107955045D01*
X142062969Y-107973801D01*
X142062966Y-107973809D01*
X142017855Y-108129081D01*
X142017854Y-108129087D01*
X142016209Y-108149999D01*
X142016210Y-108150000D01*
X142349418Y-108150000D01*
X142365706Y-108154549D01*
X142381189Y-108154139D01*
X142403498Y-108165104D01*
X142413670Y-108167945D01*
X142426454Y-108175690D01*
X142431284Y-108180520D01*
X142496957Y-108218436D01*
X142568215Y-108259577D01*
X142703097Y-108295718D01*
X142726871Y-108310209D01*
X142752203Y-108321778D01*
X142756293Y-108328142D01*
X142762753Y-108332080D01*
X142774920Y-108357128D01*
X142789977Y-108380556D01*
X142791522Y-108391302D01*
X142793283Y-108394927D01*
X142795000Y-108415491D01*
X142795000Y-108475500D01*
X142775315Y-108542539D01*
X142722511Y-108588294D01*
X142671000Y-108599500D01*
X141790097Y-108599500D01*
X141723058Y-108579815D01*
X141702416Y-108563181D01*
X141578472Y-108439237D01*
X141544987Y-108377914D01*
X141547820Y-108321389D01*
X141546109Y-108320979D01*
X141547246Y-108316241D01*
X141548202Y-108310209D01*
X141580500Y-108106287D01*
X141580500Y-107893713D01*
X141547246Y-107683757D01*
X141520452Y-107601296D01*
X141518458Y-107531458D01*
X141554538Y-107471625D01*
X141617239Y-107440797D01*
X141686653Y-107448761D01*
G37*
%TD.AperFunction*%
%TA.AperFunction,Conductor*%
G36*
X154876677Y-102822058D02*
G01*
X154932610Y-102863930D01*
X154957027Y-102929394D01*
X154957343Y-102938240D01*
X154957343Y-103776000D01*
X154954792Y-103784685D01*
X154956081Y-103793647D01*
X154945102Y-103817687D01*
X154937658Y-103843039D01*
X154930817Y-103848966D01*
X154927056Y-103857203D01*
X154904821Y-103871492D01*
X154884854Y-103888794D01*
X154874339Y-103891081D01*
X154868278Y-103894977D01*
X154833343Y-103900000D01*
X154744500Y-103900000D01*
X154677461Y-103880315D01*
X154631706Y-103827511D01*
X154620500Y-103776000D01*
X154620500Y-103665317D01*
X154620499Y-103665302D01*
X154617643Y-103629008D01*
X154617642Y-103629002D01*
X154572495Y-103473608D01*
X154572492Y-103473600D01*
X154567266Y-103464763D01*
X154550000Y-103401645D01*
X154550000Y-103097583D01*
X154558644Y-103068142D01*
X154565168Y-103038156D01*
X154568922Y-103033140D01*
X154569685Y-103030544D01*
X154586319Y-103009902D01*
X154745662Y-102850559D01*
X154806985Y-102817074D01*
X154876677Y-102822058D01*
G37*
%TD.AperFunction*%
%TA.AperFunction,Conductor*%
G36*
X153478128Y-100915184D02*
G01*
X153523883Y-100967988D01*
X153535089Y-101019499D01*
X153535089Y-101343978D01*
X153515404Y-101411017D01*
X153462600Y-101456772D01*
X153393442Y-101466716D01*
X153376495Y-101463055D01*
X153220912Y-101417854D01*
X153200000Y-101416209D01*
X153200000Y-102071000D01*
X153180315Y-102138039D01*
X153127511Y-102183794D01*
X153076000Y-102195000D01*
X152824000Y-102195000D01*
X152756961Y-102175315D01*
X152711206Y-102122511D01*
X152700000Y-102071000D01*
X152700000Y-101416210D01*
X152699999Y-101416209D01*
X152679087Y-101417854D01*
X152629896Y-101432146D01*
X152560027Y-101431946D01*
X152501357Y-101394003D01*
X152482863Y-101365352D01*
X152412137Y-101213250D01*
X152407805Y-101184524D01*
X152400661Y-101156364D01*
X152402659Y-101150389D01*
X152401720Y-101144161D01*
X152413607Y-101117652D01*
X152422821Y-101090102D01*
X152428202Y-101085106D01*
X152430309Y-101080408D01*
X152440246Y-101073925D01*
X152461456Y-101054235D01*
X152597813Y-100973594D01*
X152597812Y-100973594D01*
X152597820Y-100973590D01*
X152606145Y-100965265D01*
X152624592Y-100946819D01*
X152685915Y-100913334D01*
X152712273Y-100910500D01*
X153000939Y-100910500D01*
X153000943Y-100910501D01*
X153159057Y-100910501D01*
X153211218Y-100896523D01*
X153223568Y-100895745D01*
X153225748Y-100896238D01*
X153231367Y-100895499D01*
X153411089Y-100895499D01*
X153478128Y-100915184D01*
G37*
%TD.AperFunction*%
%TA.AperFunction,Conductor*%
G36*
X141345270Y-98601717D02*
G01*
X141345270Y-98601716D01*
X141384622Y-98547554D01*
X141481096Y-98358215D01*
X141508033Y-98275311D01*
X141509954Y-98272501D01*
X141510232Y-98269107D01*
X141529537Y-98243860D01*
X141547470Y-98217635D01*
X141550605Y-98216309D01*
X141552674Y-98213605D01*
X141582555Y-98202807D01*
X141611828Y-98190436D01*
X141615183Y-98191016D01*
X141618385Y-98189860D01*
X141649358Y-98196930D01*
X141680675Y-98202350D01*
X141684167Y-98204876D01*
X141686503Y-98205410D01*
X141694670Y-98212475D01*
X141714539Y-98226850D01*
X141722612Y-98235091D01*
X141724480Y-98238325D01*
X141788639Y-98302484D01*
X141789074Y-98302928D01*
X141805223Y-98333237D01*
X141821665Y-98363348D01*
X141821765Y-98364284D01*
X141821929Y-98364591D01*
X141821872Y-98365279D01*
X141824499Y-98389706D01*
X141824499Y-98430427D01*
X141828818Y-98446544D01*
X141858591Y-98557657D01*
X141865422Y-98583153D01*
X141865423Y-98583156D01*
X141944475Y-98720079D01*
X141944479Y-98720084D01*
X141944480Y-98720086D01*
X142056284Y-98831890D01*
X142056285Y-98831891D01*
X142223628Y-98999234D01*
X142363181Y-99138786D01*
X142377884Y-99165713D01*
X142394477Y-99191532D01*
X142395368Y-99197732D01*
X142396666Y-99200109D01*
X142399500Y-99226467D01*
X142399500Y-99338460D01*
X142379815Y-99405499D01*
X142363181Y-99426141D01*
X141949214Y-99840107D01*
X141949215Y-99840108D01*
X141844478Y-99944844D01*
X141807927Y-100008154D01*
X141782234Y-100052657D01*
X141781198Y-100054452D01*
X141768812Y-100075904D01*
X141718243Y-100124118D01*
X141649635Y-100137338D01*
X141584771Y-100111368D01*
X141544245Y-100054452D01*
X141543519Y-100052288D01*
X141481557Y-99861588D01*
X141385051Y-99672184D01*
X141385049Y-99672181D01*
X141385048Y-99672179D01*
X141260109Y-99500213D01*
X141109786Y-99349890D01*
X140937817Y-99224949D01*
X140928504Y-99220204D01*
X140877707Y-99172230D01*
X140860912Y-99104409D01*
X140883449Y-99038274D01*
X140928507Y-98999232D01*
X140937555Y-98994622D01*
X140991716Y-98955270D01*
X140991717Y-98955270D01*
X140359408Y-98322962D01*
X140422993Y-98305925D01*
X140537007Y-98240099D01*
X140630099Y-98147007D01*
X140695925Y-98032993D01*
X140712962Y-97969408D01*
X141345270Y-98601717D01*
G37*
%TD.AperFunction*%
%TA.AperFunction,Conductor*%
G36*
X139764075Y-98032993D02*
G01*
X139829901Y-98147007D01*
X139922993Y-98240099D01*
X140037007Y-98305925D01*
X140100590Y-98322962D01*
X139468282Y-98955269D01*
X139468282Y-98955270D01*
X139522452Y-98994626D01*
X139522451Y-98994626D01*
X139531495Y-98999234D01*
X139582292Y-99047208D01*
X139599087Y-99115029D01*
X139576550Y-99181164D01*
X139531499Y-99220202D01*
X139522182Y-99224949D01*
X139350213Y-99349890D01*
X139350209Y-99349894D01*
X139212181Y-99487923D01*
X139150858Y-99521408D01*
X139081166Y-99516424D01*
X139025233Y-99474552D01*
X139000816Y-99409088D01*
X139000500Y-99400242D01*
X139000500Y-98726869D01*
X139020185Y-98659830D01*
X139072989Y-98614075D01*
X139108677Y-98607767D01*
X139747037Y-97969408D01*
X139764075Y-98032993D01*
G37*
%TD.AperFunction*%
%TA.AperFunction,Conductor*%
G36*
X158963181Y-98559627D02*
G01*
X158996666Y-98620950D01*
X158999500Y-98647308D01*
X158999500Y-99280242D01*
X158979815Y-99347281D01*
X158927011Y-99393036D01*
X158857853Y-99402980D01*
X158794297Y-99373955D01*
X158787819Y-99367923D01*
X158769786Y-99349890D01*
X158597817Y-99224949D01*
X158588504Y-99220204D01*
X158537707Y-99172230D01*
X158520912Y-99104409D01*
X158543449Y-99038274D01*
X158588507Y-98999232D01*
X158597555Y-98994622D01*
X158651716Y-98955270D01*
X158651717Y-98955270D01*
X158019409Y-98322962D01*
X158082993Y-98305925D01*
X158197007Y-98240099D01*
X158290099Y-98147007D01*
X158355925Y-98032993D01*
X158372962Y-97969408D01*
X158963181Y-98559627D01*
G37*
%TD.AperFunction*%
%TA.AperFunction,Conductor*%
G36*
X149659685Y-98842550D02*
G01*
X149668647Y-98841262D01*
X149692687Y-98852240D01*
X149718039Y-98859685D01*
X149723966Y-98866525D01*
X149732203Y-98870287D01*
X149746492Y-98892521D01*
X149763794Y-98912489D01*
X149766081Y-98923003D01*
X149769977Y-98929065D01*
X149775000Y-98964000D01*
X149775000Y-99145500D01*
X149755315Y-99212539D01*
X149702511Y-99258294D01*
X149651000Y-99269500D01*
X149540302Y-99269500D01*
X149504008Y-99272356D01*
X149504002Y-99272357D01*
X149348608Y-99317504D01*
X149348600Y-99317507D01*
X149339767Y-99322732D01*
X149323865Y-99327082D01*
X149311581Y-99334977D01*
X149276646Y-99340000D01*
X149273354Y-99340000D01*
X149210233Y-99322732D01*
X149201399Y-99317507D01*
X149201391Y-99317504D01*
X149045997Y-99272357D01*
X149045991Y-99272356D01*
X149009697Y-99269500D01*
X149009690Y-99269500D01*
X148899000Y-99269500D01*
X148831961Y-99249815D01*
X148786206Y-99197011D01*
X148775000Y-99145500D01*
X148775000Y-98964000D01*
X148794685Y-98896961D01*
X148847489Y-98851206D01*
X148899000Y-98840000D01*
X149651000Y-98840000D01*
X149659685Y-98842550D01*
G37*
%TD.AperFunction*%
%TA.AperFunction,Conductor*%
G36*
X139205703Y-96186045D02*
G01*
X139212181Y-96192077D01*
X139350213Y-96330109D01*
X139522179Y-96455048D01*
X139522181Y-96455049D01*
X139522184Y-96455051D01*
X139531493Y-96459794D01*
X139582290Y-96507766D01*
X139599087Y-96575587D01*
X139576552Y-96641722D01*
X139531505Y-96680760D01*
X139522446Y-96685376D01*
X139522440Y-96685380D01*
X139468282Y-96724727D01*
X139468282Y-96724728D01*
X140100591Y-97357037D01*
X140037007Y-97374075D01*
X139922993Y-97439901D01*
X139829901Y-97532993D01*
X139764075Y-97647007D01*
X139747037Y-97710591D01*
X139107598Y-97071152D01*
X139065851Y-97062382D01*
X139016094Y-97013331D01*
X139000500Y-96953129D01*
X139000500Y-96279758D01*
X139020185Y-96212719D01*
X139072989Y-96166964D01*
X139142147Y-96157020D01*
X139205703Y-96186045D01*
G37*
%TD.AperFunction*%
%TA.AperFunction,Conductor*%
G36*
X158918834Y-96283576D02*
G01*
X158974767Y-96325448D01*
X158999184Y-96390912D01*
X158999500Y-96399758D01*
X158999500Y-97032692D01*
X158979815Y-97099731D01*
X158963181Y-97120373D01*
X158372962Y-97710591D01*
X158355925Y-97647007D01*
X158290099Y-97532993D01*
X158197007Y-97439901D01*
X158082993Y-97374075D01*
X158019407Y-97357036D01*
X158651716Y-96724728D01*
X158597547Y-96685373D01*
X158597547Y-96685372D01*
X158588500Y-96680763D01*
X158537706Y-96632788D01*
X158520912Y-96564966D01*
X158543451Y-96498832D01*
X158588508Y-96459793D01*
X158597816Y-96455051D01*
X158708208Y-96374847D01*
X158769786Y-96330109D01*
X158769788Y-96330106D01*
X158769792Y-96330104D01*
X158787819Y-96312077D01*
X158849142Y-96278592D01*
X158918834Y-96283576D01*
G37*
%TD.AperFunction*%
%TA.AperFunction,Conductor*%
G36*
X146790665Y-91288673D02*
G01*
X146837356Y-91340652D01*
X146849499Y-91394169D01*
X146849499Y-91751376D01*
X146829814Y-91818415D01*
X146824766Y-91825687D01*
X146752203Y-91922618D01*
X146752201Y-91922621D01*
X146701907Y-92057467D01*
X146695500Y-92117066D01*
X146695499Y-92117085D01*
X146695499Y-92987520D01*
X146695500Y-92987526D01*
X146701907Y-93047133D01*
X146752201Y-93181978D01*
X146752205Y-93181985D01*
X146838451Y-93297194D01*
X146838454Y-93297197D01*
X146953663Y-93383443D01*
X146953670Y-93383447D01*
X147088515Y-93433741D01*
X147148113Y-93440149D01*
X147148120Y-93440149D01*
X147148126Y-93440150D01*
X147148131Y-93440149D01*
X147151433Y-93440327D01*
X147151423Y-93440505D01*
X147151430Y-93440506D01*
X147151416Y-93440627D01*
X147151355Y-93441777D01*
X147212846Y-93459772D01*
X147233583Y-93476468D01*
X148241010Y-94483895D01*
X148274495Y-94545218D01*
X148269511Y-94614910D01*
X148227639Y-94670843D01*
X148190221Y-94689961D01*
X148135602Y-94706981D01*
X147990122Y-94794927D01*
X147869927Y-94915122D01*
X147781980Y-95060604D01*
X147731409Y-95222893D01*
X147725000Y-95293427D01*
X147725000Y-95900000D01*
X148501000Y-95900000D01*
X148568039Y-95919685D01*
X148613794Y-95972489D01*
X148625000Y-96024000D01*
X148625000Y-96276000D01*
X148605315Y-96343039D01*
X148552511Y-96388794D01*
X148501000Y-96400000D01*
X147725001Y-96400000D01*
X147725001Y-97006582D01*
X147731407Y-97077099D01*
X147731409Y-97077105D01*
X147752406Y-97144491D01*
X147753556Y-97214352D01*
X147721701Y-97269061D01*
X147353473Y-97637290D01*
X147329036Y-97650633D01*
X147306350Y-97666789D01*
X147298790Y-97667149D01*
X147292150Y-97670775D01*
X147264376Y-97668788D01*
X147236559Y-97670114D01*
X147226478Y-97666078D01*
X147222459Y-97665791D01*
X147203793Y-97656997D01*
X147192540Y-97650500D01*
X147173470Y-97639490D01*
X147173469Y-97639489D01*
X147131790Y-97615425D01*
X147131789Y-97615424D01*
X147119263Y-97612067D01*
X146979057Y-97574499D01*
X146820943Y-97574499D01*
X146813347Y-97574499D01*
X146813331Y-97574500D01*
X146799500Y-97574500D01*
X146732461Y-97554815D01*
X146686706Y-97502011D01*
X146675500Y-97450500D01*
X146675500Y-94164059D01*
X146675501Y-94164046D01*
X146675501Y-93995945D01*
X146675501Y-93995943D01*
X146634577Y-93843215D01*
X146586821Y-93760500D01*
X146555520Y-93706284D01*
X146443716Y-93594480D01*
X146443715Y-93594479D01*
X146439385Y-93590149D01*
X146439374Y-93590139D01*
X146036818Y-93187583D01*
X146003333Y-93126260D01*
X146000499Y-93099902D01*
X146000499Y-92751662D01*
X146000498Y-92751644D01*
X145990349Y-92652292D01*
X145990348Y-92652289D01*
X145951397Y-92534743D01*
X145937003Y-92491303D01*
X145851760Y-92353104D01*
X145833320Y-92285715D01*
X145854242Y-92219051D01*
X145863379Y-92207925D01*
X145868075Y-92201870D01*
X145868081Y-92201865D01*
X145951744Y-92060398D01*
X145997598Y-91902569D01*
X146000500Y-91865694D01*
X146000500Y-91517648D01*
X146020185Y-91450609D01*
X146072989Y-91404854D01*
X146142147Y-91394910D01*
X146148672Y-91396027D01*
X146171158Y-91400500D01*
X146328844Y-91400500D01*
X146328845Y-91400499D01*
X146483497Y-91369737D01*
X146629179Y-91309394D01*
X146629185Y-91309390D01*
X146656608Y-91291067D01*
X146723285Y-91270189D01*
X146790665Y-91288673D01*
G37*
%TD.AperFunction*%
%TA.AperFunction,Conductor*%
G36*
X154658039Y-96919685D02*
G01*
X154703794Y-96972489D01*
X154715000Y-97024000D01*
X154715000Y-97276000D01*
X154695315Y-97343039D01*
X154642511Y-97388794D01*
X154591000Y-97400000D01*
X154280514Y-97400000D01*
X154213475Y-97380315D01*
X154211623Y-97379102D01*
X154079185Y-97290609D01*
X154079172Y-97290602D01*
X153933501Y-97230264D01*
X153933489Y-97230261D01*
X153778845Y-97199500D01*
X153778842Y-97199500D01*
X153734000Y-97199500D01*
X153725314Y-97196949D01*
X153716353Y-97198238D01*
X153692312Y-97187259D01*
X153666961Y-97179815D01*
X153661033Y-97172974D01*
X153652797Y-97169213D01*
X153638507Y-97146978D01*
X153621206Y-97127011D01*
X153618918Y-97116496D01*
X153615023Y-97110435D01*
X153610000Y-97075500D01*
X153610000Y-97059924D01*
X153629685Y-96992885D01*
X153648150Y-96972720D01*
X153647082Y-96971652D01*
X153682415Y-96936319D01*
X153743738Y-96902834D01*
X153770096Y-96900000D01*
X154591000Y-96900000D01*
X154658039Y-96919685D01*
G37*
%TD.AperFunction*%
%TA.AperFunction,Conductor*%
G36*
X152171673Y-96278846D02*
G01*
X152228373Y-96319674D01*
X152253999Y-96384674D01*
X152254500Y-96395810D01*
X152254500Y-96524169D01*
X152254501Y-96524191D01*
X152257335Y-96560205D01*
X152302129Y-96714388D01*
X152302130Y-96714391D01*
X152302131Y-96714393D01*
X152308243Y-96724728D01*
X152336419Y-96772371D01*
X152353601Y-96840095D01*
X152336419Y-96898611D01*
X152302593Y-96955807D01*
X152302592Y-96955812D01*
X152257833Y-97109870D01*
X152257832Y-97109875D01*
X152255894Y-97134509D01*
X152251404Y-97146287D01*
X152251492Y-97158889D01*
X152239197Y-97178314D01*
X152231009Y-97199797D01*
X152220866Y-97207277D01*
X152214126Y-97217927D01*
X152193281Y-97227621D01*
X152174778Y-97241268D01*
X152160685Y-97242781D01*
X152150772Y-97247392D01*
X152123645Y-97246759D01*
X152115479Y-97247636D01*
X152111759Y-97247127D01*
X152080351Y-97240880D01*
X152066064Y-97240880D01*
X152057703Y-97239737D01*
X152033210Y-97228755D01*
X152007461Y-97221195D01*
X152001816Y-97214680D01*
X151993948Y-97211153D01*
X151979279Y-97188671D01*
X151961706Y-97168391D01*
X151959534Y-97158411D01*
X151955768Y-97152638D01*
X151955685Y-97140715D01*
X151950500Y-97116880D01*
X151950500Y-96407626D01*
X151970185Y-96340587D01*
X152022989Y-96294832D01*
X152060104Y-96284464D01*
X152065073Y-96283883D01*
X152101901Y-96275154D01*
X152171673Y-96278846D01*
G37*
%TD.AperFunction*%
%TA.AperFunction,Conductor*%
G36*
X152121091Y-94848883D02*
G01*
X152139758Y-94857678D01*
X152264292Y-94929577D01*
X152358188Y-94954735D01*
X152359192Y-94955024D01*
X152387832Y-94973181D01*
X152416746Y-94990805D01*
X152417242Y-94991826D01*
X152418202Y-94992435D01*
X152432474Y-95023183D01*
X152447275Y-95053652D01*
X152447140Y-95054779D01*
X152447619Y-95055811D01*
X152443000Y-95089402D01*
X152438980Y-95123027D01*
X152438223Y-95124144D01*
X152438102Y-95125029D01*
X152435821Y-95127694D01*
X152412673Y-95161897D01*
X152262465Y-95312104D01*
X152201142Y-95345588D01*
X152131450Y-95340604D01*
X152087103Y-95312103D01*
X151908912Y-95133912D01*
X151875427Y-95072589D01*
X151880411Y-95002897D01*
X151908911Y-94958550D01*
X151990076Y-94877384D01*
X152051399Y-94843899D01*
X152121091Y-94848883D01*
G37*
%TD.AperFunction*%
%TA.AperFunction,Conductor*%
G36*
X143793115Y-79210185D02*
G01*
X143838870Y-79262989D01*
X143848814Y-79332147D01*
X143829178Y-79383391D01*
X143793814Y-79436315D01*
X143793807Y-79436328D01*
X143718430Y-79618306D01*
X143718427Y-79618318D01*
X143680000Y-79811504D01*
X143680000Y-79960000D01*
X144380000Y-79960000D01*
X144380000Y-80460000D01*
X143680000Y-80460000D01*
X143680000Y-80608495D01*
X143718427Y-80801681D01*
X143718430Y-80801693D01*
X143793807Y-80983671D01*
X143793814Y-80983684D01*
X143903248Y-81147462D01*
X143903251Y-81147466D01*
X144042533Y-81286748D01*
X144042537Y-81286751D01*
X144206315Y-81396185D01*
X144206328Y-81396192D01*
X144388308Y-81471569D01*
X144430000Y-81479862D01*
X144430000Y-80676988D01*
X144439940Y-80694205D01*
X144495795Y-80750060D01*
X144564204Y-80789556D01*
X144640504Y-80810000D01*
X144719496Y-80810000D01*
X144795796Y-80789556D01*
X144864205Y-80750060D01*
X144920060Y-80694205D01*
X144930000Y-80676988D01*
X144930000Y-81479862D01*
X144971690Y-81471569D01*
X144971692Y-81471569D01*
X145153671Y-81396192D01*
X145153684Y-81396185D01*
X145317462Y-81286751D01*
X145317466Y-81286748D01*
X145456748Y-81147466D01*
X145456751Y-81147462D01*
X145566185Y-80983684D01*
X145566192Y-80983671D01*
X145641569Y-80801693D01*
X145641572Y-80801681D01*
X145679999Y-80608495D01*
X145680000Y-80608492D01*
X145680000Y-80460000D01*
X144980000Y-80460000D01*
X144980000Y-79960000D01*
X145680000Y-79960000D01*
X145680000Y-79811508D01*
X145679999Y-79811504D01*
X145641572Y-79618318D01*
X145641569Y-79618306D01*
X145566192Y-79436328D01*
X145566185Y-79436315D01*
X145530822Y-79383391D01*
X145509944Y-79316714D01*
X145528428Y-79249334D01*
X145580407Y-79202643D01*
X145633924Y-79190500D01*
X152366076Y-79190500D01*
X152433115Y-79210185D01*
X152478870Y-79262989D01*
X152488814Y-79332147D01*
X152469178Y-79383391D01*
X152433814Y-79436315D01*
X152433807Y-79436328D01*
X152358430Y-79618306D01*
X152358427Y-79618318D01*
X152320000Y-79811504D01*
X152320000Y-79960000D01*
X153020000Y-79960000D01*
X153020000Y-80460000D01*
X152320000Y-80460000D01*
X152320000Y-80608495D01*
X152358427Y-80801681D01*
X152358430Y-80801693D01*
X152433807Y-80983671D01*
X152433814Y-80983684D01*
X152543248Y-81147462D01*
X152543251Y-81147466D01*
X152682533Y-81286748D01*
X152682537Y-81286751D01*
X152846315Y-81396185D01*
X152846328Y-81396192D01*
X153028308Y-81471569D01*
X153070000Y-81479862D01*
X153070000Y-80676988D01*
X153079940Y-80694205D01*
X153135795Y-80750060D01*
X153204204Y-80789556D01*
X153280504Y-80810000D01*
X153359496Y-80810000D01*
X153435796Y-80789556D01*
X153504205Y-80750060D01*
X153560060Y-80694205D01*
X153570000Y-80676988D01*
X153570000Y-81479862D01*
X153611690Y-81471569D01*
X153611692Y-81471569D01*
X153793671Y-81396192D01*
X153793684Y-81396185D01*
X153957462Y-81286751D01*
X153957466Y-81286748D01*
X154096748Y-81147466D01*
X154096751Y-81147462D01*
X154206185Y-80983684D01*
X154206192Y-80983671D01*
X154281569Y-80801693D01*
X154281572Y-80801681D01*
X154319999Y-80608495D01*
X154320000Y-80608492D01*
X154320000Y-80460000D01*
X153620000Y-80460000D01*
X153620000Y-79960000D01*
X154320000Y-79960000D01*
X154320000Y-79811508D01*
X154319999Y-79811504D01*
X154281572Y-79618318D01*
X154281569Y-79618306D01*
X154206192Y-79436328D01*
X154206185Y-79436315D01*
X154170822Y-79383391D01*
X154149944Y-79316714D01*
X154168428Y-79249334D01*
X154220407Y-79202643D01*
X154273924Y-79190500D01*
X156415500Y-79190500D01*
X156482539Y-79210185D01*
X156528294Y-79262989D01*
X156539500Y-79314500D01*
X156539500Y-80509902D01*
X156519815Y-80576941D01*
X156503181Y-80597583D01*
X154368366Y-82732398D01*
X154360420Y-82736736D01*
X154354995Y-82743984D01*
X154330235Y-82753218D01*
X154307043Y-82765883D01*
X154298013Y-82765237D01*
X154289531Y-82768401D01*
X154263710Y-82762784D01*
X154237351Y-82760899D01*
X154228297Y-82755080D01*
X154221258Y-82753549D01*
X154193004Y-82732398D01*
X154138961Y-82678355D01*
X154138959Y-82678352D01*
X154020088Y-82559481D01*
X154020080Y-82559475D01*
X153919592Y-82501459D01*
X153919591Y-82501458D01*
X153919591Y-82501459D01*
X153883156Y-82480423D01*
X153730428Y-82439499D01*
X153572314Y-82439499D01*
X153564718Y-82439499D01*
X153564702Y-82439500D01*
X151676346Y-82439500D01*
X151635425Y-82450464D01*
X151635425Y-82450465D01*
X151598157Y-82460451D01*
X151523620Y-82480423D01*
X151523615Y-82480426D01*
X151386696Y-82559475D01*
X151386688Y-82559481D01*
X150734481Y-83211688D01*
X150734475Y-83211696D01*
X150696864Y-83276842D01*
X150696864Y-83276844D01*
X150655423Y-83348620D01*
X150655423Y-83348621D01*
X150614499Y-83501349D01*
X150614499Y-83501351D01*
X150614499Y-83669452D01*
X150614500Y-83669465D01*
X150614500Y-83971252D01*
X150594815Y-84038291D01*
X150542011Y-84084046D01*
X150474315Y-84094191D01*
X150362730Y-84079501D01*
X150362725Y-84079500D01*
X150362720Y-84079500D01*
X150182507Y-84079500D01*
X150153066Y-84070855D01*
X150123080Y-84064332D01*
X150118064Y-84060577D01*
X150115468Y-84059815D01*
X150094826Y-84043181D01*
X149970000Y-83918355D01*
X149969998Y-83918352D01*
X149851127Y-83799481D01*
X149851126Y-83799480D01*
X149748818Y-83740413D01*
X149748817Y-83740412D01*
X149714193Y-83720422D01*
X149637073Y-83699758D01*
X149561467Y-83679499D01*
X149403353Y-83679499D01*
X149395757Y-83679499D01*
X149395741Y-83679500D01*
X148938530Y-83679500D01*
X148897609Y-83690464D01*
X148897609Y-83690465D01*
X148862928Y-83699758D01*
X148785804Y-83720423D01*
X148785799Y-83720426D01*
X148648880Y-83799475D01*
X148648872Y-83799481D01*
X148405173Y-84043181D01*
X148343850Y-84076666D01*
X148317492Y-84079500D01*
X148137272Y-84079500D01*
X148050393Y-84090938D01*
X148024764Y-84094313D01*
X148024762Y-84094313D01*
X148016708Y-84095374D01*
X148016316Y-84092399D01*
X147983684Y-84092399D01*
X147983292Y-84095374D01*
X147975237Y-84094313D01*
X147975236Y-84094313D01*
X147946271Y-84090499D01*
X147862727Y-84079500D01*
X147862720Y-84079500D01*
X147637280Y-84079500D01*
X147637272Y-84079500D01*
X147550393Y-84090938D01*
X147524764Y-84094313D01*
X147524762Y-84094313D01*
X147516708Y-84095374D01*
X147516316Y-84092399D01*
X147483684Y-84092399D01*
X147483292Y-84095374D01*
X147475237Y-84094313D01*
X147475236Y-84094313D01*
X147446271Y-84090499D01*
X147362727Y-84079500D01*
X147362720Y-84079500D01*
X147137280Y-84079500D01*
X147137272Y-84079500D01*
X147024764Y-84094313D01*
X147024760Y-84094314D01*
X146990295Y-84108590D01*
X146967825Y-84111005D01*
X146946329Y-84117980D01*
X146926530Y-84115445D01*
X146920825Y-84116059D01*
X146911267Y-84113941D01*
X146909759Y-84113543D01*
X146802569Y-84082402D01*
X146786774Y-84081158D01*
X146776012Y-84078325D01*
X146755240Y-84065787D01*
X146732569Y-84057145D01*
X146725865Y-84048055D01*
X146716195Y-84042218D01*
X146705498Y-84020438D01*
X146691099Y-84000913D01*
X146689712Y-83988294D01*
X146685395Y-83979504D01*
X146687109Y-83964615D01*
X146684649Y-83942224D01*
X146685498Y-83935770D01*
X146685500Y-83935766D01*
X146685500Y-83784234D01*
X146646281Y-83637865D01*
X146644403Y-83634613D01*
X146614937Y-83583576D01*
X146570515Y-83506635D01*
X146463365Y-83399485D01*
X146397750Y-83361602D01*
X146332136Y-83323719D01*
X146258950Y-83304109D01*
X146185766Y-83284500D01*
X146034234Y-83284500D01*
X145887863Y-83323719D01*
X145756635Y-83399485D01*
X145750189Y-83404432D01*
X145748099Y-83401709D01*
X145700217Y-83427466D01*
X145630558Y-83422043D01*
X145574888Y-83379821D01*
X145569299Y-83370976D01*
X145456751Y-83202537D01*
X145456748Y-83202533D01*
X145317466Y-83063251D01*
X145317462Y-83063248D01*
X145153684Y-82953814D01*
X145153671Y-82953807D01*
X144971691Y-82878429D01*
X144971683Y-82878427D01*
X144930000Y-82870135D01*
X144930000Y-83673011D01*
X144920060Y-83655795D01*
X144864205Y-83599940D01*
X144795796Y-83560444D01*
X144719496Y-83540000D01*
X144640504Y-83540000D01*
X144564204Y-83560444D01*
X144495795Y-83599940D01*
X144439940Y-83655795D01*
X144430000Y-83673011D01*
X144430000Y-82870136D01*
X144429999Y-82870135D01*
X144388316Y-82878427D01*
X144388308Y-82878429D01*
X144206328Y-82953807D01*
X144206315Y-82953814D01*
X144042537Y-83063248D01*
X144042533Y-83063251D01*
X143903251Y-83202533D01*
X143903248Y-83202537D01*
X143793814Y-83366315D01*
X143793807Y-83366328D01*
X143718430Y-83548306D01*
X143718427Y-83548318D01*
X143680000Y-83741504D01*
X143680000Y-84140000D01*
X144380000Y-84140000D01*
X144380000Y-84640000D01*
X143680000Y-84640000D01*
X143680000Y-85038495D01*
X143718427Y-85231681D01*
X143718430Y-85231693D01*
X143793807Y-85413671D01*
X143793814Y-85413684D01*
X143903248Y-85577462D01*
X143903251Y-85577466D01*
X144042533Y-85716748D01*
X144042537Y-85716751D01*
X144206315Y-85826185D01*
X144206328Y-85826192D01*
X144388308Y-85901569D01*
X144430000Y-85909862D01*
X144430000Y-85106988D01*
X144439940Y-85124205D01*
X144495795Y-85180060D01*
X144564204Y-85219556D01*
X144640504Y-85240000D01*
X144719496Y-85240000D01*
X144795796Y-85219556D01*
X144864205Y-85180060D01*
X144920060Y-85124205D01*
X144930000Y-85106988D01*
X144930000Y-85924390D01*
X144946894Y-85949193D01*
X144952511Y-85977563D01*
X144952898Y-85982482D01*
X144952900Y-85982495D01*
X144998716Y-86140193D01*
X144998717Y-86140196D01*
X145082314Y-86281552D01*
X145082321Y-86281561D01*
X145198438Y-86397678D01*
X145198450Y-86397687D01*
X145303245Y-86459662D01*
X145324264Y-86482173D01*
X145346800Y-86503177D01*
X145347896Y-86507482D01*
X145350929Y-86510730D01*
X145356440Y-86541030D01*
X145364044Y-86570885D01*
X145362638Y-86575101D01*
X145363433Y-86579472D01*
X145351687Y-86607943D01*
X145341944Y-86637167D01*
X145338150Y-86640758D01*
X145336788Y-86644062D01*
X145317880Y-86662986D01*
X145311822Y-86667862D01*
X145296956Y-86677032D01*
X145282610Y-86691377D01*
X145277401Y-86695571D01*
X145251041Y-86706473D01*
X145226000Y-86720146D01*
X145219165Y-86719656D01*
X145212836Y-86722275D01*
X145184763Y-86717195D01*
X145156308Y-86715159D01*
X145149566Y-86710826D01*
X145144083Y-86709834D01*
X145135332Y-86701677D01*
X145111965Y-86686660D01*
X145102732Y-86677427D01*
X145102728Y-86677424D01*
X144958492Y-86588457D01*
X144958481Y-86588452D01*
X144797606Y-86535144D01*
X144698322Y-86525000D01*
X144675000Y-86525000D01*
X144675000Y-87376000D01*
X144655315Y-87443039D01*
X144602511Y-87488794D01*
X144551000Y-87500000D01*
X144425000Y-87500000D01*
X144425000Y-87626000D01*
X144405315Y-87693039D01*
X144352511Y-87738794D01*
X144301000Y-87750000D01*
X143475001Y-87750000D01*
X143475001Y-87798322D01*
X143485144Y-87897607D01*
X143538452Y-88058481D01*
X143538457Y-88058492D01*
X143614064Y-88181068D01*
X143632505Y-88248460D01*
X143611583Y-88315124D01*
X143596209Y-88333844D01*
X143581923Y-88348130D01*
X143581915Y-88348140D01*
X143498255Y-88489603D01*
X143498254Y-88489606D01*
X143452402Y-88647426D01*
X143452401Y-88647432D01*
X143449500Y-88684298D01*
X143449500Y-89990701D01*
X143452401Y-90027567D01*
X143452402Y-90027573D01*
X143498254Y-90185393D01*
X143498255Y-90185396D01*
X143498256Y-90185398D01*
X143532732Y-90243694D01*
X143550000Y-90306814D01*
X143550000Y-91945000D01*
X143626000Y-91945000D01*
X143693039Y-91964685D01*
X143738794Y-92017489D01*
X143750000Y-92069000D01*
X143750000Y-94024999D01*
X143773308Y-94024999D01*
X143773322Y-94024998D01*
X143872607Y-94014855D01*
X144033481Y-93961547D01*
X144033492Y-93961542D01*
X144177731Y-93872573D01*
X144186959Y-93863345D01*
X144248279Y-93829856D01*
X144317971Y-93834835D01*
X144362327Y-93863339D01*
X144371955Y-93872967D01*
X144371959Y-93872970D01*
X144516294Y-93961998D01*
X144516297Y-93961999D01*
X144516303Y-93962003D01*
X144677292Y-94015349D01*
X144776655Y-94025500D01*
X145124902Y-94025499D01*
X145191941Y-94045183D01*
X145212583Y-94061818D01*
X145438181Y-94287416D01*
X145471666Y-94348739D01*
X145474500Y-94375097D01*
X145474500Y-94956386D01*
X145454815Y-95023425D01*
X145402011Y-95069180D01*
X145332853Y-95079124D01*
X145269297Y-95050099D01*
X145244384Y-95020537D01*
X145187253Y-94926032D01*
X145180472Y-94914815D01*
X145180471Y-94914814D01*
X145180468Y-94914810D01*
X145060188Y-94794530D01*
X144914606Y-94706522D01*
X144861459Y-94689961D01*
X144752196Y-94655914D01*
X144752194Y-94655913D01*
X144752192Y-94655913D01*
X144702778Y-94651423D01*
X144681616Y-94649500D01*
X144168384Y-94649500D01*
X144149145Y-94651248D01*
X144097807Y-94655913D01*
X143935393Y-94706522D01*
X143789811Y-94794530D01*
X143669531Y-94914810D01*
X143669528Y-94914814D01*
X143609942Y-95013380D01*
X143558414Y-95060567D01*
X143489554Y-95072405D01*
X143425226Y-95045135D01*
X143416145Y-95036910D01*
X141727557Y-93348322D01*
X142550001Y-93348322D01*
X142560144Y-93447607D01*
X142613452Y-93608481D01*
X142613457Y-93608492D01*
X142702424Y-93752728D01*
X142702427Y-93752732D01*
X142822267Y-93872572D01*
X142822271Y-93872575D01*
X142966507Y-93961542D01*
X142966518Y-93961547D01*
X143127393Y-94014855D01*
X143226683Y-94024999D01*
X143250000Y-94024998D01*
X143250000Y-93300000D01*
X142550001Y-93300000D01*
X142550001Y-93348322D01*
X141727557Y-93348322D01*
X141578472Y-93199237D01*
X141544987Y-93137914D01*
X141547820Y-93081389D01*
X141546109Y-93080979D01*
X141547246Y-93076241D01*
X141551857Y-93047133D01*
X141580500Y-92866287D01*
X141580500Y-92653713D01*
X141547246Y-92443757D01*
X141481557Y-92241588D01*
X141385051Y-92052184D01*
X141385049Y-92052181D01*
X141385048Y-92052179D01*
X141260109Y-91880213D01*
X141245545Y-91865649D01*
X142500000Y-91865649D01*
X142502899Y-91902489D01*
X142502900Y-91902495D01*
X142548716Y-92060193D01*
X142548717Y-92060196D01*
X142632314Y-92201552D01*
X142632321Y-92201561D01*
X142661938Y-92231177D01*
X142695424Y-92292499D01*
X142690440Y-92362191D01*
X142679797Y-92383956D01*
X142613454Y-92491513D01*
X142613452Y-92491518D01*
X142560144Y-92652393D01*
X142550000Y-92751677D01*
X142550000Y-92800000D01*
X143250000Y-92800000D01*
X143250000Y-92580000D01*
X143174000Y-92580000D01*
X143106961Y-92560315D01*
X143061206Y-92507511D01*
X143050000Y-92456000D01*
X143050000Y-91462500D01*
X142500000Y-91462500D01*
X142500000Y-91865649D01*
X141245545Y-91865649D01*
X141109786Y-91729890D01*
X140937820Y-91604951D01*
X140937115Y-91604591D01*
X140929054Y-91600485D01*
X140926030Y-91597628D01*
X140921998Y-91596596D01*
X140900845Y-91573843D01*
X140878259Y-91552512D01*
X140877258Y-91548471D01*
X140874425Y-91545424D01*
X140868931Y-91514847D01*
X140861463Y-91484692D01*
X140862805Y-91480752D01*
X140862069Y-91476655D01*
X140873980Y-91447957D01*
X140883999Y-91418556D01*
X140887713Y-91414870D01*
X140888854Y-91412123D01*
X140897779Y-91404883D01*
X140914703Y-91388092D01*
X140921585Y-91383321D01*
X140937816Y-91375051D01*
X141109792Y-91250104D01*
X141260104Y-91099792D01*
X141260106Y-91099788D01*
X141260109Y-91099786D01*
X141385048Y-90927820D01*
X141385047Y-90927820D01*
X141385051Y-90927816D01*
X141481557Y-90738412D01*
X141539738Y-90559350D01*
X142500000Y-90559350D01*
X142500000Y-90962500D01*
X143050000Y-90962500D01*
X143050000Y-89977703D01*
X143047503Y-89977900D01*
X142889806Y-90023716D01*
X142889803Y-90023717D01*
X142748447Y-90107314D01*
X142748438Y-90107321D01*
X142632321Y-90223438D01*
X142632314Y-90223447D01*
X142548717Y-90364803D01*
X142548716Y-90364806D01*
X142502900Y-90522504D01*
X142502899Y-90522510D01*
X142500000Y-90559350D01*
X141539738Y-90559350D01*
X141547246Y-90536243D01*
X141580500Y-90326287D01*
X141580500Y-90113713D01*
X141547246Y-89903757D01*
X141481557Y-89701588D01*
X141385051Y-89512184D01*
X141385049Y-89512181D01*
X141385048Y-89512179D01*
X141260109Y-89340213D01*
X141109786Y-89189890D01*
X140937820Y-89064951D01*
X140937115Y-89064591D01*
X140929054Y-89060485D01*
X140878259Y-89012512D01*
X140861463Y-88944692D01*
X140883999Y-88878556D01*
X140929054Y-88839515D01*
X140937816Y-88835051D01*
X140959789Y-88819086D01*
X141109786Y-88710109D01*
X141109788Y-88710106D01*
X141109792Y-88710104D01*
X141260104Y-88559792D01*
X141260106Y-88559788D01*
X141260109Y-88559786D01*
X141385048Y-88387820D01*
X141385047Y-88387820D01*
X141385051Y-88387816D01*
X141481557Y-88198412D01*
X141547246Y-87996243D01*
X141580500Y-87786287D01*
X141580500Y-87573713D01*
X141547246Y-87363757D01*
X141494583Y-87201677D01*
X143475000Y-87201677D01*
X143475000Y-87250000D01*
X144175000Y-87250000D01*
X144175000Y-86524999D01*
X144151693Y-86525000D01*
X144151674Y-86525001D01*
X144052392Y-86535144D01*
X143891518Y-86588452D01*
X143891507Y-86588457D01*
X143747271Y-86677424D01*
X143747267Y-86677427D01*
X143627427Y-86797267D01*
X143627424Y-86797271D01*
X143538457Y-86941507D01*
X143538452Y-86941518D01*
X143485144Y-87102393D01*
X143475000Y-87201677D01*
X141494583Y-87201677D01*
X141481557Y-87161588D01*
X141481555Y-87161585D01*
X141481555Y-87161583D01*
X141404638Y-87010626D01*
X141385051Y-86972184D01*
X141385049Y-86972181D01*
X141385048Y-86972179D01*
X141260109Y-86800213D01*
X141109786Y-86649890D01*
X140937817Y-86524949D01*
X140928504Y-86520204D01*
X140877707Y-86472230D01*
X140860912Y-86404409D01*
X140883449Y-86338274D01*
X140928507Y-86299232D01*
X140937555Y-86294622D01*
X140991716Y-86255270D01*
X140991717Y-86255270D01*
X140359408Y-85622962D01*
X140422993Y-85605925D01*
X140537007Y-85540099D01*
X140630099Y-85447007D01*
X140695925Y-85332993D01*
X140712962Y-85269409D01*
X141345270Y-85901717D01*
X141345270Y-85901716D01*
X141384622Y-85847554D01*
X141481095Y-85658217D01*
X141546757Y-85456130D01*
X141546757Y-85456127D01*
X141580000Y-85246246D01*
X141580000Y-85033753D01*
X141546757Y-84823872D01*
X141546757Y-84823869D01*
X141482776Y-84626956D01*
X141482774Y-84626951D01*
X141481093Y-84621779D01*
X141384624Y-84432449D01*
X141345270Y-84378282D01*
X141345269Y-84378282D01*
X140712962Y-85010590D01*
X140695925Y-84947007D01*
X140630099Y-84832993D01*
X140537007Y-84739901D01*
X140422993Y-84674075D01*
X140359409Y-84657037D01*
X140991716Y-84024728D01*
X140937547Y-83985373D01*
X140937547Y-83985372D01*
X140928500Y-83980763D01*
X140877706Y-83932788D01*
X140860912Y-83864966D01*
X140883451Y-83798832D01*
X140913277Y-83768985D01*
X140920556Y-83763845D01*
X140937816Y-83755051D01*
X141109792Y-83630104D01*
X141260104Y-83479792D01*
X141260106Y-83479788D01*
X141260109Y-83479786D01*
X141385048Y-83307820D01*
X141385047Y-83307820D01*
X141385051Y-83307816D01*
X141481557Y-83118412D01*
X141547246Y-82916243D01*
X141580500Y-82706287D01*
X141580500Y-82493713D01*
X141547246Y-82283757D01*
X141481557Y-82081588D01*
X141385051Y-81892184D01*
X141385049Y-81892181D01*
X141385048Y-81892179D01*
X141260109Y-81720213D01*
X141146569Y-81606673D01*
X141113084Y-81545350D01*
X141118068Y-81475658D01*
X141159940Y-81419725D01*
X141190915Y-81402810D01*
X141322331Y-81353796D01*
X141437546Y-81267546D01*
X141523796Y-81152331D01*
X141574091Y-81017483D01*
X141580500Y-80957873D01*
X141580499Y-79960000D01*
X141580499Y-79314500D01*
X141600184Y-79247461D01*
X141652987Y-79201706D01*
X141704499Y-79190500D01*
X143726076Y-79190500D01*
X143793115Y-79210185D01*
G37*
%TD.AperFunction*%
%TA.AperFunction,Conductor*%
G36*
X152823239Y-90408433D02*
G01*
X152828390Y-90407028D01*
X152850744Y-90414062D01*
X152883081Y-90420681D01*
X152893928Y-90427651D01*
X152895038Y-90428001D01*
X152896447Y-90429270D01*
X152900515Y-90431885D01*
X152901529Y-90432662D01*
X152904053Y-90436122D01*
X152921261Y-90451624D01*
X153048553Y-90604380D01*
X153076347Y-90668483D01*
X153076232Y-90699943D01*
X153074500Y-90713101D01*
X153074500Y-90911903D01*
X153088989Y-91021968D01*
X153091094Y-91029822D01*
X153087814Y-91030700D01*
X153093581Y-91084573D01*
X153090517Y-91095022D01*
X153091095Y-91095177D01*
X153088990Y-91103029D01*
X153074500Y-91213098D01*
X153074500Y-91411896D01*
X153076233Y-91425055D01*
X153065465Y-91494090D01*
X153048554Y-91520618D01*
X152921261Y-91673375D01*
X152915252Y-91677402D01*
X152901466Y-91692385D01*
X152900466Y-91693152D01*
X152879898Y-91701098D01*
X152863222Y-91712276D01*
X152850325Y-91712524D01*
X152835292Y-91718333D01*
X152810717Y-91713287D01*
X152793365Y-91713622D01*
X152783869Y-91707775D01*
X152766850Y-91704281D01*
X152749534Y-91693152D01*
X152748534Y-91692385D01*
X152740079Y-91680811D01*
X152733870Y-91676988D01*
X152727316Y-91663340D01*
X152707319Y-91635966D01*
X152700000Y-91593994D01*
X152700000Y-91565873D01*
X152615658Y-91576978D01*
X152607806Y-91579082D01*
X152606917Y-91575764D01*
X152552804Y-91581209D01*
X152542444Y-91578130D01*
X152542320Y-91578594D01*
X152534472Y-91576491D01*
X152424401Y-91562000D01*
X152225598Y-91562000D01*
X152212953Y-91563665D01*
X152143918Y-91552895D01*
X152091665Y-91506512D01*
X152072784Y-91439242D01*
X152073836Y-91424539D01*
X152075500Y-91411901D01*
X152075499Y-91213100D01*
X152061009Y-91103028D01*
X152061008Y-91103025D01*
X152058905Y-91095174D01*
X152062207Y-91094289D01*
X152056392Y-91040575D01*
X152059501Y-91029985D01*
X152058905Y-91029826D01*
X152061008Y-91021975D01*
X152061008Y-91021974D01*
X152061009Y-91021972D01*
X152075500Y-90911901D01*
X152075499Y-90713100D01*
X152073835Y-90700459D01*
X152084601Y-90631425D01*
X152130981Y-90579169D01*
X152198249Y-90560284D01*
X152212959Y-90561336D01*
X152213945Y-90561465D01*
X152225599Y-90563000D01*
X152424400Y-90562999D01*
X152424401Y-90562999D01*
X152453828Y-90559125D01*
X152534472Y-90548509D01*
X152534475Y-90548507D01*
X152542326Y-90546405D01*
X152543158Y-90549512D01*
X152597583Y-90543622D01*
X152607623Y-90546622D01*
X152607812Y-90545919D01*
X152615665Y-90548023D01*
X152699998Y-90559125D01*
X152700000Y-90559124D01*
X152700000Y-90531005D01*
X152701066Y-90527373D01*
X152700216Y-90523684D01*
X152710834Y-90494106D01*
X152712283Y-90489173D01*
X152714220Y-90477329D01*
X152716506Y-90474790D01*
X152719685Y-90463966D01*
X152722917Y-90460450D01*
X152723825Y-90457923D01*
X152748468Y-90432664D01*
X152749475Y-90431891D01*
X152758190Y-90428518D01*
X152760984Y-90425417D01*
X152778658Y-90420595D01*
X152814630Y-90406671D01*
X152823239Y-90408433D01*
G37*
%TD.AperFunction*%
%TA.AperFunction,Conductor*%
G36*
X145210705Y-88282529D02*
G01*
X145242971Y-88284835D01*
X145245656Y-88286560D01*
X145247982Y-88286829D01*
X145278196Y-88305072D01*
X145282960Y-88308972D01*
X145296956Y-88322968D01*
X145309527Y-88330721D01*
X145315929Y-88335963D01*
X145331148Y-88358249D01*
X145349200Y-88378318D01*
X145350559Y-88386673D01*
X145355332Y-88393662D01*
X145356087Y-88420637D01*
X145360423Y-88447281D01*
X145357050Y-88455043D01*
X145357287Y-88463504D01*
X145351943Y-88479356D01*
X145347640Y-88489744D01*
X145347636Y-88489757D01*
X145316876Y-88644399D01*
X145316876Y-88802092D01*
X145347637Y-88956735D01*
X145347640Y-88956747D01*
X145408239Y-89103048D01*
X145415708Y-89172517D01*
X145384432Y-89234996D01*
X145324343Y-89270648D01*
X145293678Y-89274500D01*
X145174500Y-89274500D01*
X145107461Y-89254815D01*
X145061706Y-89202011D01*
X145050500Y-89150500D01*
X145050500Y-88684313D01*
X145050499Y-88684298D01*
X145049034Y-88665687D01*
X145047598Y-88647431D01*
X145046719Y-88644404D01*
X145002262Y-88491382D01*
X145002461Y-88421513D01*
X145040403Y-88362843D01*
X145056242Y-88351248D01*
X145102732Y-88322572D01*
X145111959Y-88313345D01*
X145114409Y-88312006D01*
X145115854Y-88309615D01*
X145144890Y-88295359D01*
X145173279Y-88279856D01*
X145176065Y-88280055D01*
X145178573Y-88278824D01*
X145210705Y-88282529D01*
G37*
%TD.AperFunction*%
%TA.AperFunction,Conductor*%
G36*
X148256498Y-86872656D02*
G01*
X148285806Y-86889577D01*
X148395827Y-86919057D01*
X148395826Y-86919057D01*
X148407269Y-86922122D01*
X148438532Y-86930500D01*
X148438533Y-86930500D01*
X148525500Y-86930500D01*
X148592539Y-86950185D01*
X148638294Y-87002989D01*
X148649500Y-87054500D01*
X148649500Y-87791552D01*
X148629815Y-87858591D01*
X148613181Y-87879233D01*
X148093733Y-88398681D01*
X148032410Y-88432166D01*
X148006052Y-88435000D01*
X147374000Y-88435000D01*
X147306961Y-88415315D01*
X147261206Y-88362511D01*
X147250000Y-88311000D01*
X147250000Y-88059499D01*
X147252486Y-88051032D01*
X147251198Y-88042301D01*
X147262179Y-88018021D01*
X147269685Y-87992460D01*
X147276354Y-87986681D01*
X147279991Y-87978640D01*
X147302355Y-87964151D01*
X147322489Y-87946705D01*
X147332764Y-87944449D01*
X147338630Y-87940650D01*
X147372664Y-87935693D01*
X147373546Y-87935500D01*
X147373750Y-87935499D01*
X147499180Y-87935499D01*
X147505294Y-87935017D01*
X147509939Y-87935001D01*
X147509990Y-87935015D01*
X147510393Y-87935000D01*
X148062844Y-87935000D01*
X148022404Y-87795805D01*
X147988581Y-87738612D01*
X147971398Y-87670888D01*
X147988582Y-87612369D01*
X148022867Y-87554396D01*
X148022869Y-87554393D01*
X148051487Y-87455889D01*
X148067664Y-87400208D01*
X148067665Y-87400202D01*
X148070500Y-87364181D01*
X148070499Y-86980042D01*
X148090183Y-86913004D01*
X148142987Y-86867249D01*
X148212146Y-86857305D01*
X148256498Y-86872656D01*
G37*
%TD.AperFunction*%
%TA.AperFunction,Conductor*%
G36*
X156618883Y-83204787D02*
G01*
X156634088Y-83204136D01*
X156651726Y-83214431D01*
X156671320Y-83220185D01*
X156682216Y-83232228D01*
X156694430Y-83239358D01*
X156714765Y-83268205D01*
X156734947Y-83307814D01*
X156734948Y-83307815D01*
X156859890Y-83479786D01*
X157010213Y-83630109D01*
X157182179Y-83755048D01*
X157182181Y-83755049D01*
X157182184Y-83755051D01*
X157191493Y-83759794D01*
X157242290Y-83807766D01*
X157259087Y-83875587D01*
X157236552Y-83941722D01*
X157191505Y-83980760D01*
X157182446Y-83985376D01*
X157182440Y-83985380D01*
X157128282Y-84024727D01*
X157128282Y-84024728D01*
X157760591Y-84657037D01*
X157697007Y-84674075D01*
X157582993Y-84739901D01*
X157489901Y-84832993D01*
X157424075Y-84947007D01*
X157407037Y-85010591D01*
X156774728Y-84378282D01*
X156774727Y-84378282D01*
X156735380Y-84432439D01*
X156638904Y-84621782D01*
X156573242Y-84823869D01*
X156573242Y-84823872D01*
X156540000Y-85033753D01*
X156540000Y-85246246D01*
X156573242Y-85456127D01*
X156573242Y-85456130D01*
X156638904Y-85658217D01*
X156735375Y-85847550D01*
X156774728Y-85901716D01*
X157407037Y-85269408D01*
X157424075Y-85332993D01*
X157489901Y-85447007D01*
X157582993Y-85540099D01*
X157697007Y-85605925D01*
X157760590Y-85622962D01*
X157128282Y-86255269D01*
X157128282Y-86255270D01*
X157182452Y-86294626D01*
X157182451Y-86294626D01*
X157191495Y-86299234D01*
X157242292Y-86347208D01*
X157259087Y-86415029D01*
X157236550Y-86481164D01*
X157191499Y-86520202D01*
X157182182Y-86524949D01*
X157010213Y-86649890D01*
X156859890Y-86800213D01*
X156734951Y-86972179D01*
X156638444Y-87161585D01*
X156572753Y-87363760D01*
X156539500Y-87573713D01*
X156539500Y-87786287D01*
X156546266Y-87829007D01*
X156572754Y-87996244D01*
X156572754Y-87996247D01*
X156586491Y-88038523D01*
X156588486Y-88108364D01*
X156556241Y-88164522D01*
X156370024Y-88350740D01*
X156308701Y-88384225D01*
X156239010Y-88379241D01*
X156183076Y-88337370D01*
X156158659Y-88271905D01*
X156158343Y-88263059D01*
X156158343Y-83324500D01*
X156178028Y-83257461D01*
X156230832Y-83211706D01*
X156282343Y-83200500D01*
X156604281Y-83200500D01*
X156618883Y-83204787D01*
G37*
%TD.AperFunction*%
%TA.AperFunction,Conductor*%
G36*
X154876677Y-84025071D02*
G01*
X154932610Y-84066943D01*
X154957027Y-84132407D01*
X154957343Y-84141253D01*
X154957343Y-87362176D01*
X154937658Y-87429215D01*
X154884854Y-87474970D01*
X154815696Y-87484914D01*
X154752140Y-87455889D01*
X154745662Y-87449857D01*
X154715692Y-87419887D01*
X154715684Y-87419881D01*
X154576393Y-87337505D01*
X154576390Y-87337504D01*
X154420997Y-87292357D01*
X154420991Y-87292356D01*
X154384697Y-87289500D01*
X154384690Y-87289500D01*
X153975310Y-87289500D01*
X153975302Y-87289500D01*
X153939008Y-87292356D01*
X153939002Y-87292357D01*
X153783609Y-87337504D01*
X153783604Y-87337506D01*
X153762628Y-87349911D01*
X153694903Y-87367092D01*
X153636389Y-87349911D01*
X153616191Y-87337966D01*
X153616190Y-87337965D01*
X153470001Y-87295493D01*
X153470000Y-87295494D01*
X153470000Y-87601645D01*
X153452734Y-87664763D01*
X153447507Y-87673600D01*
X153447504Y-87673608D01*
X153402357Y-87829002D01*
X153402356Y-87829008D01*
X153399500Y-87865302D01*
X153399500Y-87976000D01*
X153396949Y-87984685D01*
X153398238Y-87993647D01*
X153387259Y-88017687D01*
X153379815Y-88043039D01*
X153372974Y-88048966D01*
X153369213Y-88057203D01*
X153346978Y-88071492D01*
X153327011Y-88088794D01*
X153316496Y-88091081D01*
X153310435Y-88094977D01*
X153275500Y-88100000D01*
X153094000Y-88100000D01*
X153026961Y-88080315D01*
X152981206Y-88027511D01*
X152970000Y-87976000D01*
X152970000Y-87295494D01*
X152950048Y-87280514D01*
X152908257Y-87224521D01*
X152900500Y-87181357D01*
X152900500Y-87055253D01*
X152900500Y-86897556D01*
X152900501Y-86897543D01*
X152900501Y-86729440D01*
X152898011Y-86720146D01*
X152859577Y-86576712D01*
X152820384Y-86508828D01*
X152803912Y-86440929D01*
X152826765Y-86374902D01*
X152840091Y-86359147D01*
X152917681Y-86281557D01*
X152917685Y-86281552D01*
X153001282Y-86140196D01*
X153001283Y-86140193D01*
X153047099Y-85982495D01*
X153047100Y-85982488D01*
X153047487Y-85977574D01*
X153070000Y-85918501D01*
X153070000Y-85106988D01*
X153079940Y-85124205D01*
X153135795Y-85180060D01*
X153204204Y-85219556D01*
X153280504Y-85240000D01*
X153359496Y-85240000D01*
X153435796Y-85219556D01*
X153504205Y-85180060D01*
X153560060Y-85124205D01*
X153570000Y-85106988D01*
X153570000Y-85909862D01*
X153611690Y-85901569D01*
X153611692Y-85901569D01*
X153793671Y-85826192D01*
X153793684Y-85826185D01*
X153957462Y-85716751D01*
X153957466Y-85716748D01*
X154096748Y-85577466D01*
X154096751Y-85577462D01*
X154206185Y-85413684D01*
X154206192Y-85413671D01*
X154281569Y-85231693D01*
X154281572Y-85231681D01*
X154319999Y-85038495D01*
X154320000Y-85038492D01*
X154320000Y-84640000D01*
X154303759Y-84623759D01*
X154292028Y-84620315D01*
X154246273Y-84567511D01*
X154236329Y-84498353D01*
X154265354Y-84434797D01*
X154307187Y-84403375D01*
X154316776Y-84398957D01*
X154351785Y-84389577D01*
X154404647Y-84359057D01*
X154488716Y-84310520D01*
X154600520Y-84198716D01*
X154600520Y-84198714D01*
X154610720Y-84188515D01*
X154610723Y-84188510D01*
X154745665Y-84053569D01*
X154806985Y-84020087D01*
X154876677Y-84025071D01*
G37*
%TD.AperFunction*%
%TA.AperFunction,Conductor*%
G36*
X139764075Y-85332993D02*
G01*
X139829901Y-85447007D01*
X139922993Y-85540099D01*
X140037007Y-85605925D01*
X140100590Y-85622962D01*
X139468282Y-86255269D01*
X139468282Y-86255270D01*
X139522452Y-86294626D01*
X139522451Y-86294626D01*
X139531495Y-86299234D01*
X139582292Y-86347208D01*
X139599087Y-86415029D01*
X139576550Y-86481164D01*
X139531499Y-86520202D01*
X139522182Y-86524949D01*
X139350213Y-86649890D01*
X139350209Y-86649894D01*
X139212181Y-86787923D01*
X139150858Y-86821408D01*
X139081166Y-86816424D01*
X139025233Y-86774552D01*
X139000816Y-86709088D01*
X139000500Y-86700242D01*
X139000500Y-86026869D01*
X139020185Y-85959830D01*
X139072989Y-85914075D01*
X139108677Y-85907767D01*
X139747037Y-85269408D01*
X139764075Y-85332993D01*
G37*
%TD.AperFunction*%
%TA.AperFunction,Conductor*%
G36*
X158963181Y-85859627D02*
G01*
X158996666Y-85920950D01*
X158999500Y-85947308D01*
X158999500Y-86580242D01*
X158979815Y-86647281D01*
X158927011Y-86693036D01*
X158857853Y-86702980D01*
X158794297Y-86673955D01*
X158787819Y-86667923D01*
X158769786Y-86649890D01*
X158597817Y-86524949D01*
X158588504Y-86520204D01*
X158537707Y-86472230D01*
X158520912Y-86404409D01*
X158543449Y-86338274D01*
X158588507Y-86299232D01*
X158597555Y-86294622D01*
X158651716Y-86255270D01*
X158651717Y-86255270D01*
X158019408Y-85622962D01*
X158082993Y-85605925D01*
X158197007Y-85540099D01*
X158290099Y-85447007D01*
X158355925Y-85332993D01*
X158372962Y-85269408D01*
X158963181Y-85859627D01*
G37*
%TD.AperFunction*%
%TA.AperFunction,Conductor*%
G36*
X139205703Y-83486045D02*
G01*
X139212181Y-83492077D01*
X139350213Y-83630109D01*
X139522179Y-83755048D01*
X139522181Y-83755049D01*
X139522184Y-83755051D01*
X139531493Y-83759794D01*
X139582290Y-83807766D01*
X139599087Y-83875587D01*
X139576552Y-83941722D01*
X139531505Y-83980760D01*
X139522446Y-83985376D01*
X139522440Y-83985380D01*
X139468282Y-84024727D01*
X139468282Y-84024728D01*
X140100591Y-84657037D01*
X140037007Y-84674075D01*
X139922993Y-84739901D01*
X139829901Y-84832993D01*
X139764075Y-84947007D01*
X139747037Y-85010591D01*
X139107598Y-84371152D01*
X139065851Y-84362382D01*
X139016094Y-84313331D01*
X139000500Y-84253129D01*
X139000500Y-83579758D01*
X139020185Y-83512719D01*
X139072989Y-83466964D01*
X139142147Y-83457020D01*
X139205703Y-83486045D01*
G37*
%TD.AperFunction*%
%TA.AperFunction,Conductor*%
G36*
X158918834Y-83583576D02*
G01*
X158974767Y-83625448D01*
X158999184Y-83690912D01*
X158999500Y-83699758D01*
X158999500Y-84332692D01*
X158979815Y-84399731D01*
X158963181Y-84420373D01*
X158372962Y-85010591D01*
X158355925Y-84947007D01*
X158290099Y-84832993D01*
X158197007Y-84739901D01*
X158082993Y-84674075D01*
X158019409Y-84657037D01*
X158651716Y-84024728D01*
X158597547Y-83985373D01*
X158597547Y-83985372D01*
X158588500Y-83980763D01*
X158537706Y-83932788D01*
X158520912Y-83864966D01*
X158543451Y-83798832D01*
X158588508Y-83759793D01*
X158597816Y-83755051D01*
X158715634Y-83669452D01*
X158769786Y-83630109D01*
X158769788Y-83630106D01*
X158769792Y-83630104D01*
X158787819Y-83612077D01*
X158849142Y-83578592D01*
X158918834Y-83583576D01*
G37*
%TD.AperFunction*%
%TA.AperFunction,Conductor*%
G36*
X153633125Y-84193346D02*
G01*
X153634532Y-84192267D01*
X153639478Y-84198713D01*
X153639480Y-84198716D01*
X153751284Y-84310520D01*
X153751286Y-84310521D01*
X153751290Y-84310524D01*
X153830409Y-84356203D01*
X153830412Y-84356204D01*
X153835353Y-84359057D01*
X153888215Y-84389577D01*
X153923223Y-84398957D01*
X153932813Y-84403375D01*
X153951505Y-84419679D01*
X153972688Y-84432591D01*
X153977378Y-84442246D01*
X153985467Y-84449302D01*
X153992377Y-84473124D01*
X154003216Y-84495438D01*
X154001941Y-84506096D01*
X154004932Y-84516406D01*
X153997865Y-84540183D01*
X153994921Y-84564813D01*
X153988086Y-84573089D01*
X153985029Y-84583380D01*
X153966228Y-84599563D01*
X153950435Y-84618691D01*
X153940209Y-84621959D01*
X153932075Y-84628962D01*
X153907512Y-84632411D01*
X153883883Y-84639965D01*
X153880933Y-84640000D01*
X153620000Y-84640000D01*
X153620000Y-84179581D01*
X153633125Y-84193346D01*
G37*
%TD.AperFunction*%
%TD*%
M02*
